<svg width="21" height="21" viewBox="0 0 21 21" fill="none" xmlns="http://www.w3.org/2000/svg">
<path fill-rule="evenodd" clip-rule="evenodd" d="M9.43904 0C11.1767 0 12.5854 1.40867 12.5854 3.14635L12.5855 4.37413C12.9135 4.25821 13.2665 4.19513 13.6342 4.19513H17.8293C19.567 4.19513 20.9756 5.6038 20.9756 7.34148V17.8293C20.9756 19.567 19.567 20.9756 17.8293 20.9756H3.14635C1.40867 20.9756 0 19.567 0 17.8293V3.14635C0 1.40867 1.40867 0 3.14635 0H9.43904ZM9.43904 2.09756H3.14635C2.56712 2.09756 2.09756 2.56712 2.09756 3.14635V17.8293C2.09756 18.4085 2.56712 18.8781 3.14635 18.8781H10.4878V3.14635C10.4878 2.56712 10.0183 2.09756 9.43904 2.09756ZM17.8293 6.29269H13.6342C13.0549 6.29269 12.5854 6.76225 12.5854 7.34148V18.8781H17.8293C18.4085 18.8781 18.8781 18.4085 18.8781 17.8293V7.34148C18.8781 6.76225 18.4085 6.29269 17.8293 6.29269ZM7.34148 12.5854C7.9207 12.5854 8.39026 13.0549 8.39026 13.6342C8.39026 14.2134 7.9207 14.683 7.34148 14.683H5.24391C4.66468 14.683 4.19513 14.2134 4.19513 13.6342C4.19513 13.0549 4.66468 12.5854 5.24391 12.5854H7.34148ZM16.7805 12.5854C17.3597 12.5854 17.8293 13.0549 17.8293 13.6342C17.8293 14.2134 17.3597 14.683 16.7805 14.683H14.683C14.1037 14.683 13.6342 14.2134 13.6342 13.6342C13.6342 13.0549 14.1037 12.5854 14.683 12.5854H16.7805ZM7.34148 8.39026C7.9207 8.39026 8.39026 8.85981 8.39026 9.43904C8.39026 10.0183 7.9207 10.4878 7.34148 10.4878H5.24391C4.66468 10.4878 4.19513 10.0183 4.19513 9.43904C4.19513 8.85981 4.66468 8.39026 5.24391 8.39026H7.34148ZM16.7805 8.39026C17.3597 8.39026 17.8293 8.85981 17.8293 9.43904C17.8293 10.0183 17.3597 10.4878 16.7805 10.4878H14.683C14.1037 10.4878 13.6342 10.0183 13.6342 9.43904C13.6342 8.85981 14.1037 8.39026 14.683 8.39026H16.7805ZM7.34148 4.19513C7.9207 4.19513 8.39026 4.66468 8.39026 5.24391C8.39026 5.82314 7.9207 6.29269 7.34148 6.29269H5.24391C4.66468 6.29269 4.19513 5.82314 4.19513 5.24391C4.19513 4.66468 4.66468 4.19513 5.24391 4.19513H7.34148Z" fill="#0A1E5C"/>
</svg>
