<svg width="41" height="41" viewBox="0 0 41 41" fill="none" xmlns="http://www.w3.org/2000/svg">
<path d="M10.25 7.6875H25.625V10.25H10.25V7.6875ZM10.25 12.8125H25.625V15.375H10.25V12.8125ZM10.25 17.9375H17.9375V20.5H10.25V17.9375ZM10.25 30.75H15.375V33.3125H10.25V30.75Z" fill="#C5C5C5"/>
<path d="M38.0621 24.7192L34.2183 20.8754C33.9781 20.6352 33.6522 20.5003 33.3125 20.5003C32.9728 20.5003 32.6469 20.6352 32.4067 20.8754L20.5 32.7821V38.4375H26.1554L38.0621 26.5308C38.3023 26.2906 38.4372 25.9647 38.4372 25.625C38.4372 25.2853 38.3023 24.9594 38.0621 24.7192ZM25.0946 35.875H23.0625V33.8429L29.4688 27.4367L31.5008 29.4688L25.0946 35.875ZM33.3125 27.6571L31.2804 25.625L33.3125 23.5929L35.3446 25.625L33.3125 27.6571ZM15.375 38.4375H7.6875C7.00809 38.4368 6.3567 38.1666 5.87629 37.6862C5.39587 37.2058 5.12568 36.5544 5.125 35.875V5.125C5.12568 4.44559 5.39587 3.7942 5.87629 3.31379C6.3567 2.83337 7.00809 2.56318 7.6875 2.5625H28.1875C28.8669 2.56318 29.5183 2.83337 29.9987 3.31379C30.4791 3.7942 30.7493 4.44559 30.75 5.125V17.9375H28.1875V5.125H7.6875V35.875H15.375V38.4375Z" fill="#C5C5C5"/>
</svg>
