<svg width="22" height="21" viewBox="0 0 22 21" fill="none" xmlns="http://www.w3.org/2000/svg">
<path d="M17.4391 7.96876L21.7047 2.63672C21.8484 2.45726 21.9384 2.24082 21.9643 2.0124C21.9902 1.78397 21.951 1.55287 21.8512 1.34578C21.7513 1.13869 21.595 0.964061 21.4001 0.842052C21.2053 0.720043 20.9799 0.655631 20.75 0.656254H2.0625C1.73927 0.656254 1.42927 0.784658 1.20071 1.01322C0.972154 1.24178 0.84375 1.55177 0.84375 1.875V18.9375C0.84375 19.2607 0.972154 19.5707 1.20071 19.7993C1.42927 20.0279 1.73927 20.1563 2.0625 20.1563C2.38573 20.1563 2.69573 20.0279 2.92429 19.7993C3.15285 19.5707 3.28125 19.2607 3.28125 18.9375V15.2813H20.75C20.9799 15.2819 21.2053 15.2175 21.4001 15.0955C21.595 14.9734 21.7513 14.7988 21.8512 14.5917C21.951 14.3846 21.9902 14.1535 21.9643 13.9251C21.9384 13.6967 21.8484 13.4802 21.7047 13.3008L17.4391 7.96876ZM3.28125 12.8438V3.09375H18.2109L14.9203 7.20704C14.7472 7.4232 14.6529 7.69185 14.6529 7.96876C14.6529 8.24566 14.7472 8.51431 14.9203 8.73047L18.2109 12.8438H3.28125Z" fill="#315576"/>
</svg>
