<svg width="21" height="21" viewBox="0 0 21 21" fill="none" xmlns="http://www.w3.org/2000/svg">
<g clip-path="url(#clip0_406_21260)">
<path fill-rule="evenodd" clip-rule="evenodd" d="M0 10.5C0 7.71523 1.10625 5.04451 3.07538 3.07538C5.04451 1.10625 7.71523 0 10.5 0C13.2848 0 15.9555 1.10625 17.9246 3.07538C19.8938 5.04451 21 7.71523 21 10.5C21 13.2848 19.8938 15.9555 17.9246 17.9246C15.9555 19.8938 13.2848 21 10.5 21C7.71523 21 5.04451 19.8938 3.07538 17.9246C1.10625 15.9555 0 13.2848 0 10.5ZM9.9008 14.994L15.946 7.4368L14.854 6.5632L9.6992 13.0046L6.048 9.9624L5.152 11.0376L9.9008 14.9954V14.994Z" fill="#03AA14"/>
</g>
<defs>
<clipPath id="clip0_406_21260">
<rect width="21" height="21" fill="white"/>
</clipPath>
</defs>
</svg>
