<svg width="23" height="22" viewBox="0 0 23 22" fill="none" xmlns="http://www.w3.org/2000/svg">
<ellipse cx="11.104" cy="10.9769" rx="11.104" ry="10.9771" fill="#FFBF5F"/>
<path d="M12.8037 16.4483C12.8037 17.4156 12.021 18.2087 11.023 18.2087C10.0249 18.2087 9.24219 17.4156 9.24219 16.4483C9.24219 15.481 10.0249 14.6879 11.023 14.6879C12.021 14.6879 12.8037 15.481 12.8037 16.4483ZM11.839 12.9275H10.1883C9.94358 12.9275 9.74213 12.7372 9.73098 12.4956L9.38152 4.94687C9.36958 4.68907 9.57779 4.47363 9.83882 4.47363H12.206C12.4674 4.47363 12.6758 4.68975 12.6632 4.94791L12.2963 12.4966C12.2846 12.7378 12.0833 12.9275 11.839 12.9275Z" fill="white"/>
</svg>
