<svg width="33" height="33" viewBox="0 0 33 33" fill="none" xmlns="http://www.w3.org/2000/svg">
<ellipse cx="16.0857" cy="16.3402" rx="16.0857" ry="16.3402" fill="#FFBF5F"/>
<path d="M18.5461 24.4788C18.5461 25.9187 17.4122 27.0993 15.9664 27.0993C14.5206 27.0993 13.3867 25.9187 13.3867 24.4788C13.3867 23.039 14.5206 21.8584 15.9664 21.8584C17.4122 21.8584 18.5461 23.039 18.5461 24.4788ZM17.1486 19.2379H14.7573C14.4028 19.2379 14.111 18.9547 14.0948 18.595L13.5886 7.35826C13.5713 6.9745 13.8729 6.65381 14.251 6.65381H17.6802C18.0589 6.65381 18.3608 6.97551 18.3426 7.3598L17.811 18.5965C17.7941 18.9556 17.5025 19.2379 17.1486 19.2379Z" fill="white"/>
</svg>
