<svg width="47" height="50" viewBox="0 0 47 50" fill="none" xmlns="http://www.w3.org/2000/svg">
<path d="M25.0853 1.11882H25.0907L44.5437 12.0398C45.5358 12.6038 46.1397 13.6117 46.1397 14.6739V35.1281C46.1397 36.6671 45.2811 38.1502 43.7991 38.969L25.0194 49.502C24.4849 49.8059 23.8695 49.9668 23.2417 49.9668C22.614 49.9668 21.9985 49.8059 21.464 49.502L2.67897 38.9657C1.96583 38.5646 1.37645 38.001 0.967484 37.3289C0.558521 36.6568 0.343727 35.8989 0.34375 35.1281V14.6739C0.34375 13.6281 0.935125 12.6005 1.96113 12.0431L21.432 1.10895C21.9843 0.802916 22.6168 0.642074 23.261 0.643813C23.9052 0.645552 24.5367 0.809805 25.0871 1.11882H25.0853ZM23.2506 3.93703L5.83534 13.7153L12.0875 17.2421L29.526 7.45733L23.2506 3.93703ZM35.3898 10.7491L17.9247 20.5355L23.2684 23.5478L40.9117 13.8501L35.3898 10.7491ZM3.90625 35.1264C3.90625 35.5539 4.15028 35.9436 4.52969 36.1557L21.4747 45.6594V26.3906L15.9475 23.2748V26.2147C15.9475 26.6093 15.4844 26.8395 15.1281 26.6587L10.3544 23.9786C10.278 23.9316 10.2153 23.8681 10.1719 23.7936C10.1284 23.719 10.1054 23.6357 10.105 23.5511V19.9798L3.90625 16.4842V35.1264ZM41.9538 36.1557L41.968 36.1492C42.1561 36.0413 42.311 35.8906 42.4177 35.7114C42.5244 35.5323 42.5793 35.3308 42.5772 35.1264V16.7604L25.0354 26.4038V45.6446L41.9538 36.1557Z" fill="#E4E4E4"/>
</svg>
