<svg width="18" height="18" viewBox="0 0 18 18" fill="none" xmlns="http://www.w3.org/2000/svg">
<path fill-rule="evenodd" clip-rule="evenodd" d="M8.17799 15.1362L4.42983 17.1955C3.92354 17.4736 3.29734 17.2702 3.03117 16.7411C2.92518 16.5304 2.88861 16.2891 2.92711 16.0545L3.64295 11.693C3.70057 11.3419 3.58918 10.9837 3.34509 10.7351L0.312763 7.64623C-0.0968304 7.229 -0.105212 6.54379 0.294044 6.11576C0.453029 5.94531 0.661348 5.83439 0.88675 5.80016L5.07732 5.16383C5.41465 5.11261 5.70626 4.8912 5.85712 4.57177L7.7312 0.60355C7.98435 0.0675391 8.60537 -0.152534 9.11829 0.112003C9.32254 0.217343 9.48786 0.390108 9.58866 0.60355L11.4627 4.57177C11.6136 4.8912 11.9052 5.11261 12.2425 5.16383L16.4331 5.80016C16.9992 5.88612 17.3914 6.43532 17.3091 7.02684C17.2763 7.26239 17.1702 7.48009 17.0071 7.64623L13.9748 10.7351C13.7307 10.9837 13.6193 11.3419 13.6769 11.693L14.3928 16.0545C14.4894 16.6437 14.1108 17.2032 13.5471 17.3042C13.3226 17.3444 13.0916 17.3062 12.89 17.1955L9.14188 15.1362C8.84016 14.9705 8.47971 14.9705 8.17799 15.1362Z" fill="#FFE600"/>
</svg>
