<svg width="26" height="26" viewBox="0 0 26 26" fill="none" xmlns="http://www.w3.org/2000/svg">
<path fill-rule="evenodd" clip-rule="evenodd" d="M20.7913 24.334C21.7306 24.334 22.6315 23.9608 23.2957 23.2967C23.9599 22.6325 24.333 21.7316 24.333 20.7923C24.333 19.853 23.9599 18.9522 23.2957 18.288C22.6315 17.6238 21.7306 17.2507 20.7913 17.2507C19.852 17.2507 18.9512 17.6238 18.287 18.288C17.6228 18.9522 17.2497 19.853 17.2497 20.7923C17.2497 21.7316 17.6228 22.6325 18.287 23.2967C18.9512 23.9608 19.852 24.334 20.7913 24.334ZM20.7913 25.7507C22.1064 25.7507 23.3675 25.2283 24.2974 24.2984C25.2273 23.3685 25.7497 22.1073 25.7497 20.7923C25.7497 19.4773 25.2273 18.2161 24.2974 17.2862C23.3675 16.3564 22.1064 15.834 20.7913 15.834C19.4763 15.834 18.2151 16.3564 17.2853 17.2862C16.3554 18.2161 15.833 19.4773 15.833 20.7923C15.833 22.1073 16.3554 23.3685 17.2853 24.2984C18.2151 25.2283 19.4763 25.7507 20.7913 25.7507V25.7507Z" fill="#0A1E5C"/>
<path fill-rule="evenodd" clip-rule="evenodd" d="M20.7913 18.3125C20.9792 18.3125 21.1594 18.3871 21.2922 18.52C21.425 18.6528 21.4997 18.833 21.4997 19.0208V20.4984L22.0005 20.9992C22.1295 21.1328 22.2009 21.3117 22.1993 21.4975C22.1977 21.6832 22.1232 21.8608 21.9918 21.9922C21.8605 22.1235 21.6828 22.198 21.4971 22.1996C21.3114 22.2012 21.1325 22.1298 20.9989 22.0008L20.083 21.0849V19.0208C20.083 18.833 20.1576 18.6528 20.2905 18.52C20.4233 18.3871 20.6035 18.3125 20.7913 18.3125ZM5.91634 12.2917H4.49967V13.7083H5.91634V12.2917ZM4.49967 10.875C4.12395 10.875 3.76362 11.0243 3.49794 11.2899C3.23226 11.5556 3.08301 11.9159 3.08301 12.2917V13.7083C3.08301 14.0841 3.23226 14.4444 3.49794 14.7101C3.76362 14.9757 4.12395 15.125 4.49967 15.125H5.91634C6.29206 15.125 6.6524 14.9757 6.91808 14.7101C7.18375 14.4444 7.33301 14.0841 7.33301 13.7083V12.2917C7.33301 11.9159 7.18375 11.5556 6.91808 11.2899C6.6524 11.0243 6.29206 10.875 5.91634 10.875H4.49967ZM11.583 12.2917H10.1663V13.7083H11.583V12.2917ZM10.1663 10.875C9.79062 10.875 9.43028 11.0243 9.16461 11.2899C8.89893 11.5556 8.74967 11.9159 8.74967 12.2917V13.7083C8.74967 14.0841 8.89893 14.4444 9.16461 14.7101C9.43028 14.9757 9.79062 15.125 10.1663 15.125H11.583C11.9587 15.125 12.3191 14.9757 12.5847 14.7101C12.8504 14.4444 12.9997 14.0841 12.9997 13.7083V12.2917C12.9997 11.9159 12.8504 11.5556 12.5847 11.2899C12.3191 11.0243 11.9587 10.875 11.583 10.875H10.1663ZM17.2497 12.2917H15.833V13.7083H17.2497V12.2917ZM15.833 10.875C15.4573 10.875 15.0969 11.0243 14.8313 11.2899C14.5656 11.5556 14.4163 11.9159 14.4163 12.2917V13.7083C14.4163 14.0841 14.5656 14.4444 14.8313 14.7101C15.0969 14.9757 15.4573 15.125 15.833 15.125H17.2497C17.6254 15.125 17.9857 14.9757 18.2514 14.7101C18.5171 14.4444 18.6663 14.0841 18.6663 13.7083V12.2917C18.6663 11.9159 18.5171 11.5556 18.2514 11.2899C17.9857 11.0243 17.6254 10.875 17.2497 10.875H15.833ZM5.91634 17.9583H4.49967V19.375H5.91634V17.9583ZM4.49967 16.5417C4.12395 16.5417 3.76362 16.6909 3.49794 16.9566C3.23226 17.2223 3.08301 17.5826 3.08301 17.9583V19.375C3.08301 19.7507 3.23226 20.1111 3.49794 20.3767C3.76362 20.6424 4.12395 20.7917 4.49967 20.7917H5.91634C6.29206 20.7917 6.6524 20.6424 6.91808 20.3767C7.18375 20.1111 7.33301 19.7507 7.33301 19.375V17.9583C7.33301 17.5826 7.18375 17.2223 6.91808 16.9566C6.6524 16.6909 6.29206 16.5417 5.91634 16.5417H4.49967ZM11.583 17.9583H10.1663V19.375H11.583V17.9583ZM10.1663 16.5417C9.79062 16.5417 9.43028 16.6909 9.16461 16.9566C8.89893 17.2223 8.74967 17.5826 8.74967 17.9583V19.375C8.74967 19.7507 8.89893 20.1111 9.16461 20.3767C9.43028 20.6424 9.79062 20.7917 10.1663 20.7917H11.583C11.9587 20.7917 12.3191 20.6424 12.5847 20.3767C12.8504 20.1111 12.9997 19.7507 12.9997 19.375V17.9583C12.9997 17.5826 12.8504 17.2223 12.5847 16.9566C12.3191 16.6909 11.9587 16.5417 11.583 16.5417H10.1663Z" fill="#0A1E5C"/>
<path fill-rule="evenodd" clip-rule="evenodd" d="M1.66667 4.5C1.66667 4.31214 1.74129 4.13197 1.87413 3.99913C2.00697 3.86629 2.18714 3.79167 2.375 3.79167H5.91667V2.375H2.375C1.81141 2.375 1.27091 2.59888 0.872398 2.9974C0.473883 3.39591 0.25 3.93641 0.25 4.5V21.5C0.25 22.0636 0.473883 22.6041 0.872398 23.0026C1.27091 23.4011 1.81141 23.625 2.375 23.625H16.7223C16.4202 23.1923 16.1894 22.714 16.0388 22.2083H2.375C2.18714 22.2083 2.00697 22.1337 1.87413 22.0009C1.74129 21.868 1.66667 21.6879 1.66667 21.5V4.5ZM20.0833 15.8829C20.5532 15.8157 21.0302 15.8157 21.5 15.8829V4.5C21.5 3.93641 21.2761 3.39591 20.8776 2.9974C20.4791 2.59888 19.9386 2.375 19.375 2.375H17.25V3.79167H19.375C19.5629 3.79167 19.743 3.86629 19.8759 3.99913C20.0087 4.13197 20.0833 4.31214 20.0833 4.5V15.8829ZM7.33333 3.79167H14.8155V2.375H7.33333V3.79167Z" fill="#0A1E5C"/>
<path fill-rule="evenodd" clip-rule="evenodd" d="M21.5003 8.75065H1.66699V7.33398H21.5003V8.75065Z" fill="#0A1E5C"/>
<path d="M4.5 0.958333C4.5 0.770472 4.57463 0.590304 4.70747 0.457466C4.8403 0.324628 5.02047 0.25 5.20833 0.25C5.39619 0.25 5.57636 0.324628 5.7092 0.457466C5.84204 0.590304 5.91667 0.770472 5.91667 0.958333V4.5C5.91667 4.68786 5.84204 4.86803 5.7092 5.00087C5.57636 5.13371 5.39619 5.20833 5.20833 5.20833C5.02047 5.20833 4.8403 5.13371 4.70747 5.00087C4.57463 4.86803 4.5 4.68786 4.5 4.5V0.958333ZM14.4167 0.958333C14.4167 0.770472 14.4913 0.590304 14.6241 0.457466C14.757 0.324628 14.9371 0.25 15.125 0.25C15.3129 0.25 15.493 0.324628 15.6259 0.457466C15.7587 0.590304 15.8333 0.770472 15.8333 0.958333V4.5C15.8333 4.68786 15.7587 4.86803 15.6259 5.00087C15.493 5.13371 15.3129 5.20833 15.125 5.20833C14.9371 5.20833 14.757 5.13371 14.6241 5.00087C14.4913 4.86803 14.4167 4.68786 14.4167 4.5V0.958333Z" fill="#0A1E5C"/>
</svg>
