<svg width="21" height="21" viewBox="0 0 21 21" fill="none" xmlns="http://www.w3.org/2000/svg">
<path d="M20.7144 7.16951L19.0903 5.54553C18.7047 5.16003 18.0813 5.16003 17.6999 5.54553L7.87686 15.3673L3.30783 10.7948C2.92229 10.4093 2.29887 10.4093 1.91743 10.7948L0.289153 12.4228C-0.0963844 12.8083 -0.0963844 13.4317 0.289153 13.8172L7.17961 20.7109C7.56515 21.0964 8.18857 21.0964 8.57 20.7109L20.7103 8.56383C21.0959 8.17424 21.0959 7.5509 20.7144 7.16951ZM7.41339 11.5165C7.66768 11.7749 8.08603 11.7749 8.34032 11.5165L16.8714 2.97832C17.1257 2.71996 17.1257 2.30577 16.8714 2.05151L15.0175 0.19377C14.7632 -0.0645901 14.3449 -0.0645901 14.0906 0.19377L7.87686 6.40673L5.60465 4.13069C5.35036 3.87233 4.93201 3.87233 4.67772 4.13069L2.81976 5.98843C2.56546 6.24679 2.56546 6.66099 2.81976 6.91525L7.41339 11.5165Z" fill="#00DE09"/>
</svg>
