<svg width="20" height="15" viewBox="0 0 20 15" fill="none" xmlns="http://www.w3.org/2000/svg">
<path d="M19 0.00654713C18.9152 -0.00218238 18.8298 -0.00218238 18.745 0.00654713H1.32965C1.21803 0.00826573 1.10715 0.0249898 1 0.056269L9.98756 9L19 0.00654713Z" fill="#3C4F76"/>
<path d="M19.925 1L10.825 9.97833C10.5908 10.209 10.274 10.3384 9.94375 10.3384C9.61352 10.3384 9.2967 10.209 9.0625 9.97833L0.04375 1.06811C0.0160246 1.16907 0.00132418 1.27309 0 1.37771V13.7616C0 14.0901 0.131696 14.405 0.366117 14.6373C0.600537 14.8695 0.918479 15 1.25 15H18.75C19.0815 15 19.3995 14.8695 19.6339 14.6373C19.8683 14.405 20 14.0901 20 13.7616V1.37771C19.995 1.2487 19.9697 1.12126 19.925 1V1ZM2.10625 13.7616H1.2375V12.8762L5.78125 8.41177L6.6625 9.28483L2.10625 13.7616ZM18.7375 13.7616H17.8625L13.3062 9.28483L14.1875 8.41177L18.7312 12.8762L18.7375 13.7616Z" fill="#315576"/>
</svg>
