<svg width="16" height="16" viewBox="0 0 16 16" fill="none" xmlns="http://www.w3.org/2000/svg">
<circle cx="8" cy="8" r="8" fill="#F02E2E"/>
<path d="M6.067 10.262C6.771 9.67533 7.332 9.18767 7.75 8.799C8.168 8.403 8.51633 7.99233 8.795 7.567C9.07367 7.14167 9.213 6.72367 9.213 6.313C9.213 5.939 9.125 5.64567 8.949 5.433C8.773 5.22033 8.50167 5.114 8.135 5.114C7.76833 5.114 7.486 5.23867 7.288 5.488C7.09 5.73 6.98733 6.06367 6.98 6.489H5.484C5.51333 5.609 5.77367 4.94167 6.265 4.487C6.76367 4.03233 7.39433 3.805 8.157 3.805C8.993 3.805 9.63467 4.02867 10.082 4.476C10.5293 4.916 10.753 5.499 10.753 6.225C10.753 6.797 10.599 7.34333 10.291 7.864C9.983 8.38467 9.631 8.83933 9.235 9.228C8.839 9.60933 8.322 10.0713 7.684 10.614H10.929V11.89H5.495V10.746L6.067 10.262Z" fill="white"/>
</svg>
