<svg width="20" height="23" viewBox="0 0 20 23" fill="none" xmlns="http://www.w3.org/2000/svg">
<path d="M15.5007 2.24967H12.0557C11.6007 0.993008 10.409 0.0830078 9.00065 0.0830078C7.59232 0.0830078 6.40065 0.993008 5.94565 2.24967H2.50065C1.30898 2.24967 0.333984 3.22467 0.333984 4.41634V20.6663C0.333984 21.858 1.30898 22.833 2.50065 22.833H9.11982C8.48065 22.2155 7.96065 21.4788 7.58148 20.6663H2.50065V4.41634H4.66732V5.49967C4.66732 6.69134 5.64232 7.66634 6.83398 7.66634H11.1673C12.359 7.66634 13.334 6.69134 13.334 5.49967V4.41634H15.5007V9.91967C16.2698 10.028 16.9957 10.2555 17.6673 10.5697V4.41634C17.6673 3.22467 16.6923 2.24967 15.5007 2.24967ZM9.00065 4.41634C8.40482 4.41634 7.91732 3.92884 7.91732 3.33301C7.91732 2.73717 8.40482 2.24967 9.00065 2.24967C9.59649 2.24967 10.084 2.73717 10.084 3.33301C10.084 3.92884 9.59649 4.41634 9.00065 4.41634ZM14.4173 11.9997C11.4273 11.9997 9.00065 14.4263 9.00065 17.4163C9.00065 20.4063 11.4273 22.833 14.4173 22.833C17.4073 22.833 19.834 20.4063 19.834 17.4163C19.834 14.4263 17.4073 11.9997 14.4173 11.9997ZM15.8148 19.583L14.0273 17.7955C13.9298 17.698 13.8648 17.5572 13.8648 17.4163V14.7188C13.8648 14.4155 14.1032 14.1772 14.4065 14.1772C14.7098 14.1772 14.9482 14.4155 14.9482 14.7188V17.1997L16.5732 18.8247C16.7898 19.0413 16.7898 19.3772 16.5732 19.5938C16.3673 19.7997 16.0315 19.7997 15.8148 19.583Z" fill="#E7E5E5"/>
</svg>
