<svg width="19" height="19" viewBox="0 0 19 19" fill="none" xmlns="http://www.w3.org/2000/svg">
<path d="M17.1 18.9999H1.9C0.823333 18.9999 0 18.1766 0 17.0999V3.1666C0 2.08993 0.696667 1.2666 1.58333 1.2666H2.53333V2.53327H1.58333C1.45667 2.53327 1.26667 2.7866 1.26667 3.1666V17.0999C1.26667 17.4799 1.52 17.7333 1.9 17.7333H17.1C17.48 17.7333 17.7333 17.4799 17.7333 17.0999V3.1666C17.7333 2.7866 17.5433 2.53327 17.4167 2.53327H16.4667V1.2666H17.4167C18.3033 1.2666 19 2.08993 19 3.1666V17.0999C19 18.1766 18.1767 18.9999 17.1 18.9999Z" fill="#9E9E9E"/>
<path d="M4.43411 3.8C4.05411 3.8 3.80078 3.54667 3.80078 3.16667V0.633333C3.80078 0.253333 4.05411 0 4.43411 0C4.81411 0 5.06745 0.253333 5.06745 0.633333V3.16667C5.06745 3.54667 4.81411 3.8 4.43411 3.8Z" fill="#9E9E9E"/>
<path d="M14.5669 3.8C14.1869 3.8 13.9336 3.54667 13.9336 3.16667V0.633333C13.9336 0.253333 14.1869 0 14.5669 0C14.9469 0 15.2003 0.253333 15.2003 0.633333V3.16667C15.2003 3.54667 14.9469 3.8 14.5669 3.8Z" fill="#9E9E9E"/>
<path d="M6.33203 1.2666H12.6654V2.53327H6.33203V1.2666Z" fill="#9E9E9E"/>
<path d="M1 5H17.4667V6.26667H1V5Z" fill="#9E9E9E"/>
<path d="M15.1992 7.59961H16.4659V8.86628H15.1992V7.59961Z" fill="#9E9E9E"/>
<path d="M12.668 7.59961H13.9346V8.86628H12.668V7.59961Z" fill="#9E9E9E"/>
<path d="M10.1328 7.59961H11.3995V8.86628H10.1328V7.59961Z" fill="#9E9E9E"/>
<path d="M7.60352 7.59961H8.87018V8.86628H7.60352V7.59961Z" fill="#9E9E9E"/>
<path d="M5.06641 7.59961H6.33307V8.86628H5.06641V7.59961Z" fill="#9E9E9E"/>
<path d="M15.1992 10.1328H16.4659V11.3995H15.1992V10.1328Z" fill="#9E9E9E"/>
<path d="M12.668 10.1328H13.9346V11.3995H12.668V10.1328Z" fill="#9E9E9E"/>
<path d="M10.1328 10.1328H11.3995V11.3995H10.1328V10.1328Z" fill="#9E9E9E"/>
<path d="M7.60352 10.1328H8.87018V11.3995H7.60352V10.1328Z" fill="#9E9E9E"/>
<path d="M5.06641 10.1328H6.33307V11.3995H5.06641V10.1328Z" fill="#9E9E9E"/>
<path d="M2.5293 10.1328H3.79596V11.3995H2.5293V10.1328Z" fill="#9E9E9E"/>
<path d="M15.1992 12.666H16.4659V13.9327H15.1992V12.666Z" fill="#9E9E9E"/>
<path d="M12.668 12.666H13.9346V13.9327H12.668V12.666Z" fill="#9E9E9E"/>
<path d="M10.1328 12.666H11.3995V13.9327H10.1328V12.666Z" fill="#9E9E9E"/>
<path d="M7.60352 12.666H8.87018V13.9327H7.60352V12.666Z" fill="#9E9E9E"/>
<path d="M5.06641 12.666H6.33307V13.9327H5.06641V12.666Z" fill="#9E9E9E"/>
<path d="M2.5293 12.666H3.79596V13.9327H2.5293V12.666Z" fill="#9E9E9E"/>
<path d="M12.668 15.2002H13.9346V16.4669H12.668V15.2002Z" fill="#9E9E9E"/>
<path d="M10.1328 15.2002H11.3995V16.4669H10.1328V15.2002Z" fill="#9E9E9E"/>
<path d="M7.60352 15.2002H8.87018V16.4669H7.60352V15.2002Z" fill="#9E9E9E"/>
<path d="M5.06641 15.2002H6.33307V16.4669H5.06641V15.2002Z" fill="#9E9E9E"/>
<path d="M2.5293 15.2002H3.79596V16.4669H2.5293V15.2002Z" fill="#9E9E9E"/>
</svg>
