<svg width="25" height="26" viewBox="0 0 25 26" fill="none" xmlns="http://www.w3.org/2000/svg">
<path d="M22.9167 26L16.6016 19.4494C14.7786 20.89 12.717 21.6104 10.4167 21.6104C8.55035 21.6104 6.81424 21.1377 5.20833 20.1922C3.60243 19.2017 2.34375 17.8736 1.43229 16.2078C0.477431 14.542 0 12.7411 0 10.8052C0 8.86926 0.477431 7.0684 1.43229 5.4026C2.34375 3.7368 3.60243 2.43117 5.20833 1.48571C6.81424 0.495238 8.55035 0 10.4167 0C12.283 0 14.0191 0.495238 15.625 1.48571C17.2309 2.43117 18.5113 3.7368 19.4661 5.4026C20.3776 7.0684 20.8333 8.86926 20.8333 10.8052C20.8333 13.2364 20.1172 15.3974 18.6849 17.2883L25 23.839L22.9167 26ZM10.3516 18.4364C12.3915 18.4364 14.1276 17.6935 15.5599 16.2078C16.9488 14.7221 17.6432 12.9437 17.6432 10.8727C17.6432 8.75671 16.9488 6.97835 15.5599 5.53766C14.1276 4.05195 12.3915 3.30909 10.3516 3.30909C8.35503 3.30909 6.64062 4.05195 5.20833 5.53766C3.77604 6.97835 3.0599 8.75671 3.0599 10.8727C3.0599 12.9437 3.77604 14.7221 5.20833 16.2078C6.64062 17.6935 8.35503 18.4364 10.3516 18.4364Z" fill="white"/>
</svg>
