<svg width="15" height="15" viewBox="0 0 15 15" fill="none" xmlns="http://www.w3.org/2000/svg">
<path d="M7.5 0.9375C3.89062 0.9375 0.9375 3.89062 0.9375 7.5C0.9375 11.1094 3.89062 14.0625 7.5 14.0625C11.1094 14.0625 14.0625 11.1094 14.0625 7.5C14.0625 3.89062 11.1094 0.9375 7.5 0.9375ZM6.98438 3.75H8.01562V8.90625H6.98438V3.75ZM7.5 11.7188C7.125 11.7188 6.79688 11.3906 6.79688 11.0156C6.79688 10.6406 7.125 10.3125 7.5 10.3125C7.875 10.3125 8.20312 10.6406 8.20312 11.0156C8.20312 11.3906 7.875 11.7188 7.5 11.7188Z" fill="#FFA800"/>
</svg>
