<svg width="15" height="19" viewBox="0 0 15 19" fill="none" xmlns="http://www.w3.org/2000/svg">
<path d="M2.53197 0.416874L3.68482 0.0900704C4.76695 -0.215833 5.92087 0.279123 6.38479 1.24623L7.30514 3.17286C7.70585 4.01172 7.48406 4.99878 6.75443 5.61249L4.72516 7.32061C4.84945 8.34282 5.2373 9.34888 5.88658 10.3388C6.50349 11.2966 7.33088 12.1349 8.31977 12.8041L10.7572 12.0821C11.6819 11.8094 12.6879 12.1239 13.2536 12.862L14.5747 14.5815C15.2336 15.4404 15.1158 16.6241 14.2983 17.3518L13.4219 18.1317C12.5497 18.9079 11.3037 19.19 10.1519 18.8708C7.43156 18.1184 4.93088 15.885 2.64876 12.1704C0.36342 8.45017 -0.443357 5.29233 0.229493 2.7007C0.512347 1.61009 1.3877 0.740828 2.53197 0.416874Z" fill="#315576"/>
</svg>
