<svg width="20" height="17" viewBox="0 0 20 17" fill="none" xmlns="http://www.w3.org/2000/svg">
<path fill-rule="evenodd" clip-rule="evenodd" d="M10.1692 0L19 2.38405L20 3.11641V13.6187L19.4308 14.3666L10 17L0.553846 14.3666L0 13.6187V3.11641L0.938461 2.38405L9.75385 0H10.1692ZM10.0308 1.5582L3.87692 3.11641L4.72308 3.42805L10 4.83043L14.6154 3.56829L16.0769 3.11641L10.0308 1.5582V1.5582ZM1.53846 13.0266L9.23077 15.1613V6.23281L1.53846 4.14482V13.0266ZM10.7692 6.23281V15.1613L18.4615 13.0266V4.09808L15.3538 4.95976V8.95967L13.8154 9.3648V5.38671L10.7692 6.23281Z" fill="#0A1E5C"/>
</svg>
