<svg width="25" height="25" viewBox="0 0 25 25" fill="none" xmlns="http://www.w3.org/2000/svg">
<path fill-rule="evenodd" clip-rule="evenodd" d="M20 0C22.7614 0 25 2.23858 25 5C25 7.76142 22.7614 10 20 10C18.5377 10 17.2221 9.3723 16.3078 8.37166L10 11.9754V13.0246L16.3078 16.6283C17.2221 15.6277 18.5377 15 20 15C22.7614 15 25 17.2386 25 20C25 22.7614 22.7614 25 20 25C17.2386 25 15 22.7614 15 20C15 19.6003 15.0469 19.2115 15.1355 18.839L9.08642 15.3819C8.18109 16.6633 6.68826 17.5 5 17.5C2.23858 17.5 0 15.2614 0 12.5C0 9.73858 2.23858 7.5 5 7.5C6.68826 7.5 8.18109 8.33673 9.08642 9.61811L15.1355 6.16104C15.0469 5.78845 15 5.3997 15 5C15 2.23858 17.2386 0 20 0ZM20 17.5C18.6193 17.5 17.5 18.6193 17.5 20C17.5 21.3807 18.6193 22.5 20 22.5C21.3807 22.5 22.5 21.3807 22.5 20C22.5 18.6193 21.3807 17.5 20 17.5ZM5 10C3.61929 10 2.5 11.1193 2.5 12.5C2.5 13.8807 3.61929 15 5 15C6.38071 15 7.5 13.8807 7.5 12.5C7.5 11.1193 6.38071 10 5 10ZM20 2.5C18.6193 2.5 17.5 3.61929 17.5 5C17.5 6.38071 18.6193 7.5 20 7.5C21.3807 7.5 22.5 6.38071 22.5 5C22.5 3.61929 21.3807 2.5 20 2.5Z" fill="black"/>
</svg>
