<svg width="13" height="13" viewBox="0 0 13 13" fill="none" xmlns="http://www.w3.org/2000/svg">
<path d="M12.8232 4.43827L11.8178 3.43294C11.5791 3.19431 11.1932 3.19431 10.9571 3.43294L4.87615 9.51311L2.0477 6.68247C1.80904 6.44383 1.42311 6.44383 1.18698 6.68247L0.178999 7.69033C-0.0596665 7.92897 -0.0596665 8.31485 0.178999 8.55348L4.44452 12.821C4.68319 13.0597 5.06911 13.0597 5.30524 12.821L12.8207 5.30142C13.0593 5.06025 13.0593 4.67436 12.8232 4.43827ZM4.58924 7.12928C4.74666 7.28921 5.00564 7.28921 5.16306 7.12928L10.4442 1.84372C10.6016 1.68379 10.6016 1.42738 10.4442 1.26998L9.29655 0.119953C9.13913 -0.0399844 8.88015 -0.0399844 8.72273 0.119953L4.87615 3.96607L3.46954 2.5571C3.31213 2.39716 3.05315 2.39716 2.89573 2.5571L1.74556 3.70712C1.58814 3.86706 1.58814 4.12347 1.74556 4.28087L4.58924 7.12928Z" fill="#90D86E"/>
</svg>
