<svg width="23" height="22" viewBox="0 0 23 22" fill="none" xmlns="http://www.w3.org/2000/svg">
<path d="M0 2.87715C0 2.11408 0.302901 1.38227 0.842068 0.842699C1.38124 0.303128 2.1125 0 2.875 0L20.125 0C20.8875 0 21.6188 0.303128 22.1579 0.842699C22.6971 1.38227 23 2.11408 23 2.87715V14.3858C23 15.1488 22.6971 15.8806 22.1579 16.4202C21.6188 16.9598 20.8875 17.2629 20.125 17.2629H6.34513C5.96391 17.263 5.59833 17.4146 5.32881 17.6844L1.22763 21.7887C1.12719 21.8894 0.999136 21.9581 0.859677 21.986C0.720218 22.0139 0.575621 21.9998 0.444187 21.9454C0.312753 21.8911 0.20039 21.7989 0.121321 21.6806C0.0422518 21.5623 3.02089e-05 21.4232 0 21.2809L0 2.87715ZM5.03125 4.31573C4.84063 4.31573 4.65781 4.39151 4.52302 4.5264C4.38823 4.6613 4.3125 4.84425 4.3125 5.03502C4.3125 5.22579 4.38823 5.40874 4.52302 5.54363C4.65781 5.67852 4.84063 5.75431 5.03125 5.75431H17.9688C18.1594 5.75431 18.3422 5.67852 18.477 5.54363C18.6118 5.40874 18.6875 5.22579 18.6875 5.03502C18.6875 4.84425 18.6118 4.6613 18.477 4.5264C18.3422 4.39151 18.1594 4.31573 17.9688 4.31573H5.03125ZM5.03125 7.91217C4.84063 7.91217 4.65781 7.98795 4.52302 8.12285C4.38823 8.25774 4.3125 8.44069 4.3125 8.63146C4.3125 8.82223 4.38823 9.00518 4.52302 9.14007C4.65781 9.27497 4.84063 9.35075 5.03125 9.35075H17.9688C18.1594 9.35075 18.3422 9.27497 18.477 9.14007C18.6118 9.00518 18.6875 8.82223 18.6875 8.63146C18.6875 8.44069 18.6118 8.25774 18.477 8.12285C18.3422 7.98795 18.1594 7.91217 17.9688 7.91217H5.03125ZM5.03125 11.5086C4.84063 11.5086 4.65781 11.5844 4.52302 11.7193C4.38823 11.8542 4.3125 12.0371 4.3125 12.2279C4.3125 12.4187 4.38823 12.6016 4.52302 12.7365C4.65781 12.8714 4.84063 12.9472 5.03125 12.9472H12.2188C12.4094 12.9472 12.5922 12.8714 12.727 12.7365C12.8618 12.6016 12.9375 12.4187 12.9375 12.2279C12.9375 12.0371 12.8618 11.8542 12.727 11.7193C12.5922 11.5844 12.4094 11.5086 12.2188 11.5086H5.03125Z" fill="white"/>
</svg>
