<svg width="103" height="82" viewBox="0 0 103 82" fill="none" xmlns="http://www.w3.org/2000/svg">
<path fill-rule="evenodd" clip-rule="evenodd" d="M87.55 0C96.0828 0 103 6.88362 103 15.375V66.625C103 75.1164 96.0828 82 87.55 82H15.45C6.9172 82 0 75.1164 0 66.625V15.375C0 6.88362 6.9172 0 15.45 0H87.55ZM92.7 17.056L54.8913 49.982C53.1114 51.5318 50.5269 51.6609 48.613 50.3694L48.1087 49.982L10.3 17.0611V66.625C10.3 69.4555 12.6057 71.75 15.45 71.75H87.55C90.3943 71.75 92.7 69.4555 92.7 66.625V17.056ZM84.872 10.25H18.1177L51.5 39.3151L84.872 10.25Z" fill="#3C4F76"/>
</svg>
