<svg width="88" height="88" viewBox="0 0 88 88" fill="none" xmlns="http://www.w3.org/2000/svg">
<path d="M84.6734 64.5021L75.5908 57.1633C72.5144 54.6682 68.1196 54.5199 64.8967 56.8698L56.2536 63.1811C55.0816 64.0618 53.4717 63.915 52.4448 62.8876L38.2349 49.9713L25.1969 35.5874C24.1715 34.5599 24.025 32.9454 24.9039 31.7712L31.2032 23.1115C33.5471 19.8824 33.4006 15.4792 30.9102 12.3969L23.5855 3.29681C20.3626 -0.812894 14.2099 -1.10645 10.5475 2.56294L2.63689 10.4888C0.878964 12.2501 0 14.7453 0 17.0937C1.02546 35.7341 9.52209 53.494 21.9741 65.9698C34.426 78.4457 52.0053 86.9587 70.7565 87.9861C73.2469 88.1329 75.5908 87.104 77.3487 85.3427L85.2593 77.4183C89.2147 73.8957 88.7752 67.7312 84.6734 64.5021Z" fill="#3C4F76"/>
</svg>
