<svg width="117" height="124" viewBox="0 0 117 124" fill="none" xmlns="http://www.w3.org/2000/svg">
<path d="M112.367 96.2754V118.245" stroke="#181828" stroke-width="2.42003" stroke-linecap="round" stroke-linejoin="round"/>
<path d="M108.57 96.2754V118.245" stroke="#181828" stroke-width="2.42003" stroke-linecap="round" stroke-linejoin="round"/>
<path d="M104.674 121.093C110.377 121.093 115 116.47 115 110.767C115 105.064 110.377 100.44 104.674 100.44C98.9709 100.44 94.3477 105.064 94.3477 110.767C94.3477 116.47 98.9709 121.093 104.674 121.093Z" fill="#86FF33"/>
<path d="M110.093 102.76C110.093 102.76 115.036 106.197 114.281 111.226" stroke="#EEFFE1" stroke-width="3.63004" stroke-linecap="round" stroke-linejoin="round"/>
<path d="M104.674 121.093C110.377 121.093 115 116.47 115 110.767C115 105.064 110.377 100.44 104.674 100.44C98.9709 100.44 94.3477 105.064 94.3477 110.767C94.3477 116.47 98.9709 121.093 104.674 121.093Z" stroke="#181828" stroke-width="2.42003" stroke-miterlimit="10"/>
<path d="M103.231 102.935C104.044 102.935 104.824 103.257 105.398 103.832C105.973 104.407 106.296 105.186 106.296 105.999V118.905H103.231V102.935Z" fill="#54CA01"/>
<path d="M87.5985 73.2279C87.5985 73.2279 66.4786 64.5238 68.4783 44.3477" stroke="#181828" stroke-width="2.42003" stroke-linecap="round" stroke-linejoin="round"/>
<path d="M95.835 71.4391C95.835 71.4391 67.5255 51.7168 70.2845 27.7705" stroke="#181828" stroke-width="2.42003" stroke-linecap="round" stroke-linejoin="round"/>
<path d="M106.377 66.7842H73.0977" stroke="#181828" stroke-width="2.42003" stroke-linecap="round" stroke-linejoin="round"/>
<path d="M103.685 82.7987V73.3037H71.8301V120.563H103.685V86.7171" fill="#FBB63A"/>
<path d="M71.8305 76.4404H103.686V73.3084H71.8305V76.4404Z" fill="#ED7D00"/>
<path d="M87.1623 110.655H103.681V107.523H87.1623V110.655Z" fill="#ED7D00"/>
<path d="M100.841 119.947H103.686V75.3485H100.841V119.947Z" fill="#ED7D00"/>
<path d="M75.7754 119.947H72.5265V84.7356C72.5265 83.8739 72.8688 83.0475 73.4781 82.4383C74.0874 81.829 74.9137 81.4867 75.7754 81.4867V81.4867V119.947Z" fill="#FFDB9C"/>
<path d="M103.685 82.7987V73.3037H71.8301V120.563H103.685V86.7171" stroke="#181828" stroke-width="2.42003" stroke-linecap="round" stroke-linejoin="round"/>
<path d="M63.9978 73.6094H107.136V70.0145H63.9978V73.6094Z" fill="#889FAA"/>
<path d="M107.105 72.4463H69.1747C68.5788 72.4463 68.0073 72.2096 67.5859 71.7882C67.1646 71.3669 66.9279 70.7954 66.9279 70.1995V70.1995H107.105V72.4463Z" fill="#C5D5DC"/>
<path d="M104.045 71.2461H100.971C100.704 71.2461 100.448 71.14 100.259 70.9513C100.071 70.7625 99.9645 70.5065 99.9645 70.2395V70.2395H105.051C105.051 70.5065 104.945 70.7625 104.756 70.9513C104.568 71.14 104.312 71.2461 104.045 71.2461V71.2461Z" fill="white"/>
<path d="M98.4949 71.2461H95.4213C95.2891 71.2461 95.1582 71.2201 95.0361 71.1695C94.914 71.1189 94.803 71.0447 94.7095 70.9513C94.6161 70.8578 94.5419 70.7468 94.4914 70.6247C94.4408 70.5026 94.4147 70.3717 94.4147 70.2395V70.2395H99.5015C99.5015 70.5065 99.3954 70.7625 99.2066 70.9513C99.0179 71.14 98.7619 71.2461 98.4949 71.2461V71.2461Z" fill="white"/>
<path d="M74.7509 70.0146H63.8091V73.6095H106.947V70.0146H74.3196" stroke="#181828" stroke-width="2.42003" stroke-miterlimit="10"/>
<path d="M102.832 66.8516V69.8712" stroke="#181828" stroke-width="1.81502" stroke-linecap="round" stroke-linejoin="round"/>
<path d="M97.0171 66.8516V69.8712" stroke="#181828" stroke-width="1.81502" stroke-linecap="round" stroke-linejoin="round"/>
<path d="M91.1978 66.8516V69.8712" stroke="#181828" stroke-width="1.81502" stroke-linecap="round" stroke-linejoin="round"/>
<path d="M85.8278 72.7473C86.2348 72.7473 86.5647 72.4174 86.5647 72.0104C86.5647 71.6034 86.2348 71.2734 85.8278 71.2734C85.4208 71.2734 85.0908 71.6034 85.0908 72.0104C85.0908 72.4174 85.4208 72.7473 85.8278 72.7473Z" fill="#889FAA"/>
<path d="M88.106 72.8097C88.4138 72.8097 88.6632 72.5602 88.6632 72.2525C88.6632 71.9448 88.4138 71.6953 88.106 71.6953C87.7983 71.6953 87.5488 71.9448 87.5488 72.2525C87.5488 72.5602 87.7983 72.8097 88.106 72.8097Z" fill="#889FAA"/>
<path d="M84.6102 71.7625C84.779 71.7625 84.9158 71.6257 84.9158 71.4569C84.9158 71.2882 84.779 71.1514 84.6102 71.1514C84.4415 71.1514 84.3047 71.2882 84.3047 71.4569C84.3047 71.6257 84.4415 71.7625 84.6102 71.7625Z" fill="#889FAA"/>
<path d="M106.835 71.8037H101.025" stroke="#181828" stroke-width="1.21001" stroke-linecap="round" stroke-linejoin="round"/>
<path d="M85.5045 94.8955H107.074V91.3006H85.5045V94.8955Z" fill="#889FAA"/>
<path d="M103.671 93.6875H87.3103C86.7144 93.6875 86.1429 93.4508 85.7215 93.0294C85.3002 92.6081 85.0635 92.0366 85.0635 91.4407V91.4407H103.671V93.6875Z" fill="#C5D5DC"/>
<path d="M89.1082 92.5322H86.0346C85.7676 92.5322 85.5116 92.4262 85.3228 92.2374C85.1341 92.0486 85.028 91.7926 85.028 91.5257H90.1147C90.1147 91.7926 90.0087 92.0486 89.8199 92.2374C89.6312 92.4262 89.3751 92.5322 89.1082 92.5322Z" fill="white"/>
<path d="M104.346 91.3008H85.3198V94.8956H106.889V91.3008H92.231" stroke="#181828" stroke-width="2.42003" stroke-miterlimit="10"/>
<path d="M76.8677 74.6924V76.9392" stroke="white" stroke-width="1.21001" stroke-linecap="round" stroke-linejoin="round"/>
<path d="M75.2051 77.5059V79.3033" stroke="white" stroke-width="1.21001" stroke-linecap="round" stroke-linejoin="round"/>
<path d="M78.3774 79.5908V81.3883" stroke="white" stroke-width="1.21001" stroke-linecap="round" stroke-linejoin="round"/>
<path d="M82.1475 79.5322V81.779" stroke="white" stroke-width="1.21001" stroke-linecap="round" stroke-linejoin="round"/>
<path d="M79.8379 77.5059V79.3033" stroke="white" stroke-width="1.21001" stroke-linecap="round" stroke-linejoin="round"/>
<path d="M72.8233 77.4338H87.45C87.5393 77.4338 87.6251 77.3983 87.6883 77.3351C87.7515 77.2719 87.787 77.1862 87.787 77.0968C87.787 77.0074 87.7515 76.9217 87.6883 76.8585C87.6251 76.7953 87.5393 76.7598 87.45 76.7598H72.8233C72.734 76.7598 72.6482 76.7953 72.585 76.8585C72.5218 76.9217 72.4863 77.0074 72.4863 77.0968C72.4863 77.1862 72.5218 77.2719 72.585 77.3351C72.6482 77.3983 72.734 77.4338 72.8233 77.4338Z" fill="white"/>
<path d="M72.8233 79.8293H91.9435C92.0329 79.8293 92.1186 79.7938 92.1818 79.7306C92.245 79.6674 92.2806 79.5817 92.2806 79.4923C92.2806 79.4029 92.245 79.3172 92.1818 79.254C92.1186 79.1908 92.0329 79.1553 91.9435 79.1553H72.8233C72.734 79.1553 72.6482 79.1908 72.585 79.254C72.5218 79.3172 72.4863 79.4029 72.4863 79.4923C72.4863 79.5817 72.5218 79.6674 72.585 79.7306C72.6482 79.7938 72.734 79.8293 72.8233 79.8293Z" fill="white"/>
<path d="M74.1715 82.2238H87.45C87.5394 82.2238 87.6251 82.1883 87.6883 82.1251C87.7515 82.0619 87.787 81.9762 87.787 81.8868C87.787 81.7974 87.7515 81.7117 87.6883 81.6485C87.6251 81.5853 87.5394 81.5498 87.45 81.5498H74.1715C74.0821 81.5498 73.9964 81.5853 73.9332 81.6485C73.87 81.7117 73.8345 81.7974 73.8345 81.8868C73.8345 81.9762 73.87 82.0619 73.9332 82.1251C73.9964 82.1883 74.0821 82.2238 74.1715 82.2238Z" fill="white"/>
<path d="M103.622 95.0664H87.3467V107.536H103.622V95.0664Z" fill="#C8EEFD"/>
<path d="M103.056 95.502H87.9126V107.104H103.056V95.502Z" stroke="#4FCDFF" stroke-width="3.63004" stroke-miterlimit="10"/>
<path opacity="0.8" d="M103.744 98.9941L92.3614 107.64L87.041 107.644L103.627 94.6758L103.744 98.9941Z" fill="white"/>
<path opacity="0.8" d="M100.639 95.201L87.2837 105.604L87.041 102.638L96.7696 95.165L100.639 95.201Z" fill="white"/>
<path d="M103.622 95.0664H87.3467V107.536H103.622V95.0664Z" stroke="#202020" stroke-width="2.42003" stroke-miterlimit="10"/>
<path d="M91.5166 94.873V107.671" stroke="#202020" stroke-width="2.42003" stroke-miterlimit="10"/>
<path d="M98.5938 102.326C98.7556 102.198 98.7835 101.964 98.656 101.802C98.5286 101.64 98.2941 101.612 98.1323 101.74L94.962 104.236C94.8002 104.364 94.7723 104.598 94.8998 104.76C95.0272 104.922 95.2617 104.95 95.4235 104.822L98.5938 102.326Z" fill="white"/>
<path d="M100.663 98.9183C100.824 98.7909 100.852 98.5564 100.725 98.3946C100.597 98.2328 100.363 98.2049 100.201 98.3323L97.0309 100.829C96.869 100.956 96.8412 101.191 96.9686 101.353C97.096 101.514 97.3305 101.542 97.4924 101.415L100.663 98.9183Z" fill="white"/>
<path d="M95.9043 96.7797C96.0661 96.6522 96.094 96.4177 95.9666 96.2559C95.8391 96.0941 95.6047 96.0662 95.4428 96.1936L92.2726 98.6902C92.1107 98.8176 92.0829 99.0521 92.2103 99.2139C92.3377 99.3758 92.5722 99.4036 92.7341 99.2762L95.9043 96.7797Z" fill="white"/>
<path d="M77.6358 108.633C77.6358 107.762 76.9307 107.056 76.0608 107.056C75.191 107.056 74.4858 107.762 74.4858 108.633V116.416C74.4858 117.287 75.191 117.993 76.0608 117.993C76.9307 117.993 77.6358 117.287 77.6358 116.416V108.633Z" fill="#FBDB9E"/>
<path d="M77.6358 91.6564C77.6358 90.7853 76.9307 90.0791 76.0608 90.0791C75.191 90.0791 74.4858 90.7853 74.4858 91.6564V99.4392C74.4858 100.31 75.191 101.016 76.0608 101.016C76.9307 101.016 77.6358 100.31 77.6358 99.4392V91.6564Z" fill="#FBDB9E"/>
<path d="M72.1763 114.627H75.3218" stroke="#181828" stroke-width="2.42003" stroke-linecap="round" stroke-linejoin="round"/>
<path d="M77.1686 115.283C77.5135 115.283 77.7932 115.004 77.7932 114.659C77.7932 114.314 77.5135 114.034 77.1686 114.034C76.8236 114.034 76.5439 114.314 76.5439 114.659C76.5439 115.004 76.8236 115.283 77.1686 115.283Z" fill="#181828"/>
<path d="M72.1763 87.0586H75.3218" stroke="#181828" stroke-width="2.42003" stroke-linecap="round" stroke-linejoin="round"/>
<path d="M77.1686 87.7199C77.5135 87.7199 77.7932 87.4403 77.7932 87.0953C77.7932 86.7503 77.5135 86.4707 77.1686 86.4707C76.8236 86.4707 76.5439 86.7503 76.5439 87.0953C76.5439 87.4403 76.8236 87.7199 77.1686 87.7199Z" fill="#181828"/>
<path d="M103.384 82.1523H100.239" stroke="#181828" stroke-width="1.21001" stroke-linecap="round" stroke-linejoin="round"/>
<path d="M99.0974 82.4848C99.2984 82.4848 99.4614 82.3218 99.4614 82.1208C99.4614 81.9198 99.2984 81.7568 99.0974 81.7568C98.8964 81.7568 98.7334 81.9198 98.7334 82.1208C98.7334 82.3218 98.8964 82.4848 99.0974 82.4848Z" fill="#181828"/>
<path d="M103.519 116.137H100.374" stroke="#181828" stroke-width="2.42003" stroke-linecap="round" stroke-linejoin="round"/>
<path d="M98.5313 116.726C98.8763 116.726 99.156 116.446 99.156 116.101C99.156 115.756 98.8763 115.477 98.5313 115.477C98.1864 115.477 97.9067 115.756 97.9067 116.101C97.9067 116.446 98.1864 116.726 98.5313 116.726Z" fill="#181828"/>
<path d="M114.641 113.513H111.495" stroke="#181828" stroke-width="2.42003" stroke-linecap="round" stroke-linejoin="round"/>
<path d="M109.653 114.106C109.998 114.106 110.278 113.826 110.278 113.481C110.278 113.136 109.998 112.856 109.653 112.856C109.308 112.856 109.028 113.136 109.028 113.481C109.028 113.826 109.308 114.106 109.653 114.106Z" fill="#181828"/>
<path d="M15.4136 79.7394C15.4136 79.7394 25.7488 76.9174 25.7488 67.9033" stroke="#181828" stroke-width="2.42003" stroke-linecap="round" stroke-linejoin="round"/>
<path d="M5.7251 79.7705H39.0001" stroke="#181828" stroke-width="2.42003" stroke-linecap="round" stroke-linejoin="round"/>
<path d="M8.4126 95.7856V86.2861H40.2676V120.069H8.4126V99.6995" fill="white"/>
<path d="M40.2676 86.291H8.4126V89.423H40.2676V86.291Z" fill="#C5D5DC"/>
<path d="M8.4126 95.7856V86.2861H40.2676V120.069H8.4126V99.6995" stroke="#181828" stroke-width="2.42003" stroke-linecap="round" stroke-linejoin="round"/>
<path d="M48.0993 82.9971H4.96094V86.5919H48.0993V82.9971Z" fill="#889FAA"/>
<path d="M5.01514 83.1943H45.1788C45.1788 83.4894 45.1207 83.7816 45.0077 84.0541C44.8948 84.3267 44.7293 84.5744 44.5207 84.7831C44.3121 84.9917 44.0644 85.1572 43.7918 85.2701C43.5192 85.383 43.227 85.4411 42.932 85.4411H5.01514V83.1943Z" fill="#C5D5DC"/>
<path d="M7.05078 83.2256H12.1375C12.1375 83.4925 12.0315 83.7486 11.8427 83.9373C11.6539 84.1261 11.3979 84.2322 11.131 84.2322H8.05734C7.79039 84.2322 7.53436 84.1261 7.3456 83.9373C7.15683 83.7486 7.05078 83.4925 7.05078 83.2256V83.2256Z" fill="white"/>
<path d="M12.5957 83.2256H17.6824C17.6824 83.4925 17.5764 83.7486 17.3876 83.9373C17.1989 84.1261 16.9428 84.2322 16.6759 84.2322H13.6023C13.3353 84.2322 13.0793 84.1261 12.8905 83.9373C12.7018 83.7486 12.5957 83.4925 12.5957 83.2256V83.2256V83.2256Z" fill="white"/>
<path d="M37.3464 82.9971H48.2883V86.5919H5.1499V82.9971H37.7778" stroke="#181828" stroke-width="2.42003" stroke-miterlimit="10"/>
<path d="M9.26611 79.833V82.8527" stroke="#181828" stroke-width="1.81502" stroke-linecap="round" stroke-linejoin="round"/>
<path d="M15.0854 79.833V82.8527" stroke="#181828" stroke-width="1.81502" stroke-linecap="round" stroke-linejoin="round"/>
<path d="M42.02 91.8135H11.6973V116.097H42.02V91.8135Z" fill="#F68E2A"/>
<path d="M41.148 92.5098H12.5688V115.396H41.148V92.5098Z" stroke="#DE761B" stroke-width="3.63004" stroke-miterlimit="10"/>
<path d="M20.8999 79.833V82.8527" stroke="#181828" stroke-width="1.81502" stroke-linecap="round" stroke-linejoin="round"/>
<path d="M26.2702 85.7288C26.6772 85.7288 27.0071 85.3988 27.0071 84.9918C27.0071 84.5848 26.6772 84.2549 26.2702 84.2549C25.8631 84.2549 25.5332 84.5848 25.5332 84.9918C25.5332 85.3988 25.8631 85.7288 26.2702 85.7288Z" fill="#889FAA"/>
<path d="M23.9918 85.796C24.2995 85.796 24.549 85.5466 24.549 85.2388C24.549 84.9311 24.2995 84.6816 23.9918 84.6816C23.684 84.6816 23.4346 84.9311 23.4346 85.2388C23.4346 85.5466 23.684 85.796 23.9918 85.796Z" fill="#889FAA"/>
<path d="M27.4921 84.7449C27.6608 84.7449 27.7977 84.6081 27.7977 84.4394C27.7977 84.2706 27.6608 84.1338 27.4921 84.1338C27.3233 84.1338 27.1865 84.2706 27.1865 84.4394C27.1865 84.6081 27.3233 84.7449 27.4921 84.7449Z" fill="#889FAA"/>
<path d="M12.1558 106.251H23.884C24.0032 106.251 24.1175 106.298 24.2018 106.383C24.286 106.467 24.3334 106.581 24.3334 106.7C24.3334 106.82 24.286 106.934 24.2018 107.018C24.1175 107.102 24.0032 107.15 23.884 107.15H12.1558V106.251Z" fill="#AE5601"/>
<path d="M15.8985 115.521V106.813C15.8985 106.713 15.9383 106.617 16.0091 106.546C16.0799 106.475 16.1759 106.435 16.276 106.435H16.3928C16.4929 106.435 16.589 106.475 16.6597 106.546C16.7305 106.617 16.7703 106.713 16.7703 106.813V115.521H15.894H15.8985Z" fill="#AE5601"/>
<path d="M20.253 115.521V106.813C20.253 106.763 20.2628 106.714 20.2818 106.668C20.3007 106.623 20.3285 106.581 20.3636 106.546C20.3986 106.511 20.4402 106.483 20.486 106.464C20.5318 106.445 20.5809 106.435 20.6305 106.435H20.7473C20.7969 106.435 20.846 106.445 20.8918 106.464C20.9376 106.483 20.9792 106.511 21.0142 106.546C21.0493 106.581 21.0771 106.623 21.0961 106.668C21.115 106.714 21.1248 106.763 21.1248 106.813V115.521H20.2485H20.253Z" fill="#AE5601"/>
<path opacity="0.8" d="M17.1614 116.065H13.0947L19.8351 91.584H23.9018L17.1614 116.065Z" fill="#FFC38C"/>
<path opacity="0.8" d="M23.2904 116.065H19.2192L25.9596 91.584H30.0308L23.2904 116.065Z" fill="#FFC38C"/>
<path d="M42.02 91.7139H11.6973V115.997H42.02V91.7139Z" stroke="#181828" stroke-width="2.42003" stroke-linecap="round" stroke-linejoin="round"/>
<path d="M24.7329 63.1574V56.3721H34.6188V87.8271H24.7329V78.1794" fill="white"/>
<path d="M34.5289 56.0215V87.4766H24.6431V85.7286H32.9517V56.0215H34.5289Z" fill="#D6E6FF"/>
<path d="M73.0387 29.6357H37.9888V118.609H73.0387V29.6357Z" fill="#D15F39"/>
<path d="M70.4639 33.7744V35.5718" stroke="#F7A387" stroke-width="1.21001" stroke-linecap="round" stroke-linejoin="round"/>
<path d="M69.6553 35.873V37.6705" stroke="#F7A387" stroke-width="1.21001" stroke-linecap="round" stroke-linejoin="round"/>
<path d="M68.4649 38.0656H72.7383C72.8276 38.0656 72.9134 38.0301 72.9766 37.9669C73.0398 37.9037 73.0753 37.818 73.0753 37.7286C73.0753 37.6392 73.0398 37.5535 72.9766 37.4903C72.9134 37.4271 72.8276 37.3916 72.7383 37.3916H68.4469C68.3575 37.3916 68.2718 37.4271 68.2086 37.4903C68.1454 37.5535 68.1099 37.6392 68.1099 37.7286C68.1099 37.818 68.1454 37.9037 68.2086 37.9669C68.2718 38.0301 68.3575 38.0656 68.4469 38.0656H68.4649Z" fill="#F7A387"/>
<path d="M63.8273 33.8235H72.6122C72.7016 33.8235 72.7873 33.7879 72.8505 33.7247C72.9137 33.6615 72.9492 33.5758 72.9492 33.4864C72.9492 33.397 72.9137 33.3113 72.8505 33.2481C72.7873 33.1849 72.7016 33.1494 72.6122 33.1494H63.8273C63.7379 33.1494 63.6521 33.1849 63.5889 33.2481C63.5257 33.3113 63.4902 33.397 63.4902 33.4864C63.4902 33.5758 63.5257 33.6615 63.5889 33.7247C63.6521 33.7879 63.7379 33.8235 63.8273 33.8235V33.8235Z" fill="#F7A387"/>
<path d="M66.5235 35.9895H72.6123C72.7017 35.9895 72.7875 35.954 72.8507 35.8908C72.9139 35.8276 72.9494 35.7418 72.9494 35.6524C72.9494 35.5631 72.9139 35.4773 72.8507 35.4141C72.7875 35.3509 72.7017 35.3154 72.6123 35.3154H66.5235C66.4342 35.3154 66.3484 35.3509 66.2852 35.4141C66.222 35.4773 66.1865 35.5631 66.1865 35.6524C66.1865 35.7418 66.222 35.8276 66.2852 35.8908C66.3484 35.954 66.4342 35.9895 66.5235 35.9895V35.9895Z" fill="#F7A387"/>
<path d="M73.1022 29.4824H38.0522V32.8616H73.1022V29.4824Z" fill="#A72E08"/>
<path d="M73.0387 43.1162H37.9888V46.9358H73.0387V43.1162Z" fill="#A72E08"/>
<path d="M72.9941 47.0615H70.3159V119.184H72.9941V47.0615Z" fill="#A72E08"/>
<path d="M37.9844 49.1826C38.8186 49.1826 39.6187 49.514 40.2086 50.1039C40.7985 50.6938 41.1299 51.4939 41.1299 52.3281V118.833H37.9844V49.1826Z" fill="#F7A387"/>
<path d="M38.1733 33.4327V29.8604H72.7739V52.3103" stroke="#181828" stroke-width="3.63004" stroke-linecap="round" stroke-linejoin="round"/>
<path d="M38.1733 56.1607V36.7979" stroke="#181828" stroke-width="3.63004" stroke-linecap="round" stroke-linejoin="round"/>
<path d="M35.0684 64.0117H37.7645" stroke="#181828" stroke-width="4.84006" stroke-miterlimit="10"/>
<path d="M24.7329 63.1574V56.3721H34.6188V87.8271H24.7329V77.7301" stroke="#181828" stroke-width="2.42003" stroke-linecap="round" stroke-linejoin="round"/>
<path d="M24.7329 75.3624V69.3096" stroke="#181828" stroke-width="2.42003" stroke-linecap="round" stroke-linejoin="round"/>
<path d="M24.7329 66.9546V65.8447" stroke="#181828" stroke-width="2.42003" stroke-linecap="round" stroke-linejoin="round"/>
<path d="M55.4736 48.7334C58.3338 48.7334 61.0769 49.8696 63.0994 51.8921C65.1219 53.9146 66.2582 56.6577 66.2582 59.518V83.7833H44.689V59.518C44.689 56.6577 45.8252 53.9146 47.8477 51.8921C49.8702 49.8696 52.6133 48.7334 55.4736 48.7334V48.7334Z" fill="#C8EEFD"/>
<path d="M55.4737 49.9373C58.135 49.9373 60.6875 50.9936 62.5705 52.8741C64.4536 54.7547 65.5133 57.3057 65.5169 59.967V82.5607H45.4351V59.967C45.4351 57.3034 46.4932 54.7489 48.3766 52.8654C50.2601 50.9819 52.8146 49.9238 55.4782 49.9238L55.4737 49.9373Z" stroke="#4FCDFF" stroke-width="4.84006" stroke-miterlimit="10"/>
<path d="M55.6172 91.0488C58.537 91.0488 61.3373 92.2087 63.4019 94.2734C65.4666 96.338 66.6265 99.1383 66.6265 102.058V118.909H44.6079V102.058C44.6079 99.1383 45.7678 96.338 47.8325 94.2734C49.8971 92.2087 52.6973 91.0488 55.6172 91.0488V91.0488Z" fill="#C8EEFD"/>
<path d="M55.4737 91.8223C58.1373 91.8223 60.6918 92.8804 62.5753 94.7638C64.4588 96.6473 65.5169 99.2018 65.5169 101.865V117.593H45.4351V101.865C45.4351 99.2026 46.4926 96.6488 48.375 94.7654C50.2575 92.8821 52.8109 91.8235 55.4737 91.8223V91.8223Z" stroke="#4FCDFF" stroke-width="3.63004" stroke-miterlimit="10"/>
<path d="M38.6631 50.5303H41.8086" stroke="#181828" stroke-width="2.42003" stroke-linecap="round" stroke-linejoin="round"/>
<path d="M43.651 51.1867C43.9959 51.1867 44.2756 50.9071 44.2756 50.5621C44.2756 50.2171 43.9959 49.9375 43.651 49.9375C43.306 49.9375 43.0264 50.2171 43.0264 50.5621C43.0264 50.9071 43.306 51.1867 43.651 51.1867Z" fill="#181828"/>
<path d="M44.7295 30.085V32.7811" stroke="#F7A387" stroke-width="1.21001" stroke-linecap="round" stroke-linejoin="round"/>
<path d="M43.0669 33.3477V35.1451" stroke="#F7A387" stroke-width="1.21001" stroke-linecap="round" stroke-linejoin="round"/>
<path d="M46.2393 35.4365V37.234" stroke="#F7A387" stroke-width="1.21001" stroke-linecap="round" stroke-linejoin="round"/>
<path d="M50.0093 35.374V37.6208" stroke="#F7A387" stroke-width="1.21001" stroke-linecap="round" stroke-linejoin="round"/>
<path d="M47.6953 33.3477V35.1451" stroke="#F7A387" stroke-width="1.21001" stroke-linecap="round" stroke-linejoin="round"/>
<path d="M41.3594 101.309H38.2139" stroke="#202020" stroke-width="2.42003" stroke-miterlimit="10"/>
<path d="M72.8145 101.309H69.6689" stroke="#202020" stroke-width="2.42003" stroke-miterlimit="10"/>
<path d="M72.8145 79.29H69.6689" stroke="#202020" stroke-width="2.42003" stroke-miterlimit="10"/>
<path d="M72.8145 46.9355H69.6689" stroke="#202020" stroke-width="2.42003" stroke-miterlimit="10"/>
<path d="M29.676 65.3598C30.9169 65.3598 31.9228 64.3539 31.9228 63.113C31.9228 61.8721 30.9169 60.8662 29.676 60.8662C28.4351 60.8662 27.4292 61.8721 27.4292 63.113C27.4292 64.3539 28.4351 65.3598 29.676 65.3598Z" fill="#FA4040"/>
<path d="M29.676 82.435C30.9169 82.435 31.9228 81.4291 31.9228 80.1882C31.9228 78.9473 30.9169 77.9414 29.676 77.9414C28.4351 77.9414 27.4292 78.9473 27.4292 80.1882C27.4292 81.4291 28.4351 82.435 29.676 82.435Z" fill="#FA4040"/>
<path d="M76.8586 39.7461H33.7202V43.341H76.8586V39.7461Z" fill="#889FAA"/>
<path d="M33.7202 39.7461H73.8838C73.8838 40.0411 73.8257 40.3333 73.7128 40.6059C73.5999 40.8785 73.4344 41.1262 73.2258 41.3348C73.0171 41.5435 72.7695 41.7089 72.4969 41.8219C72.2243 41.9348 71.9321 41.9929 71.6371 41.9929H33.7202V39.7461Z" fill="#C5D5DC"/>
<path d="M75.9599 3.58125V22.0049C75.9551 22.3021 75.8338 22.5856 75.6219 22.7941C75.4101 23.0025 75.1247 23.1194 74.8275 23.1193H36.1827C35.8824 23.1193 35.5943 23 35.382 22.7877C35.1696 22.5753 35.0503 22.2873 35.0503 21.987V19.83C39.3503 16.2942 44.8767 14.6072 50.4183 15.1387C55.1636 15.624 59.6167 17.7226 64.3484 18.2842C66.1908 18.5089 68.2534 18.4325 69.6329 17.1833C70.6619 16.2532 71.1068 14.8287 71.2551 13.4492C71.4124 11.9798 71.2551 10.416 70.4507 9.18025C70.1182 8.67697 69.6868 8.24559 69.3498 7.7423C68.7503 6.77159 68.4157 5.66073 68.3792 4.52041C68.3005 3.83076 68.3835 3.13226 68.6218 2.48032L68.6443 2.43089H74.805C74.9571 2.42785 75.1083 2.4555 75.2495 2.51217C75.3907 2.56885 75.519 2.6534 75.6268 2.76077C75.7346 2.86814 75.8196 2.99613 75.8768 3.1371C75.9341 3.27807 75.9623 3.42912 75.9599 3.58125V3.58125Z" fill="#D6E6FF"/>
<path d="M77.0427 26.7148H33.9043V30.3097H77.0427V26.7148Z" fill="#C5D5DC"/>
<path d="M34.1694 26.6475H57.7967C57.7967 27.1242 57.6073 27.5814 57.2702 27.9184C56.9331 28.2555 56.476 28.4449 55.9993 28.4449H34.1694V26.6475Z" fill="white"/>
<path d="M51.8696 26.7148H77.0427V30.3097H33.9043V26.7148H43.3813" stroke="#181828" stroke-width="2.42003" stroke-miterlimit="10"/>
<path d="M45.2192 26.7148H50.3015" stroke="#181828" stroke-width="2.42003" stroke-miterlimit="10"/>
<path d="M53.6987 2.00001H74.787C75.0874 2.00001 75.3754 2.11931 75.5878 2.33168C75.8001 2.54404 75.9194 2.83207 75.9194 3.13239V21.5561C75.9147 21.8533 75.7933 22.1367 75.5815 22.3452C75.3696 22.5537 75.0843 22.6705 74.787 22.6705H36.1647C36.0156 22.6711 35.8679 22.6422 35.73 22.5856C35.5921 22.5289 35.4667 22.4456 35.3611 22.3404C35.2555 22.2352 35.1716 22.1102 35.1145 21.9725C35.0573 21.8348 35.0278 21.6872 35.0278 21.5381V3.11442C35.0326 2.81644 35.1546 2.53233 35.3674 2.32372C35.5802 2.1151 35.8667 1.99879 36.1647 2.00001H44.3161" stroke="#181828" stroke-width="2.42003" stroke-miterlimit="10"/>
<path d="M46.2842 2H51.8293" stroke="#181828" stroke-width="2.42003" stroke-miterlimit="10"/>
<path d="M40.0247 22.6709H38.1958V26.2658H40.0247V22.6709Z" fill="#181828"/>
<path d="M72.909 22.6709H71.0801V26.2658H72.909V22.6709Z" fill="#181828"/>
<path d="M56.4666 22.6709H54.6377V26.2658H56.4666V22.6709Z" fill="#181828"/>
<path d="M39.5619 7.39244C40.3065 7.39244 40.91 6.78888 40.91 6.04436C40.91 5.29984 40.3065 4.69629 39.5619 4.69629C38.8174 4.69629 38.2139 5.29984 38.2139 6.04436C38.2139 6.78888 38.8174 7.39244 39.5619 7.39244Z" fill="#FA4040"/>
<path d="M39.5619 19.5253C40.3065 19.5253 40.91 18.9217 40.91 18.1772C40.91 17.4327 40.3065 16.8291 39.5619 16.8291C38.8174 16.8291 38.2139 17.4327 38.2139 18.1772C38.2139 18.9217 38.8174 19.5253 39.5619 19.5253Z" fill="#FA4040"/>
<path d="M71.4662 7.39244C72.2108 7.39244 72.8143 6.78888 72.8143 6.04436C72.8143 5.29984 72.2108 4.69629 71.4662 4.69629C70.7217 4.69629 70.1182 5.29984 70.1182 6.04436C70.1182 6.78888 70.7217 7.39244 71.4662 7.39244Z" fill="#FA4040"/>
<path d="M71.4662 19.5253C72.2108 19.5253 72.8143 18.9217 72.8143 18.1772C72.8143 17.4327 72.2108 16.8291 71.4662 16.8291C70.7217 16.8291 70.1182 17.4327 70.1182 18.1772C70.1182 18.9217 70.7217 19.5253 71.4662 19.5253Z" fill="#FA4040"/>
<path d="M71.2235 51.8965H67.0579C66.6584 51.8965 66.3345 52.2194 66.3345 52.6177C66.3345 53.016 66.6584 53.3389 67.0579 53.3389H71.2235C71.6231 53.3389 71.947 53.016 71.947 52.6177C71.947 52.2194 71.6231 51.8965 71.2235 51.8965Z" fill="#A72E08"/>
<path d="M70.5363 87.6211H62.3265C61.9269 87.6211 61.603 87.944 61.603 88.3423C61.603 88.7406 61.9269 89.0635 62.3265 89.0635H70.5363C70.9358 89.0635 71.2597 88.7406 71.2597 88.3423C71.2597 87.944 70.9358 87.6211 70.5363 87.6211Z" fill="#A72E08"/>
<path d="M59.8772 89.0815C60.3115 89.0815 60.6636 88.7295 60.6636 88.2952C60.6636 87.8609 60.3115 87.5088 59.8772 87.5088C59.4429 87.5088 59.0908 87.8609 59.0908 88.2952C59.0908 88.7295 59.4429 89.0815 59.8772 89.0815Z" fill="#A72E08"/>
<path opacity="0.8" d="M65.9481 97.5248L44.5991 115.499V110.111L63.7013 94.3838L65.9481 97.5248Z" fill="white"/>
<path opacity="0.8" d="M65.9481 107.325L51.7889 119.009L44.5991 119.013L66.3975 101.488L65.9481 107.325Z" fill="white"/>
<path opacity="0.7" d="M65.9481 62.4744L44.5991 80.4488V75.061L65.9976 57.3428L65.9481 62.4744Z" fill="white"/>
<path opacity="0.7" d="M65.9481 72.2795L51.7889 83.9629L44.5991 83.9674L66.3975 66.4424L65.9481 72.2795Z" fill="white"/>
<path d="M72.7739 58.5244V118.833H38.1733V110.511" stroke="#181828" stroke-width="3.63004" stroke-linecap="round" stroke-linejoin="round"/>
<path d="M55.4736 90.9727C58.3935 90.9727 61.1937 92.1326 63.2584 94.1972C65.323 96.2618 66.4829 99.0621 66.4829 101.982V118.833H44.4644V101.982C44.4644 99.0621 45.6243 96.2618 47.6889 94.1972C49.7535 92.1326 52.5538 90.9727 55.4736 90.9727V90.9727Z" stroke="#181828" stroke-width="2.42003" stroke-miterlimit="10"/>
<path d="M55.2896 90.9727V118.384" stroke="#202020" stroke-width="2.42003" stroke-miterlimit="10"/>
<path d="M66.5234 99.96H44.5049" stroke="#202020" stroke-width="2.42003" stroke-miterlimit="10"/>
<path d="M50.3462 97.8164V99.9598" stroke="#202020" stroke-width="2.42003" stroke-miterlimit="10"/>
<path d="M50.3462 91.8721V96.0646" stroke="#202020" stroke-width="2.42003" stroke-miterlimit="10"/>
<path d="M60.2324 91.8721V99.9605" stroke="#202020" stroke-width="2.42003" stroke-miterlimit="10"/>
<path d="M38.4295 62.8115C38.9492 62.8151 39.4463 63.024 39.8125 63.3927C40.1787 63.7615 40.3842 64.26 40.3842 64.7797V69.0666C40.3842 69.5886 40.1768 70.0892 39.8077 70.4583C39.4386 70.8274 38.938 71.0348 38.416 71.0348V62.8115H38.4295Z" fill="white"/>
<path d="M53.8846 69.0382C54.1572 68.811 54.1939 68.4058 53.9667 68.1332C53.7394 67.8606 53.3342 67.8239 53.0616 68.0511L47.7293 72.497C47.4567 72.7243 47.42 73.1295 47.6473 73.4021C47.8745 73.6746 48.2797 73.7114 48.5523 73.4841L53.8846 69.0382Z" fill="white"/>
<path d="M62.8983 63.174C63.1709 62.9467 63.2076 62.5415 62.9803 62.2689C62.7531 61.9964 62.3479 61.9596 62.0753 62.1869L56.743 66.6328C56.4704 66.86 56.4337 67.2652 56.6609 67.5378C56.8882 67.8104 57.2934 67.8471 57.566 67.6198L62.8983 63.174Z" fill="white"/>
<path d="M64.5643 72.4484C64.8369 72.2211 64.8736 71.8159 64.6464 71.5433C64.4191 71.2708 64.0139 71.234 63.7413 71.4613L58.409 75.9072C58.1364 76.1344 58.0997 76.5396 58.327 76.8122C58.5542 77.0848 58.9594 77.1215 59.232 76.8943L64.5643 72.4484Z" fill="white"/>
<path d="M55.6449 76.6613C55.9175 76.434 55.9542 76.0288 55.7269 75.7562C55.4997 75.4837 55.0945 75.4469 54.8219 75.6742L49.4896 80.1201C49.217 80.3473 49.1803 80.7525 49.4075 81.0251C49.6348 81.2977 50.04 81.3344 50.3126 81.1072L55.6449 76.6613Z" fill="white"/>
<path d="M38.4295 90.7256C38.9499 90.7291 39.4478 90.9387 39.8141 91.3084C40.1804 91.6781 40.3854 92.1778 40.3842 92.6983V96.9851C40.3842 97.5071 40.1768 98.0078 39.8077 98.3769C39.4386 98.746 38.938 98.9533 38.416 98.9533V90.7256H38.4295Z" fill="white"/>
<path d="M38.1733 106.894V59.082" stroke="#181828" stroke-width="3.63004" stroke-linecap="round" stroke-linejoin="round"/>
<path d="M55.4736 48.7334C58.3338 48.7334 61.0769 49.8696 63.0994 51.8921C65.1219 53.9146 66.2582 56.6577 66.2582 59.518V83.7833H44.689V59.518C44.689 56.6577 45.8252 53.9146 47.8477 51.8921C49.8702 49.8696 52.6133 48.7334 55.4736 48.7334V48.7334Z" stroke="#181828" stroke-width="2.42003" stroke-miterlimit="10"/>
<path d="M55.2896 59.0684V84.2324" stroke="#202020" stroke-width="2.42003" stroke-miterlimit="10"/>
<path d="M66.5234 59.0684H44.5049" stroke="#202020" stroke-width="2.42003" stroke-miterlimit="10"/>
<path d="M47.6009 60.583H47.5964C47.1745 60.583 46.8325 60.925 46.8325 61.3469V67.3908C46.8325 67.8127 47.1745 68.1547 47.5964 68.1547H47.6009C48.0228 68.1547 48.3648 67.8127 48.3648 67.3908V61.3469C48.3648 60.925 48.0228 60.583 47.6009 60.583Z" fill="white"/>
<path d="M14.9232 97.7451H14.9187C14.4968 97.7451 14.1548 98.0871 14.1548 98.509V104.553C14.1548 104.975 14.4968 105.317 14.9187 105.317H14.9232C15.3451 105.317 15.6871 104.975 15.6871 104.553V98.509C15.6871 98.0871 15.3451 97.7451 14.9232 97.7451Z" fill="white"/>
<path d="M40.6852 33.2756H55.3118C55.4012 33.2756 55.4869 33.2401 55.5501 33.1769C55.6133 33.1137 55.6488 33.028 55.6488 32.9386C55.6488 32.8492 55.6133 32.7635 55.5501 32.7003C55.4869 32.6371 55.4012 32.6016 55.3118 32.6016H40.6852C40.5958 32.6016 40.5101 32.6371 40.4469 32.7003C40.3837 32.7635 40.3481 32.8492 40.3481 32.9386C40.3481 33.028 40.3837 33.1137 40.4469 33.1769C40.5101 33.2401 40.5958 33.2756 40.6852 33.2756Z" fill="#F7A387"/>
<path d="M40.6852 35.6701H59.8054C59.8947 35.6701 59.9805 35.6346 60.0437 35.5714C60.1069 35.5082 60.1424 35.4225 60.1424 35.3331C60.1424 35.2437 60.1069 35.158 60.0437 35.0948C59.9805 35.0316 59.8947 34.9961 59.8054 34.9961H40.6852C40.5958 34.9961 40.5101 35.0316 40.4469 35.0948C40.3837 35.158 40.3481 35.2437 40.3481 35.3331C40.3481 35.4225 40.3837 35.5082 40.4469 35.5714C40.5101 35.6346 40.5958 35.6701 40.6852 35.6701Z" fill="#F7A387"/>
<path d="M42.0333 38.0656H55.3118C55.4012 38.0656 55.4869 38.0301 55.5502 37.9669C55.6134 37.9037 55.6489 37.818 55.6489 37.7286C55.6489 37.6392 55.6134 37.5535 55.5502 37.4903C55.4869 37.4271 55.4012 37.3916 55.3118 37.3916H42.0333C41.9439 37.3916 41.8582 37.4271 41.795 37.4903C41.7318 37.5535 41.6963 37.6392 41.6963 37.7286C41.6963 37.818 41.7318 37.9037 41.795 37.9669C41.8582 38.0301 41.9439 38.0656 42.0333 38.0656V38.0656Z" fill="#F7A387"/>
<path d="M55.0289 42.4778C55.4359 42.4778 55.7659 42.1479 55.7659 41.7409C55.7659 41.3338 55.4359 41.0039 55.0289 41.0039C54.6219 41.0039 54.292 41.3338 54.292 41.7409C54.292 42.1479 54.6219 42.4778 55.0289 42.4778Z" fill="#889FAA"/>
<path d="M52.7506 42.5461C53.0583 42.5461 53.3078 42.2966 53.3078 41.9888C53.3078 41.6811 53.0583 41.4316 52.7506 41.4316C52.4428 41.4316 52.1934 41.6811 52.1934 41.9888C52.1934 42.2966 52.4428 42.5461 52.7506 42.5461Z" fill="#889FAA"/>
<path d="M56.2465 41.4939C56.4152 41.4939 56.552 41.3571 56.552 41.1884C56.552 41.0196 56.4152 40.8828 56.2465 40.8828C56.0777 40.8828 55.9409 41.0196 55.9409 41.1884C55.9409 41.3571 56.0777 41.4939 56.2465 41.4939Z" fill="#889FAA"/>
<path d="M34.0122 39.8857H39.0989C39.0989 40.1551 38.9919 40.4134 38.8015 40.6038C38.611 40.7943 38.3527 40.9013 38.0834 40.9013H34.0122V39.8857Z" fill="white"/>
<path d="M39.5576 39.8857H44.6444C44.6444 40.1551 44.5374 40.4134 44.3469 40.6038C44.1565 40.7943 43.8981 40.9013 43.6288 40.9013H40.5732C40.4398 40.9013 40.3077 40.875 40.1845 40.824C40.0613 40.773 39.9494 40.6981 39.8551 40.6038C39.7608 40.5095 39.686 40.3976 39.6349 40.2744C39.5839 40.1512 39.5576 40.0191 39.5576 39.8857V39.8857Z" fill="white"/>
<path d="M66.1053 39.7461H77.0427V43.341H33.9043V39.7461H63.8405" stroke="#181828" stroke-width="2.42003" stroke-miterlimit="10"/>
<path d="M30.3364 89.9844V118.245" stroke="#181828" stroke-width="2.42003" stroke-linecap="round" stroke-linejoin="round"/>
<path d="M14.9236 96.4996C15.3951 96.4996 15.7774 96.1173 15.7774 95.6458C15.7774 95.1742 15.3951 94.792 14.9236 94.792C14.4521 94.792 14.0698 95.1742 14.0698 95.6458C14.0698 96.1173 14.4521 96.4996 14.9236 96.4996Z" fill="white"/>
<path d="M28.2783 56.4218C28.2783 56.4218 38.0024 54.8491 38.0024 45.835" stroke="#181828" stroke-width="2.42003" stroke-linecap="round" stroke-linejoin="round"/>
<path d="M5.26221 84.7852H11.0724" stroke="#181828" stroke-width="1.21001" stroke-linecap="round" stroke-linejoin="round"/>
<path d="M38.6631 87.1396H41.8086" stroke="#181828" stroke-width="2.42003" stroke-linecap="round" stroke-linejoin="round"/>
<path d="M43.651 87.7961C43.9959 87.7961 44.2756 87.5164 44.2756 87.1715C44.2756 86.8265 43.9959 86.5469 43.651 86.5469C43.306 86.5469 43.0264 86.8265 43.0264 87.1715C43.0264 87.5164 43.306 87.7961 43.651 87.7961Z" fill="#181828"/>
<path d="M112.542 118.379H2V121.974H112.542V118.379Z" fill="#889FAA"/>
<path d="M105.352 118.379H2V120.176H105.352V118.379Z" fill="#C5D5DC"/>
<path d="M101.794 118.379H112.731V121.974H2.18896V118.379H102.225" stroke="#181828" stroke-width="2.42003" stroke-miterlimit="10"/>
<path d="M103.492 73.8076H93.6465V80.1301H103.492V73.8076Z" fill="white"/>
<path d="M103.492 73.709H93.6465V75.1379H103.492V73.709Z" fill="#C5D5DC"/>
<path d="M103.492 73.709H93.6465V80.0315H103.492V73.709Z" stroke="#181828" stroke-width="2.42003" stroke-linecap="round" stroke-linejoin="round"/>
<path d="M98.6258 78.1755C99.209 78.1755 99.6818 77.7027 99.6818 77.1195C99.6818 76.5363 99.209 76.0635 98.6258 76.0635C98.0426 76.0635 97.5698 76.5363 97.5698 77.1195C97.5698 77.7027 98.0426 78.1755 98.6258 78.1755Z" stroke="#181828" stroke-width="1.81502" stroke-linecap="round" stroke-linejoin="round"/>
</svg>
