<svg width="27" height="24" viewBox="0 0 27 24" fill="none" xmlns="http://www.w3.org/2000/svg">
<path d="M12.2811 4.81771L13.1628 6.46534L14.0444 4.81771C15.0557 2.92792 17.0446 1.64551 19.3328 1.64551C22.6421 1.64551 25.3255 4.32888 25.3255 7.63822C25.3255 11.9094 22.3329 15.6638 19.0924 18.4486C17.4968 19.8198 15.8964 20.9081 14.6926 21.6542C14.0918 22.0266 13.5925 22.3121 13.2455 22.5033C13.2169 22.5191 13.1893 22.5343 13.1628 22.5488C13.1362 22.5343 13.1086 22.5191 13.08 22.5033C12.733 22.3121 12.2337 22.0266 11.6329 21.6542C10.4291 20.9081 8.82869 19.8198 7.23314 18.4486C3.99261 15.6638 1 11.9094 1 7.63822C1 4.32888 3.68338 1.64551 6.99271 1.64551C9.28088 1.64551 11.2698 2.92792 12.2811 4.81771Z" fill="#F02E2E" stroke="#F02E2E" stroke-width="2"/>
</svg>
