<svg width="53" height="142" viewBox="0 0 53 142" fill="none" xmlns="http://www.w3.org/2000/svg">
<path d="M26.1528 141.469C40.5965 141.469 52.3055 138.385 52.3055 134.58C52.3055 130.776 40.5965 127.691 26.1528 127.691C11.709 127.691 0 130.776 0 134.58C0 138.385 11.709 141.469 26.1528 141.469Z" fill="#464A4C"/>
<path d="M4.56231 138.065C4.56231 134.261 16.2713 131.177 30.7151 131.177C39.6506 131.177 47.5378 132.357 52.2553 134.158C51.4276 130.55 40.0587 127.691 26.1528 127.691C11.709 127.691 0 130.776 0 134.58C0 136.031 1.70448 137.377 4.61254 138.487C4.58037 138.348 4.56231 138.207 4.56231 138.065V138.065Z" fill="#132028"/>
<path d="M15.443 115.802C15.443 115.802 15.548 115.278 15.7054 114.491C15.8999 113.632 15.7715 112.564 15.9213 111.742C16.1397 110.34 16.3805 109.412 16.3805 109.412C16.9355 107.273 19.0306 105.943 21.0596 106.442C22.6015 106.821 23.6615 108.147 23.8381 109.7C23.8381 109.7 24.4683 114.764 24.3873 115.504C24.3243 116.302 24.2823 116.834 24.2823 116.834C24.0788 119.415 21.9155 121.414 19.4505 121.3C16.9855 121.185 15.152 119.001 15.3552 116.42C15.3702 116.232 15.3953 116.047 15.4303 115.865L15.443 115.802ZM36.9019 115.802C36.9019 115.802 36.797 115.278 36.6395 114.491C36.4451 113.632 36.5735 112.564 36.4236 111.742C36.2052 110.34 35.9645 109.412 35.9645 109.412C35.4094 107.273 33.3143 105.943 31.2853 106.442C29.7434 106.821 28.6835 108.147 28.5068 109.7C28.5068 109.7 27.8767 114.764 27.9577 115.504C28.0206 116.302 28.0626 116.834 28.0626 116.834C28.2661 119.415 30.4294 121.414 32.8944 121.3C35.3594 121.185 37.1932 119.001 36.9897 116.42C36.9747 116.232 36.9496 116.047 36.9146 115.865L36.9019 115.802Z" fill="#597B91"/>
<path d="M31.0542 32.3087C29.5819 31.9642 27.9957 31.7754 26.3415 31.7754C24.6277 31.7754 22.987 31.978 21.4704 32.3466L21.4735 32.3418C16.6186 32.3418 6.28418 33.6258 6.28418 41.8979C6.28418 51.0213 6.48849 70.6192 6.48849 70.6192L11.1374 71.1923L11.8965 74.305C11.9053 74.3414 11.9061 74.3795 11.9118 74.4159C12.3424 74.6707 12.8281 74.9126 13.3654 75.1406L15.9935 108.238V108.238C15.9935 110.539 17.9252 112.405 20.2265 112.405C22.5278 112.405 24.4595 110.54 24.4595 108.238V108.255L25.2206 86.1582C25.2206 83.9006 27.1327 83.9006 27.1327 86.1582L28.4102 108.255V108.247C28.4102 110.548 30.2008 112.409 32.5021 112.409C34.8035 112.409 36.594 110.542 36.594 108.24V108.239L39.2693 75.1462C39.2769 75.1431 39.3054 75.1397 39.3127 75.1363C39.3215 75.0813 39.3412 75.026 39.3576 74.9718L40.4511 71.3427L40.5121 71.1469L44.4005 70.6344C44.4005 70.6344 45.4878 51.0521 45.4878 41.9286C45.4883 34.0618 36.1456 32.4482 31.0542 32.3087V32.3087Z" fill="#2B3B47"/>
<path d="M26.4464 33.173C24.081 33.173 18.6611 30.1286 18.6611 38.9033C18.6611 47.678 26.6592 52.573 26.6592 52.573C26.6592 52.573 33.6978 47.2922 33.6978 38.9033C33.6978 30.5144 28.8118 33.173 26.4464 33.173Z" fill="white"/>
<path d="M37.9833 15.8092L38.0299 15.4121C38.0299 8.8572 32.7161 3.54199 26.1587 3.54199C19.6037 3.54199 14.2899 8.8572 14.2899 15.4121L14.3371 15.814C14.3371 15.814 14.3371 15.814 14.3368 15.814C13.1905 16.0375 12.3247 17.048 12.3247 18.2601C12.3247 19.6361 13.4405 20.7524 14.816 20.7524C14.8495 20.7524 14.882 20.7488 14.9153 20.7474L15.0242 21.6772C15.0242 26.2169 17.7418 30.12 21.6375 31.8541V35.9463C21.6375 37.1818 23.6747 38.183 26.1454 38.183C28.616 38.183 30.6812 37.1815 30.6812 35.9463C30.6812 35.8097 30.6682 35.6765 30.6682 35.5467V31.8603C34.5724 30.1293 37.2976 26.2223 37.2976 21.6772L37.4065 20.7454C37.452 20.7479 37.4971 20.7522 37.5434 20.7522C38.9185 20.7522 40.0346 19.6358 40.0346 18.2598C40.0341 17.0348 39.1483 16.0177 37.9833 15.8092V15.8092Z" fill="#E2AF8D"/>
<path d="M20.2753 16.5268V18.187H20.2727C20.2727 18.1895 20.2753 18.1915 20.2753 18.1915C20.2753 18.8434 19.7464 19.3725 19.0943 19.3725C18.4421 19.3725 17.9133 18.8437 17.9133 18.1904C17.9133 18.1904 17.9133 18.1895 17.9133 18.187H17.9082V16.5268H17.9223C17.9751 15.9221 18.4754 15.4463 19.094 15.4463C19.7109 15.4463 20.2112 15.9221 20.2632 16.5268H20.2753ZM34.403 16.5268C34.3511 15.9221 33.8499 15.4463 33.2313 15.4463C32.6153 15.4463 32.1141 15.9221 32.0622 16.5268H32.0481V18.187H32.0531V18.1904C32.0531 18.8437 32.582 19.3725 33.2316 19.3725C33.8835 19.3725 34.4126 18.8437 34.4126 18.1915C34.4126 18.1915 34.4126 18.1893 34.4126 18.187V16.5268H34.403Z" fill="#2B3B47"/>
<path d="M18.8411 16.5912V17.0049V17.006C18.8411 17.1683 18.7093 17.3001 18.5471 17.3001C18.3848 17.3001 18.253 17.1683 18.253 17.006V17.0049H18.2524V16.5912H18.2553C18.2688 16.4411 18.3935 16.3223 18.5471 16.3223C18.7003 16.3223 18.8256 16.4411 18.838 16.5912H18.8411ZM33.0639 16.5912C33.0515 16.4411 32.9265 16.3223 32.773 16.3223C32.6195 16.3223 32.4947 16.4411 32.4812 16.5912H32.4784V17.0049H32.4789V17.006C32.4789 17.1683 32.6107 17.3001 32.773 17.3001C32.9352 17.3001 33.067 17.1683 33.067 17.006V17.0049V16.5912H33.0639Z" fill="white"/>
<path d="M25.196 31.6856C22.6531 31.6856 20.2911 30.9132 18.3301 29.5914C20.3427 31.601 23.121 32.844 26.1902 32.844C32.3322 32.844 37.3139 27.8638 37.3139 21.7209L37.3517 21.1582C36.4915 27.1086 31.3837 31.6856 25.196 31.6856V31.6856Z" fill="#CE8E63"/>
<path d="M20.5583 14.5375C20.5583 14.5375 20.5154 14.5281 20.4407 14.5118C20.3631 14.4957 20.2485 14.4742 20.1105 14.4528C19.9722 14.4308 19.8105 14.4105 19.6372 14.3941C19.4648 14.3803 19.2803 14.3676 19.1011 14.3698C18.9199 14.3679 18.7452 14.3814 18.5886 14.4028C18.5065 14.4096 18.4404 14.4308 18.3704 14.4429C18.2996 14.4548 18.2491 14.4802 18.1924 14.4948C18.134 14.509 18.1021 14.5358 18.0609 14.551C18.0191 14.5662 17.9934 14.5851 17.9734 14.6007C17.9302 14.6303 17.9028 14.6455 17.9028 14.6455L17.7713 14.7192C17.5487 14.8439 17.2668 14.7646 17.142 14.542C17.0348 14.3506 17.0785 14.1158 17.2338 13.9742C17.2338 13.9742 17.286 13.9268 17.3771 13.8435C17.4234 13.8009 17.481 13.7527 17.5495 13.7126C17.6175 13.6725 17.6966 13.6121 17.7818 13.5771C17.8667 13.5402 17.9621 13.488 18.0595 13.4575C18.1568 13.4262 18.2627 13.3838 18.3676 13.3615C18.5804 13.3057 18.8053 13.2636 19.026 13.2399C19.2481 13.212 19.4665 13.2012 19.6714 13.1945C19.8754 13.1905 20.0651 13.1922 20.2273 13.1993C20.3899 13.2058 20.525 13.2151 20.6218 13.2238C20.7209 13.2337 20.7776 13.2396 20.7776 13.2396C21.1399 13.276 21.4044 13.5994 21.368 13.9618C21.3316 14.3241 21.0082 14.5885 20.6458 14.5521C20.6204 14.5496 20.5956 14.5456 20.5713 14.5403L20.5583 14.5375ZM31.4952 13.2515C31.1394 13.3294 30.9142 13.681 30.9921 14.0368C31.07 14.3927 31.4216 14.6179 31.7774 14.54L31.7896 14.5375C31.7896 14.5375 31.8325 14.5281 31.9072 14.5118C31.9848 14.4957 32.0994 14.4742 32.2374 14.4528C32.3757 14.4308 32.5374 14.4105 32.7107 14.3941C32.8831 14.3803 33.0676 14.3676 33.2468 14.3698C33.428 14.3679 33.6027 14.3814 33.7593 14.4028C33.8414 14.4096 33.9075 14.4308 33.9774 14.4429C34.0483 14.4548 34.0988 14.4802 34.1555 14.4948C34.2139 14.509 34.2458 14.5358 34.287 14.551C34.3288 14.5662 34.3545 14.5851 34.3745 14.6007C34.4177 14.6303 34.4451 14.6455 34.4451 14.6455L34.5768 14.7195C34.7603 14.8222 34.9967 14.7895 35.1443 14.6275C35.3165 14.4387 35.3029 14.1463 35.1141 13.9742C35.1141 13.9742 35.0619 13.9268 34.9708 13.8435C34.9245 13.8009 34.8669 13.7527 34.7984 13.7126C34.7303 13.6725 34.6513 13.6121 34.5661 13.5771C34.4812 13.5402 34.3858 13.488 34.2884 13.4575C34.1911 13.4262 34.0852 13.3838 33.9803 13.3615C33.7675 13.3057 33.5426 13.2636 33.3219 13.2399C33.0998 13.212 32.8814 13.2012 32.6765 13.1945C32.4725 13.1905 32.2828 13.1922 32.1206 13.1993C31.958 13.2058 31.8229 13.2151 31.7261 13.2238C31.627 13.2337 31.5703 13.2396 31.5703 13.2396C31.5455 13.2422 31.5201 13.2461 31.4952 13.2515V13.2515Z" fill="#8E6049"/>
<path d="M26.1595 23.042C26.1593 23.042 26.1587 23.042 26.1584 23.042C25.3649 23.0417 24.6427 22.6475 24.2271 21.988C24.0893 21.7696 24.1548 21.4806 24.3732 21.3429C24.5914 21.2052 24.8806 21.2704 25.0183 21.4891C25.2619 21.8754 25.6883 22.1062 26.1584 22.1062H26.1593C26.6303 22.1062 27.0575 21.8754 27.3019 21.4885C27.4402 21.2701 27.7291 21.2049 27.9473 21.3429C28.1657 21.4809 28.2309 21.7699 28.0929 21.9883C27.6761 22.6483 26.9534 23.042 26.1595 23.042V23.042ZM28.322 27.1644C28.5278 27.008 28.5678 26.7145 28.4115 26.5088C28.2554 26.3034 27.9614 26.2627 27.7559 26.4194C26.786 27.1562 25.5328 27.1562 24.5634 26.4194C24.3574 26.2627 24.0639 26.3034 23.9079 26.5088C23.7515 26.7145 23.7916 27.008 23.9971 27.1644C24.6439 27.656 25.4016 27.9015 26.1595 27.9015C26.9175 27.9015 27.6755 27.656 28.322 27.1644V27.1644Z" fill="#CE8E63"/>
<path d="M28.4102 0.0203182V0.0877637H24.7416V0.00169307L24.7526 0C16.3473 0.000282199 14.0181 5.57371 14.0181 10.7811V15.9882C14.0181 16.9158 14.7309 17.7418 15.1666 16.3845C15.816 14.3608 16.0959 6.01478 19.0579 8.55034C21.1789 10.366 32.7002 9.96782 31.6803 8.7205C31.3798 8.3528 31.0722 7.97465 30.7626 7.59143C35.7739 10.1261 36.6927 15.4473 37.0384 16.0836C37.6996 17.3002 38.0052 17.0276 38.0052 15.9295C38.0052 13.302 38.0052 15.9295 38.0052 11.1722C38.005 6.56789 36.0296 0.411728 28.4102 0.0203182V0.0203182Z" fill="#332A23"/>
<path d="M26.1274 36.6103L21.4982 41.2395C21.2914 41.4464 20.9432 41.3877 20.815 41.1244C19.8824 39.204 18.97 32.7259 21.7059 32.7259C21.7059 32.7256 22.0432 36.6103 26.1274 36.6103V36.6103ZM30.7033 32.7256C30.7033 32.7256 30.3661 36.6101 26.2818 36.6101L30.911 41.2392C31.1178 41.4461 31.4661 41.3874 31.5942 41.1241C32.5269 39.204 33.9266 32.7256 30.7033 32.7256V32.7256Z" fill="#D1CFC3"/>
<path d="M29.5452 59.0673L27.2179 40.9078L28.4026 39.7379C28.7412 39.3992 28.7412 38.8574 28.4026 38.5188L26.7407 36.8606C26.4021 36.5219 25.8529 36.5236 25.5143 36.8622L23.8524 38.525C23.5138 38.8636 23.5138 39.413 23.8524 39.752L25.0927 40.9632L22.7725 59.0673H29.5452Z" fill="#2B3B47"/>
<path d="M11.8965 74.3093C12.0621 74.9885 11.6459 75.6737 10.9667 75.8396C10.8162 75.8763 10.6658 75.8828 10.5202 75.8659C10.5445 75.9779 10.5702 76.0902 10.5992 76.2034C10.7417 76.7503 10.8806 77.2094 11.0905 77.7371C11.454 78.6292 11.0253 79.6468 10.1333 80.0103C9.24129 80.3734 8.22058 79.9377 7.85739 79.0457C7.60821 78.426 7.37963 77.7027 7.21651 77.0531C7.04409 76.3803 6.925 75.6774 6.85841 74.9485C6.84063 74.1984 6.75512 73.4652 6.96987 72.6279C7.03676 72.0415 7.28791 71.4373 7.60651 70.8504C7.6051 70.8219 7.60341 70.7886 7.60172 70.757L11.1363 71.1927L11.8965 74.3093ZM43.8318 71.7413C43.8575 71.4975 43.8942 71.1433 43.9387 70.6963L40.2809 71.1786C40.2913 71.496 40.2984 71.7289 40.3021 71.8573L39.3674 74.9724C39.2066 75.5095 39.4182 76.1091 39.9185 76.4159C40.1502 76.5578 40.409 76.614 40.6607 76.5976C40.6305 76.7085 40.5992 76.8194 40.5642 76.9312C40.3935 77.4699 40.2307 77.9214 39.9939 78.4373C39.5887 79.311 39.9651 80.3551 40.8388 80.7603C41.7125 81.1656 42.7493 80.7857 43.1545 79.9121C43.4356 79.3062 43.7017 78.5959 43.8981 77.9556C44.1052 77.2927 44.2607 76.5968 44.3651 75.8724C44.4219 75.1243 44.5455 74.3965 44.3747 73.5493C44.3392 72.9606 44.1196 72.344 43.8318 71.7413V71.7413Z" fill="#E2AF8D"/>
</svg>
