<svg width="98" height="93" viewBox="0 0 98 93" fill="none" xmlns="http://www.w3.org/2000/svg">
<path d="M38.3439 67.7355L33.0582 68.4404L31.8833 59.6309L40.6928 58.456L42.0144 61.6421C43.0569 64.4171 41.207 67.3536 38.3439 67.7355Z" fill="#6A90AE"/>
<path d="M82.3913 68.5859C82.3913 68.5859 54.3472 56.6351 40.6924 58.4561L36.5804 27.6227C49.3542 25.9192 74.1673 6.9192 74.1673 6.9192L82.3913 68.5859Z" fill="#383D41"/>
<path d="M18.0819 56.9888C24.1636 56.1778 28.4363 50.5901 27.6252 44.5084C26.8141 38.4267 21.2264 34.154 15.1447 34.965C9.06301 35.7761 4.79031 41.3638 5.60138 47.4455C6.41245 53.5272 12.0002 57.7999 18.0819 56.9888Z" fill="#383D41"/>
<path d="M84.0061 30.2644L77.3989 31.1455L79.1612 44.3598L85.7684 43.4787C89.5124 42.9793 91.9937 39.7344 91.4944 35.9904C90.9951 32.2463 87.7501 29.7651 84.0061 30.2644Z" fill="#383D41"/>
<path d="M43.3955 85.4429C41.5895 87.0287 38.242 88.8201 33.6757 89.8774C32.3836 90.2738 30.9447 89.5691 30.2987 88.0862L16.5843 59.2059C16.5843 59.2059 34.1442 42.9664 36.2883 59.0438C37.9038 71.1569 42.0591 77.1033 43.9239 79.3203C45.2307 80.7151 45.495 82.6972 44.5994 84.3858C44.2177 84.885 43.8066 85.164 43.3955 85.4429V85.4429Z" fill="#383D41"/>
<path d="M18.6696 61.3934L40.6934 58.4562L36.5814 27.6229L14.5576 30.56C12.135 30.8831 10.4172 33.1296 10.7403 35.5522L13.6774 57.5761C14.0005 59.9987 16.247 61.7165 18.6696 61.3934Z" fill="#575963"/>
<path d="M85.182 72.6974C82.7594 73.0205 80.5129 71.3027 80.1898 68.8801L71.9658 7.21336C71.6428 4.79074 73.3606 2.54425 75.7832 2.22116C78.2058 1.89808 80.4523 3.61588 80.7754 6.0385L88.9994 67.7052C89.3225 70.1278 87.6047 72.3743 85.182 72.6974Z" fill="#6A90AE"/>
</svg>
