<svg width="18" height="21" viewBox="0 0 18 21" fill="none" xmlns="http://www.w3.org/2000/svg">
<path d="M5.625 2.40705C5.32663 2.40705 5.04048 2.52558 4.8295 2.73656C4.61853 2.94754 4.5 3.23369 4.5 3.53205C4.5 3.83042 4.61853 4.11657 4.8295 4.32755C5.04048 4.53853 5.32663 4.65705 5.625 4.65705C5.92337 4.65705 6.20952 4.53853 6.4205 4.32755C6.63147 4.11657 6.75 3.83042 6.75 3.53205C6.75 3.23369 6.63147 2.94754 6.4205 2.73656C6.20952 2.52558 5.92337 2.40705 5.625 2.40705ZM2.44125 2.40705C2.67368 1.74833 3.10471 1.17792 3.67492 0.774442C4.24514 0.370967 4.92647 0.154297 5.625 0.154297C6.32353 0.154297 7.00486 0.370967 7.57508 0.774442C8.14529 1.17792 8.57632 1.74833 8.80875 2.40705H16.875C17.1734 2.40705 17.4595 2.52558 17.6705 2.73656C17.8815 2.94754 18 3.23369 18 3.53205C18 3.83042 17.8815 4.11657 17.6705 4.32755C17.4595 4.53853 17.1734 4.65705 16.875 4.65705H8.80875C8.57632 5.31578 8.14529 5.88619 7.57508 6.28967C7.00486 6.69314 6.32353 6.90981 5.625 6.90981C4.92647 6.90981 4.24514 6.69314 3.67492 6.28967C3.10471 5.88619 2.67368 5.31578 2.44125 4.65705H1.125C0.826631 4.65705 0.540484 4.53853 0.329505 4.32755C0.118527 4.11657 0 3.83042 0 3.53205C0 3.23369 0.118527 2.94754 0.329505 2.73656C0.540484 2.52558 0.826631 2.40705 1.125 2.40705H2.44125ZM12.375 9.15705C12.0766 9.15705 11.7905 9.27558 11.5795 9.48656C11.3685 9.69754 11.25 9.98369 11.25 10.2821C11.25 10.5804 11.3685 10.8666 11.5795 11.0775C11.7905 11.2885 12.0766 11.4071 12.375 11.4071C12.6734 11.4071 12.9595 11.2885 13.1705 11.0775C13.3815 10.8666 13.5 10.5804 13.5 10.2821C13.5 9.98369 13.3815 9.69754 13.1705 9.48656C12.9595 9.27558 12.6734 9.15705 12.375 9.15705ZM9.19125 9.15705C9.42368 8.49833 9.85471 7.92792 10.4249 7.52444C10.9951 7.12097 11.6765 6.9043 12.375 6.9043C13.0735 6.9043 13.7549 7.12097 14.3251 7.52444C14.8953 7.92792 15.3263 8.49833 15.5588 9.15705H16.875C17.1734 9.15705 17.4595 9.27558 17.6705 9.48656C17.8815 9.69754 18 9.98369 18 10.2821C18 10.5804 17.8815 10.8666 17.6705 11.0775C17.4595 11.2885 17.1734 11.4071 16.875 11.4071H15.5588C15.3263 12.0658 14.8953 12.6362 14.3251 13.0397C13.7549 13.4431 13.0735 13.6598 12.375 13.6598C11.6765 13.6598 10.9951 13.4431 10.4249 13.0397C9.85471 12.6362 9.42368 12.0658 9.19125 11.4071H1.125C0.826631 11.4071 0.540484 11.2885 0.329505 11.0775C0.118527 10.8666 0 10.5804 0 10.2821C0 9.98369 0.118527 9.69754 0.329505 9.48656C0.540484 9.27558 0.826631 9.15705 1.125 9.15705H9.19125ZM5.625 15.9071C5.32663 15.9071 5.04048 16.0256 4.8295 16.2366C4.61853 16.4475 4.5 16.7337 4.5 17.0321C4.5 17.3304 4.61853 17.6166 4.8295 17.8276C5.04048 18.0385 5.32663 18.1571 5.625 18.1571C5.92337 18.1571 6.20952 18.0385 6.4205 17.8276C6.63147 17.6166 6.75 17.3304 6.75 17.0321C6.75 16.7337 6.63147 16.4475 6.4205 16.2366C6.20952 16.0256 5.92337 15.9071 5.625 15.9071ZM2.44125 15.9071C2.67368 15.2483 3.10471 14.6779 3.67492 14.2744C4.24514 13.871 4.92647 13.6543 5.625 13.6543C6.32353 13.6543 7.00486 13.871 7.57508 14.2744C8.14529 14.6779 8.57632 15.2483 8.80875 15.9071H16.875C17.1734 15.9071 17.4595 16.0256 17.6705 16.2366C17.8815 16.4475 18 16.7337 18 17.0321C18 17.3304 17.8815 17.6166 17.6705 17.8276C17.4595 18.0385 17.1734 18.1571 16.875 18.1571H8.80875C8.57632 18.8158 8.14529 19.3862 7.57508 19.7897C7.00486 20.1931 6.32353 20.4098 5.625 20.4098C4.92647 20.4098 4.24514 20.1931 3.67492 19.7897C3.10471 19.3862 2.67368 18.8158 2.44125 18.1571H1.125C0.826631 18.1571 0.540484 18.0385 0.329505 17.8276C0.118527 17.6166 0 17.3304 0 17.0321C0 16.7337 0.118527 16.4475 0.329505 16.2366C0.540484 16.0256 0.826631 15.9071 1.125 15.9071H2.44125Z" fill="#333333"/>
</svg>
