<svg width="41" height="35" viewBox="0 0 41 35" fill="none" xmlns="http://www.w3.org/2000/svg">
<path d="M16 33C24.836 33 32 26.732 32 19C32 11.268 24.836 5 16 5C7.164 5 0 11.268 0 19C0 22.52 1.486 25.74 3.94 28.2C3.746 30.232 3.106 32.46 2.398 34.132C2.24 34.504 2.546 34.92 2.944 34.856C7.456 34.116 10.138 32.98 11.304 32.388C12.8358 32.7966 14.4146 33.0023 16 33V33Z" fill="white"/>
<circle cx="32" cy="9" r="8.5" fill="#FC0000" stroke="white"/>
<path d="M27.4939 6.75V5.71H29.5739V13H28.4239V6.75H27.4939ZM35.06 7.4C34.9867 7.09333 34.8534 6.86333 34.66 6.71C34.4667 6.55667 34.1967 6.48 33.85 6.48C33.3234 6.48 32.93 6.68333 32.67 7.09C32.41 7.49 32.2734 8.15667 32.26 9.09C32.4334 8.79667 32.6867 8.57 33.02 8.41C33.3534 8.25 33.7134 8.17 34.1 8.17C34.54 8.17 34.9267 8.26667 35.26 8.46C35.6 8.64667 35.8634 8.92 36.05 9.28C36.2434 9.64 36.34 10.07 36.34 10.57C36.34 11.0367 36.2467 11.4533 36.06 11.82C35.88 12.1867 35.61 12.4767 35.25 12.69C34.89 12.8967 34.4567 13 33.95 13C33.2634 13 32.7234 12.85 32.33 12.55C31.9434 12.2433 31.67 11.8133 31.51 11.26C31.3567 10.7067 31.28 10.0167 31.28 9.19C31.28 6.75 32.14 5.53 33.86 5.53C34.5267 5.53 35.05 5.71 35.43 6.07C35.8167 6.43 36.0434 6.87333 36.11 7.4H35.06ZM33.85 9.13C33.4434 9.13 33.0967 9.25333 32.81 9.5C32.53 9.74 32.39 10.09 32.39 10.55C32.39 11.01 32.52 11.3767 32.78 11.65C33.0467 11.9167 33.4167 12.05 33.89 12.05C34.31 12.05 34.64 11.92 34.88 11.66C35.1267 11.4 35.25 11.0533 35.25 10.62C35.25 10.1667 35.13 9.80667 34.89 9.54C34.6567 9.26667 34.31 9.13 33.85 9.13Z" fill="white"/>
</svg>
