<svg width="39" height="38" viewBox="0 0 39 38" fill="none" xmlns="http://www.w3.org/2000/svg">
<path d="M28.667 6.16699H3.33366C1.75033 6.16699 0.166992 7.59199 0.166992 9.33366V14.0995C0.166992 15.2395 0.847826 16.2212 1.75033 16.7753V34.667C1.75033 36.4087 3.49199 37.8337 4.91699 37.8337H27.0837C28.5087 37.8337 30.2503 36.4087 30.2503 34.667V16.7753C31.1528 16.2212 31.8337 15.2395 31.8337 14.0995V9.33366C31.8337 7.59199 30.2503 6.16699 28.667 6.16699ZM20.7503 25.167H11.2503V22.0003H20.7503V25.167ZM28.667 14.0837H3.33366V9.33366L28.667 9.30199V14.0837Z" fill="white"/>
<circle cx="30" cy="9" r="8.5" fill="#FC0000" stroke="white"/>
<path d="M24.7255 7.51C24.7655 6.89 25.0022 6.40667 25.4355 6.06C25.8755 5.71333 26.4355 5.54 27.1155 5.54C27.5822 5.54 27.9855 5.62333 28.3255 5.79C28.6655 5.95667 28.9222 6.18333 29.0955 6.47C29.2688 6.75667 29.3555 7.08 29.3555 7.44C29.3555 7.85333 29.2455 8.20667 29.0255 8.5C28.8055 8.79333 28.5422 8.99 28.2355 9.09V9.13C28.6288 9.25 28.9355 9.47 29.1555 9.79C29.3755 10.1033 29.4855 10.5067 29.4855 11C29.4855 11.3933 29.3955 11.7433 29.2155 12.05C29.0355 12.3567 28.7688 12.6 28.4155 12.78C28.0622 12.9533 27.6388 13.04 27.1455 13.04C26.4255 13.04 25.8322 12.8567 25.3655 12.49C24.9055 12.1167 24.6588 11.5833 24.6255 10.89H25.7255C25.7522 11.2433 25.8888 11.5333 26.1355 11.76C26.3822 11.98 26.7155 12.09 27.1355 12.09C27.5422 12.09 27.8555 11.98 28.0755 11.76C28.2955 11.5333 28.4055 11.2433 28.4055 10.89C28.4055 10.4233 28.2555 10.0933 27.9555 9.9C27.6622 9.7 27.2088 9.6 26.5955 9.6H26.3355V8.66H26.6055C27.1455 8.65333 27.5555 8.56333 27.8355 8.39C28.1222 8.21667 28.2655 7.94333 28.2655 7.57C28.2655 7.25 28.1622 6.99667 27.9555 6.81C27.7488 6.61667 27.4555 6.52 27.0755 6.52C26.7022 6.52 26.4122 6.61667 26.2055 6.81C25.9988 6.99667 25.8755 7.23 25.8355 7.51H24.7255ZM31.313 11.45C31.953 10.8967 32.4563 10.4433 32.823 10.09C33.1963 9.73 33.5063 9.35667 33.753 8.97C33.9997 8.58333 34.123 8.19667 34.123 7.81C34.123 7.41 34.0263 7.09667 33.833 6.87C33.6463 6.64333 33.3497 6.53 32.943 6.53C32.5497 6.53 32.243 6.65667 32.023 6.91C31.8097 7.15667 31.6963 7.49 31.683 7.91H30.583C30.603 7.15 30.8297 6.57 31.263 6.17C31.703 5.76333 32.2597 5.56 32.933 5.56C33.6597 5.56 34.2263 5.76 34.633 6.16C35.0463 6.56 35.253 7.09333 35.253 7.76C35.253 8.24 35.1297 8.70333 34.883 9.15C34.643 9.59 34.353 9.98667 34.013 10.34C33.6797 10.6867 33.253 11.09 32.733 11.55L32.283 11.95H35.453V12.9H30.593V12.07L31.313 11.45Z" fill="white"/>
</svg>
