<svg width="41" height="36" viewBox="0 0 41 36" fill="none" xmlns="http://www.w3.org/2000/svg">
<path d="M24.7236 25.113V14.6626C24.7163 12.3205 23.1529 8.83366 18.8757 8.83366V5.91699L13.0423 10.292L18.8757 14.667V11.7503C21.5429 11.7503 21.7938 13.9947 21.8069 14.667V25.113C19.7069 25.7459 18.1611 27.6753 18.1611 29.9795C18.1611 32.7941 20.4507 35.0837 23.2652 35.0837C26.0798 35.0837 28.3694 32.7941 28.3694 29.9795C28.3694 27.6753 26.8236 25.7459 24.7236 25.113ZM23.2652 32.167C22.0592 32.167 21.0777 31.1855 21.0777 29.9795C21.0777 28.7734 22.0592 27.792 23.2652 27.792C24.4713 27.792 25.4527 28.7734 25.4527 29.9795C25.4527 31.1855 24.4713 32.167 23.2652 32.167ZM10.8548 11.0212C10.8548 8.20658 8.56523 5.91699 5.75065 5.91699C2.93607 5.91699 0.646484 8.20658 0.646484 11.0212C0.646484 13.3253 2.19232 15.2547 4.29232 15.8876V25.113C2.19232 25.7459 0.646484 27.6753 0.646484 29.9795C0.646484 32.7941 2.93607 35.0837 5.75065 35.0837C8.56523 35.0837 10.8548 32.7941 10.8548 29.9795C10.8548 27.6753 9.30898 25.7459 7.20898 25.113V15.8876C9.30898 15.2547 10.8548 13.3253 10.8548 11.0212ZM3.56315 11.0212C3.56315 9.81512 4.54461 8.83366 5.75065 8.83366C6.95669 8.83366 7.93815 9.81512 7.93815 11.0212C7.93815 12.2272 6.95669 13.2087 5.75065 13.2087C4.54461 13.2087 3.56315 12.2272 3.56315 11.0212ZM7.93815 29.9795C7.93815 31.1855 6.95669 32.167 5.75065 32.167C4.54461 32.167 3.56315 31.1855 3.56315 29.9795C3.56315 28.7734 4.54461 27.792 5.75065 27.792C6.95669 27.792 7.93815 28.7734 7.93815 29.9795Z" fill="white"/>
<circle cx="32" cy="9" r="8.5" fill="#FC0000" stroke="white"/>
<path d="M29.6113 7.51C29.6513 6.89 29.8879 6.40667 30.3213 6.06C30.7613 5.71333 31.3213 5.54 32.0013 5.54C32.4679 5.54 32.8713 5.62333 33.2113 5.79C33.5513 5.95667 33.8079 6.18333 33.9813 6.47C34.1546 6.75667 34.2413 7.08 34.2413 7.44C34.2413 7.85333 34.1313 8.20667 33.9113 8.5C33.6913 8.79333 33.4279 8.99 33.1213 9.09V9.13C33.5146 9.25 33.8213 9.47 34.0413 9.79C34.2613 10.1033 34.3713 10.5067 34.3713 11C34.3713 11.3933 34.2813 11.7433 34.1013 12.05C33.9213 12.3567 33.6546 12.6 33.3013 12.78C32.9479 12.9533 32.5246 13.04 32.0313 13.04C31.3113 13.04 30.7179 12.8567 30.2513 12.49C29.7913 12.1167 29.5446 11.5833 29.5113 10.89H30.6113C30.6379 11.2433 30.7746 11.5333 31.0213 11.76C31.2679 11.98 31.6013 12.09 32.0213 12.09C32.4279 12.09 32.7413 11.98 32.9613 11.76C33.1813 11.5333 33.2913 11.2433 33.2913 10.89C33.2913 10.4233 33.1413 10.0933 32.8413 9.9C32.5479 9.7 32.0946 9.6 31.4813 9.6H31.2213V8.66H31.4913C32.0313 8.65333 32.4413 8.56333 32.7213 8.39C33.0079 8.21667 33.1513 7.94333 33.1513 7.57C33.1513 7.25 33.0479 6.99667 32.8413 6.81C32.6346 6.61667 32.3413 6.52 31.9613 6.52C31.5879 6.52 31.2979 6.61667 31.0913 6.81C30.8846 6.99667 30.7613 7.23 30.7213 7.51H29.6113Z" fill="white"/>
</svg>
