<svg width="50" height="40" viewBox="0 0 50 40" fill="none" xmlns="http://www.w3.org/2000/svg">
<path d="M33.0833 8.16699H4.58333C3.70888 8.16699 3 8.87587 3 9.75033V30.3337C3 31.2081 3.70888 31.917 4.58333 31.917H33.0833C33.9578 31.917 34.6667 31.2081 34.6667 30.3337V9.75033C34.6667 8.87587 33.9578 8.16699 33.0833 8.16699Z" stroke="white" stroke-width="3.16667" stroke-linecap="round" stroke-linejoin="round"/>
<path d="M10.916 5V11.3333" stroke="white" stroke-width="3.16667" stroke-linecap="round"/>
<path d="M19.6243 18.458H10.916" stroke="white" stroke-width="3.16667" stroke-linecap="round"/>
<path d="M26.7493 24.792H10.916" stroke="white" stroke-width="3.16667" stroke-linecap="round"/>
<path d="M26.75 5V11.3333" stroke="white" stroke-width="3.16667" stroke-linecap="round"/>
<circle cx="41" cy="9" r="8.5" fill="#FC0000" stroke="white"/>
<path d="M36.1509 11.45C36.7909 10.8967 37.2942 10.4433 37.6609 10.09C38.0342 9.73 38.3442 9.35667 38.5909 8.97C38.8376 8.58333 38.9609 8.19667 38.9609 7.81C38.9609 7.41 38.8642 7.09667 38.6709 6.87C38.4842 6.64333 38.1876 6.53 37.7809 6.53C37.3876 6.53 37.0809 6.65667 36.8609 6.91C36.6476 7.15667 36.5342 7.49 36.5209 7.91H35.4209C35.4409 7.15 35.6676 6.57 36.1009 6.17C36.5409 5.76333 37.0976 5.56 37.7709 5.56C38.4976 5.56 39.0642 5.76 39.4709 6.16C39.8842 6.56 40.0909 7.09333 40.0909 7.76C40.0909 8.24 39.9676 8.70333 39.7209 9.15C39.4809 9.59 39.1909 9.98667 38.8509 10.34C38.5176 10.6867 38.0909 11.09 37.5709 11.55L37.1209 11.95H40.2909V12.9H35.4309V12.07L36.1509 11.45ZM45.9924 6.69H42.6424V8.68C42.7824 8.49333 42.989 8.33667 43.2624 8.21C43.5424 8.08333 43.839 8.02 44.1524 8.02C44.7124 8.02 45.1657 8.14 45.5124 8.38C45.8657 8.62 46.1157 8.92333 46.2624 9.29C46.4157 9.65667 46.4924 10.0433 46.4924 10.45C46.4924 10.9433 46.3957 11.3833 46.2024 11.77C46.0157 12.15 45.7324 12.45 45.3524 12.67C44.979 12.89 44.519 13 43.9724 13C43.2457 13 42.6624 12.82 42.2224 12.46C41.7824 12.1 41.519 11.6233 41.4324 11.03H42.5424C42.6157 11.3433 42.779 11.5933 43.0324 11.78C43.2857 11.96 43.6024 12.05 43.9824 12.05C44.4557 12.05 44.809 11.9067 45.0424 11.62C45.2824 11.3333 45.4024 10.9533 45.4024 10.48C45.4024 10 45.2824 9.63333 45.0424 9.38C44.8024 9.12 44.449 8.99 43.9824 8.99C43.6557 8.99 43.379 9.07333 43.1524 9.24C42.9324 9.4 42.7724 9.62 42.6724 9.9H41.5924V5.69H45.9924V6.69Z" fill="white"/>
</svg>
