<svg width="19" height="25" viewBox="0 0 19 25" fill="none" xmlns="http://www.w3.org/2000/svg">
<path fill-rule="evenodd" clip-rule="evenodd" d="M12.1591 13.7612C13.1986 14.8007 13.4191 16.3487 12.8183 17.6031L14.5452 19.3299C14.7501 19.5421 14.8635 19.8263 14.8609 20.1213C14.8584 20.4162 14.7401 20.6984 14.5315 20.907C14.3229 21.1156 14.0407 21.2339 13.7458 21.2364C13.4508 21.239 13.1666 21.1256 12.9544 20.9207L11.2276 19.1938C10.5091 19.5361 9.69283 19.6135 8.92282 19.4125C8.15281 19.2115 7.47855 18.745 7.01905 18.0952C6.55955 17.4455 6.34435 16.6543 6.41143 15.8613C6.47851 15.0683 6.82356 14.3245 7.38568 13.7612C7.69908 13.4477 8.07117 13.1991 8.48068 13.0294C8.89019 12.8598 9.32911 12.7725 9.77237 12.7725C10.2156 12.7725 10.6545 12.8598 11.0641 13.0294C11.4736 13.1991 11.8456 13.4477 12.1591 13.7612ZM10.5683 16.9438C10.6758 16.84 10.7615 16.7159 10.8204 16.5786C10.8794 16.4414 10.9104 16.2938 10.9117 16.1444C10.913 15.995 10.8845 15.8469 10.828 15.7086C10.7714 15.5703 10.6879 15.4447 10.5822 15.3391C10.4766 15.2335 10.351 15.1499 10.2128 15.0934C10.0745 15.0368 9.92635 15.0083 9.77698 15.0096C9.6276 15.0109 9.47998 15.042 9.34272 15.1009C9.20547 15.1599 9.08133 15.2456 8.97755 15.3531C8.77263 15.5652 8.65923 15.8494 8.66179 16.1444C8.66436 16.4393 8.78267 16.7215 8.99126 16.9301C9.19984 17.1387 9.48201 17.257 9.77698 17.2596C10.0719 17.2621 10.3561 17.1487 10.5683 16.9438Z" fill="#0A1E5C"/>
<path d="M5 4.625H14V6.875H5V4.625ZM14 9.125H5V11.375H14V9.125Z" fill="#0A1E5C"/>
<path fill-rule="evenodd" clip-rule="evenodd" d="M0.5 3.5C0.5 2.60489 0.855579 1.74645 1.48851 1.11351C2.12145 0.480579 2.97989 0.125 3.875 0.125H15.125C16.0201 0.125 16.8786 0.480579 17.5115 1.11351C18.1444 1.74645 18.5 2.60489 18.5 3.5V21.5C18.5 22.3951 18.1444 23.2536 17.5115 23.8865C16.8786 24.5194 16.0201 24.875 15.125 24.875H3.875C2.97989 24.875 2.12145 24.5194 1.48851 23.8865C0.855579 23.2536 0.5 22.3951 0.5 21.5V3.5ZM3.875 2.375H15.125C15.4234 2.375 15.7095 2.49353 15.9205 2.7045C16.1315 2.91548 16.25 3.20163 16.25 3.5V21.5C16.25 21.7984 16.1315 22.0845 15.9205 22.2955C15.7095 22.5065 15.4234 22.625 15.125 22.625H3.875C3.57663 22.625 3.29048 22.5065 3.07951 22.2955C2.86853 22.0845 2.75 21.7984 2.75 21.5V3.5C2.75 3.20163 2.86853 2.91548 3.07951 2.7045C3.29048 2.49353 3.57663 2.375 3.875 2.375Z" fill="#0A1E5C"/>
</svg>
