<svg width="27" height="22" viewBox="0 0 27 22" fill="none" xmlns="http://www.w3.org/2000/svg">
<path d="M21.6 9.45V12.15H27V9.45H21.6ZM18.9 18.3735C20.196 19.332 21.8835 20.601 23.22 21.6C23.76 20.8845 24.3 20.1555 24.84 19.44C23.5035 18.441 21.816 17.172 20.52 16.2C19.98 16.929 19.44 17.658 18.9 18.3735ZM24.84 2.16C24.3 1.4445 23.76 0.7155 23.22 0C21.8835 0.999 20.196 2.268 18.9 3.24C19.44 3.9555 19.98 4.6845 20.52 5.4C21.816 4.428 23.5035 3.1725 24.84 2.16ZM2.7 6.75C1.215 6.75 0 7.965 0 9.45V12.15C0 13.635 1.215 14.85 2.7 14.85H4.05V20.25H6.75V14.85H8.1L14.85 18.9V2.7L8.1 6.75H2.7ZM18.225 10.8C18.225 9.0045 17.442 7.3845 16.2 6.2775V15.309C17.442 14.2155 18.225 12.5955 18.225 10.8Z" fill="#0A1E5C"/>
</svg>
