<svg width="22" height="22" viewBox="0 0 22 22" fill="none" xmlns="http://www.w3.org/2000/svg">
<path d="M0 2.75206C0 2.02217 0.289731 1.32217 0.805456 0.80606C1.32118 0.289948 2.02065 0 2.75 0L19.25 0C19.9793 0 20.6788 0.289948 21.1945 0.80606C21.7103 1.32217 22 2.02217 22 2.75206V13.7603C22 14.4902 21.7103 15.1902 21.1945 15.7063C20.6788 16.2224 19.9793 16.5124 19.25 16.5124H6.06925C5.70461 16.5124 5.35493 16.6575 5.09713 16.9155L1.17425 20.8413C1.07818 20.9377 0.955695 21.0034 0.8223 21.0301C0.688904 21.0568 0.550594 21.0433 0.424874 20.9913C0.299155 20.9393 0.191678 20.8511 0.116046 20.738C0.0404148 20.6248 2.88955e-05 20.4917 0 20.3556L0 2.75206ZM4.8125 4.12809C4.63016 4.12809 4.4553 4.20058 4.32636 4.3296C4.19743 4.45863 4.125 4.63363 4.125 4.8161C4.125 4.99858 4.19743 5.17358 4.32636 5.3026C4.4553 5.43163 4.63016 5.50412 4.8125 5.50412H17.1875C17.3698 5.50412 17.5447 5.43163 17.6736 5.3026C17.8026 5.17358 17.875 4.99858 17.875 4.8161C17.875 4.63363 17.8026 4.45863 17.6736 4.3296C17.5447 4.20058 17.3698 4.12809 17.1875 4.12809H4.8125ZM4.8125 7.56816C4.63016 7.56816 4.4553 7.64065 4.32636 7.76968C4.19743 7.89871 4.125 8.07371 4.125 8.25618C4.125 8.43865 4.19743 8.61365 4.32636 8.74268C4.4553 8.87171 4.63016 8.94419 4.8125 8.94419H17.1875C17.3698 8.94419 17.5447 8.87171 17.6736 8.74268C17.8026 8.61365 17.875 8.43865 17.875 8.25618C17.875 8.07371 17.8026 7.89871 17.6736 7.76968C17.5447 7.64065 17.3698 7.56816 17.1875 7.56816H4.8125ZM4.8125 11.0082C4.63016 11.0082 4.4553 11.0807 4.32636 11.2098C4.19743 11.3388 4.125 11.5138 4.125 11.6963C4.125 11.8787 4.19743 12.0537 4.32636 12.1828C4.4553 12.3118 4.63016 12.3843 4.8125 12.3843H11.6875C11.8698 12.3843 12.0447 12.3118 12.1736 12.1828C12.3026 12.0537 12.375 11.8787 12.375 11.6963C12.375 11.5138 12.3026 11.3388 12.1736 11.2098C12.0447 11.0807 11.8698 11.0082 11.6875 11.0082H4.8125Z" fill="#0A1E5C"/>
</svg>
