<svg width="23" height="23" viewBox="0 0 23 23" fill="none" xmlns="http://www.w3.org/2000/svg">
<path d="M19.3773 15.001V7.11843C19.3715 5.35183 18.1309 2.72173 14.7366 2.72173V0.521729L10.1074 3.82173L14.7366 7.12173V4.92173C16.8533 4.92173 17.0523 6.61463 17.0627 7.12173V15.001C15.3962 15.4784 14.1695 16.9337 14.1695 18.6717C14.1695 20.7947 15.9864 22.5217 18.22 22.5217C20.4536 22.5217 22.2705 20.7947 22.2705 18.6717C22.2705 16.9337 21.0438 15.4784 19.3773 15.001V15.001ZM18.22 20.3217C17.2629 20.3217 16.4841 19.5814 16.4841 18.6717C16.4841 17.762 17.2629 17.0217 18.22 17.0217C19.1771 17.0217 19.9559 17.762 19.9559 18.6717C19.9559 19.5814 19.1771 20.3217 18.22 20.3217ZM8.37151 4.37173C8.37151 2.24873 6.55457 0.521729 4.32101 0.521729C2.08745 0.521729 0.270508 2.24873 0.270508 4.37173C0.270508 6.10973 1.49723 7.56503 3.16372 8.04243V15.001C1.49723 15.4784 0.270508 16.9337 0.270508 18.6717C0.270508 20.7947 2.08745 22.5217 4.32101 22.5217C6.55457 22.5217 8.37151 20.7947 8.37151 18.6717C8.37151 16.9337 7.14478 15.4784 5.47829 15.001V8.04243C7.14478 7.56503 8.37151 6.10973 8.37151 4.37173ZM2.58508 4.37173C2.58508 3.46203 3.36393 2.72173 4.32101 2.72173C5.27808 2.72173 6.05694 3.46203 6.05694 4.37173C6.05694 5.28143 5.27808 6.02173 4.32101 6.02173C3.36393 6.02173 2.58508 5.28143 2.58508 4.37173ZM6.05694 18.6717C6.05694 19.5814 5.27808 20.3217 4.32101 20.3217C3.36393 20.3217 2.58508 19.5814 2.58508 18.6717C2.58508 17.762 3.36393 17.0217 4.32101 17.0217C5.27808 17.0217 6.05694 17.762 6.05694 18.6717Z" fill="#0A1E5C"/>
</svg>
