<svg width="35" height="33" viewBox="0 0 35 33" fill="none" xmlns="http://www.w3.org/2000/svg">
<path d="M22.3773 22.001V14.1184C22.3715 12.3518 21.1309 9.72173 17.7366 9.72173V7.52173L13.1074 10.8217L17.7366 14.1217V11.9217C19.8533 11.9217 20.0523 13.6146 20.0627 14.1217V22.001C18.3962 22.4784 17.1695 23.9337 17.1695 25.6717C17.1695 27.7947 18.9864 29.5217 21.22 29.5217C23.4536 29.5217 25.2705 27.7947 25.2705 25.6717C25.2705 23.9337 24.0438 22.4784 22.3773 22.001ZM21.22 27.3217C20.2629 27.3217 19.4841 26.5814 19.4841 25.6717C19.4841 24.762 20.2629 24.0217 21.22 24.0217C22.1771 24.0217 22.9559 24.762 22.9559 25.6717C22.9559 26.5814 22.1771 27.3217 21.22 27.3217ZM11.3715 11.3717C11.3715 9.24873 9.55457 7.52173 7.32101 7.52173C5.08745 7.52173 3.27051 9.24873 3.27051 11.3717C3.27051 13.1097 4.49723 14.565 6.16372 15.0424V22.001C4.49723 22.4784 3.27051 23.9337 3.27051 25.6717C3.27051 27.7947 5.08745 29.5217 7.32101 29.5217C9.55457 29.5217 11.3715 27.7947 11.3715 25.6717C11.3715 23.9337 10.1448 22.4784 8.47829 22.001V15.0424C10.1448 14.565 11.3715 13.1097 11.3715 11.3717ZM5.58508 11.3717C5.58508 10.462 6.36393 9.72173 7.32101 9.72173C8.27808 9.72173 9.05694 10.462 9.05694 11.3717C9.05694 12.2814 8.27808 13.0217 7.32101 13.0217C6.36393 13.0217 5.58508 12.2814 5.58508 11.3717ZM9.05694 25.6717C9.05694 26.5814 8.27808 27.3217 7.32101 27.3217C6.36393 27.3217 5.58508 26.5814 5.58508 25.6717C5.58508 24.762 6.36393 24.0217 7.32101 24.0217C8.27808 24.0217 9.05694 24.762 9.05694 25.6717Z" fill="#0A1E5C"/>
</svg>
