<svg width="30" height="28" viewBox="0 0 30 28" fill="none" xmlns="http://www.w3.org/2000/svg">
<path d="M15 12.7107C16.6577 12.7107 18.2474 13.3195 19.4195 14.403C20.5916 15.4866 21.2501 16.9562 21.2501 18.4886V25.4221H8.75002V18.4886C8.75002 16.9562 9.40851 15.4866 10.5806 14.403C11.7527 13.3195 13.3424 12.7107 15 12.7107ZM6.61002 16.1844C6.41109 16.8047 6.29358 17.4448 6.26001 18.0911L6.25001 18.4886V25.4221H2.5V20.222C2.49975 19.2254 2.89754 18.2638 3.61705 17.5216C4.33656 16.7795 5.32713 16.309 6.39876 16.2006L6.61126 16.1844H6.61002ZM23.3901 16.1844C24.5025 16.2471 25.5471 16.6997 26.3108 17.45C27.0746 18.2003 27.4999 19.1917 27.5001 20.222V25.4221H23.7501V18.4886C23.7501 17.6878 23.6251 16.9147 23.3901 16.1844ZM6.87502 9.244C7.70382 9.244 8.49868 9.54837 9.08473 10.0901C9.67079 10.6319 10 11.3667 10 12.1329C10 12.8991 9.67079 13.6339 9.08473 14.1757C8.49868 14.7175 7.70382 15.0219 6.87502 15.0219C6.04621 15.0219 5.25135 14.7175 4.6653 14.1757C4.07925 13.6339 3.75 12.8991 3.75 12.1329C3.75 11.3667 4.07925 10.6319 4.6653 10.0901C5.25135 9.54837 6.04621 9.244 6.87502 9.244V9.244ZM23.1251 9.244C23.9539 9.244 24.7487 9.54837 25.3348 10.0901C25.9208 10.6319 26.2501 11.3667 26.2501 12.1329C26.2501 12.8991 25.9208 13.6339 25.3348 14.1757C24.7487 14.7175 23.9539 15.0219 23.1251 15.0219C22.2963 15.0219 21.5014 14.7175 20.9154 14.1757C20.3293 13.6339 20.0001 12.8991 20.0001 12.1329C20.0001 11.3667 20.3293 10.6319 20.9154 10.0901C21.5014 9.54837 22.2963 9.244 23.1251 9.244V9.244ZM15 2.31055C16.3261 2.31055 17.5979 2.79754 18.5356 3.66439C19.4733 4.53124 20.0001 5.70694 20.0001 6.93285C20.0001 8.15876 19.4733 9.33446 18.5356 10.2013C17.5979 11.0682 16.3261 11.5551 15 11.5551C13.674 11.5551 12.4022 11.0682 11.4645 10.2013C10.5268 9.33446 10 8.15876 10 6.93285C10 5.70694 10.5268 4.53124 11.4645 3.66439C12.4022 2.79754 13.674 2.31055 15 2.31055V2.31055Z" fill="#0A1E5C"/>
</svg>
