<svg width="32" height="26" viewBox="0 0 32 26" fill="none" xmlns="http://www.w3.org/2000/svg">
<path d="M25.4993 11.4173V14.584H31.8327V11.4173H25.4993ZM22.3327 21.8832C23.8527 23.0073 25.8318 24.4957 27.3993 25.6673C28.0327 24.8282 28.666 23.9732 29.2993 23.134C27.7318 21.9623 25.7527 20.474 24.2327 19.334C23.5993 20.189 22.966 21.044 22.3327 21.8832ZM29.2993 2.86732C28.666 2.02815 28.0327 1.17315 27.3993 0.333984C25.8318 1.50565 23.8527 2.99398 22.3327 4.13398C22.966 4.97315 23.5993 5.82815 24.2327 6.66732C25.7527 5.52732 27.7318 4.05482 29.2993 2.86732ZM3.33268 8.25065C1.59102 8.25065 0.166016 9.67565 0.166016 11.4173V14.584C0.166016 16.3257 1.59102 17.7507 3.33268 17.7507H4.91602V24.084H8.08268V17.7507H9.66602L17.5827 22.5007V3.50065L9.66602 8.25065H3.33268ZM21.541 13.0007C21.541 10.8948 20.6227 8.99482 19.166 7.69648V18.289C20.6227 17.0065 21.541 15.1065 21.541 13.0007Z" fill="white"/>
</svg>
