<svg width="28" height="32" viewBox="0 0 28 32" fill="none" xmlns="http://www.w3.org/2000/svg">
<path d="M20.2222 23.889V19.2223H9.33333V13.0001H20.2222V8.33344L28 16.1112L20.2222 23.889ZM17.1111 0.555664C17.9362 0.555664 18.7276 0.883441 19.311 1.46689C19.8944 2.05033 20.2222 2.84166 20.2222 3.66678V6.77789H17.1111V3.66678H3.11111V28.5557H17.1111V25.4446H20.2222V28.5557C20.2222 29.3808 19.8944 30.1721 19.311 30.7556C18.7276 31.339 17.9362 31.6668 17.1111 31.6668H3.11111C2.28599 31.6668 1.49467 31.339 0.911223 30.7556C0.327777 30.1721 0 29.3808 0 28.5557V3.66678C0 2.84166 0.327777 2.05033 0.911223 1.46689C1.49467 0.883441 2.28599 0.555664 3.11111 0.555664H17.1111Z" fill="white"/>
</svg>
