<svg width="24" height="29" viewBox="0 0 24 29" fill="none" xmlns="http://www.w3.org/2000/svg">
<path d="M22.0842 22.9286C22.0839 22.9286 22.0836 22.9286 22.0833 22.9286H21.4175V12.5714V12.5712C21.415 10.208 20.5215 7.93991 18.9295 6.26523C17.3373 4.59012 15.1753 3.64531 12.9174 3.64264H12.9171L11.0837 3.64264L11.0834 3.64264C8.82567 3.6453 6.66378 4.59007 5.07137 6.26522C3.47936 7.93968 2.58589 10.2078 2.58336 12.5712V12.5714V22.9286H1.91667C1.49347 22.9286 1.10906 23.166 0.903597 23.5405C0.698802 23.9137 0.6988 24.372 0.903597 24.7453C1.10906 25.1197 1.49348 25.3571 1.91667 25.3571H7.35531C7.591 26.156 8.0548 26.8634 8.68793 27.3814L8.68797 27.3814C9.37125 27.9402 10.2132 28.2466 11.0823 28.25H11.0833L12.9167 28.25L12.9177 28.25C13.7868 28.2465 14.6287 27.9402 15.312 27.3814L15.3121 27.3814C15.9452 26.8634 16.409 26.1561 16.6447 25.3571H22.0833C22.5065 25.3571 22.8909 25.1197 23.0964 24.7453C23.3012 24.372 23.3012 23.9137 23.0964 23.5405C22.8911 23.1662 22.507 22.9289 22.0842 22.9286ZM14.0095 25.3571C13.7188 25.6512 13.3302 25.8198 12.922 25.8214C12.695 25.8125 12.4446 25.8197 12.195 25.8269C12.1276 25.8289 12.0602 25.8308 11.9934 25.8324C11.6704 25.8403 11.3508 25.8412 11.0504 25.806C10.6112 25.7546 10.2393 25.6303 9.97106 25.3571H14.0095ZM15.6674 22.9286H4.91715L4.91715 12.5717C4.91715 12.5717 4.91715 12.5716 4.91715 12.5716C4.91937 10.8443 5.57262 9.19098 6.73022 7.97327C7.88745 6.75595 9.4535 6.0737 11.0843 6.07143H12.917C14.5478 6.0737 16.1138 6.75595 17.271 7.97327C18.4287 9.19102 19.0819 10.8445 19.0841 12.5717V22.9286H15.6674ZM13.834 0.75H10.1673C9.74407 0.75 9.35965 0.987432 9.15418 1.36188C8.94939 1.73511 8.94939 2.19346 9.15418 2.56669C9.35965 2.94114 9.74406 3.17857 10.1673 3.17857H13.834C14.2572 3.17857 14.6416 2.94114 14.8471 2.56669C15.0519 2.19346 15.0519 1.73512 14.8471 1.36188C14.6416 0.987426 14.2572 0.75 13.834 0.75Z" fill="white" stroke="white" stroke-width="0.5"/>
</svg>
