<svg width="22" height="22" viewBox="0 0 22 22" fill="none" xmlns="http://www.w3.org/2000/svg">
<path d="M19.1068 14.4793V6.5967C19.101 4.8301 17.8604 2.2 14.4661 2.2V0L9.83693 3.3L14.4661 6.6V4.4C16.5827 4.4 16.7818 6.0929 16.7922 6.6V14.4793C15.1257 14.9567 13.899 16.412 13.899 18.15C13.899 20.273 15.7159 22 17.9495 22C20.1831 22 22 20.273 22 18.15C22 16.412 20.7733 14.9567 19.1068 14.4793ZM17.9495 19.8C16.9924 19.8 16.2136 19.0597 16.2136 18.15C16.2136 17.2403 16.9924 16.5 17.9495 16.5C18.9066 16.5 19.6854 17.2403 19.6854 18.15C19.6854 19.0597 18.9066 19.8 17.9495 19.8ZM8.101 3.85C8.101 1.727 6.28406 0 4.0505 0C1.81694 0 0 1.727 0 3.85C0 5.588 1.22672 7.0433 2.89321 7.5207V14.4793C1.22672 14.9567 0 16.412 0 18.15C0 20.273 1.81694 22 4.0505 22C6.28406 22 8.101 20.273 8.101 18.15C8.101 16.412 6.87428 14.9567 5.20779 14.4793V7.5207C6.87428 7.0433 8.101 5.588 8.101 3.85ZM2.31457 3.85C2.31457 2.9403 3.09342 2.2 4.0505 2.2C5.00757 2.2 5.78643 2.9403 5.78643 3.85C5.78643 4.7597 5.00757 5.5 4.0505 5.5C3.09342 5.5 2.31457 4.7597 2.31457 3.85ZM5.78643 18.15C5.78643 19.0597 5.00757 19.8 4.0505 19.8C3.09342 19.8 2.31457 19.0597 2.31457 18.15C2.31457 17.2403 3.09342 16.5 4.0505 16.5C5.00757 16.5 5.78643 17.2403 5.78643 18.15Z" fill="white"/>
</svg>
