<svg width="21" height="21" viewBox="0 0 21 21" fill="none" xmlns="http://www.w3.org/2000/svg">
<path fill-rule="evenodd" clip-rule="evenodd" d="M17.3125 17.5C17.8927 17.5 18.4491 17.2695 18.8593 16.8593C19.2695 16.4491 19.5 15.8927 19.5 15.3125C19.5 14.7323 19.2695 14.1759 18.8593 13.7657C18.4491 13.3555 17.8927 13.125 17.3125 13.125C16.7323 13.125 16.1759 13.3555 15.7657 13.7657C15.3555 14.1759 15.125 14.7323 15.125 15.3125C15.125 15.8927 15.3555 16.4491 15.7657 16.8593C16.1759 17.2695 16.7323 17.5 17.3125 17.5ZM17.3125 18.375C18.1247 18.375 18.9037 18.0523 19.478 17.478C20.0523 16.9037 20.375 16.1247 20.375 15.3125C20.375 14.5003 20.0523 13.7213 19.478 13.147C18.9037 12.5727 18.1247 12.25 17.3125 12.25C16.5003 12.25 15.7213 12.5727 15.147 13.147C14.5727 13.7213 14.25 14.5003 14.25 15.3125C14.25 16.1247 14.5727 16.9037 15.147 17.478C15.7213 18.0523 16.5003 18.375 17.3125 18.375Z" fill="#0A1E5C"/>
<path fill-rule="evenodd" clip-rule="evenodd" d="M17.3125 13.7812C17.4285 13.7812 17.5398 13.8273 17.6219 13.9094C17.7039 13.9914 17.75 14.1027 17.75 14.2187V15.1314L18.0593 15.4407C18.139 15.5232 18.1831 15.6337 18.1821 15.7484C18.1811 15.8631 18.1351 15.9729 18.054 16.054C17.9729 16.1351 17.8631 16.1811 17.7484 16.1821C17.6337 16.1831 17.5232 16.139 17.4407 16.0593L16.875 15.4936V14.2187C16.875 14.1027 16.9211 13.9914 17.0031 13.9094C17.0852 13.8273 17.1965 13.7812 17.3125 13.7812ZM8.125 10.0625H7.25V10.9375H8.125V10.0625ZM7.25 9.1875C7.01794 9.1875 6.79538 9.27969 6.63128 9.44378C6.46719 9.60788 6.375 9.83044 6.375 10.0625V10.9375C6.375 11.1696 6.46719 11.3921 6.63128 11.5562C6.79538 11.7203 7.01794 11.8125 7.25 11.8125H8.125C8.35706 11.8125 8.57962 11.7203 8.74372 11.5562C8.90781 11.3921 9 11.1696 9 10.9375V10.0625C9 9.83044 8.90781 9.60788 8.74372 9.44378C8.57962 9.27969 8.35706 9.1875 8.125 9.1875H7.25ZM11.625 10.0625H10.75V10.9375H11.625V10.0625ZM10.75 9.1875C10.5179 9.1875 10.2954 9.27969 10.1313 9.44378C9.96719 9.60788 9.875 9.83044 9.875 10.0625V10.9375C9.875 11.1696 9.96719 11.3921 10.1313 11.5562C10.2954 11.7203 10.5179 11.8125 10.75 11.8125H11.625C11.8571 11.8125 12.0796 11.7203 12.2437 11.5562C12.4078 11.3921 12.5 11.1696 12.5 10.9375V10.0625C12.5 9.83044 12.4078 9.60788 12.2437 9.44378C12.0796 9.27969 11.8571 9.1875 11.625 9.1875H10.75ZM15.125 10.0625H14.25V10.9375H15.125V10.0625ZM14.25 9.1875C14.0179 9.1875 13.7954 9.27969 13.6313 9.44378C13.4672 9.60788 13.375 9.83044 13.375 10.0625V10.9375C13.375 11.1696 13.4672 11.3921 13.6313 11.5562C13.7954 11.7203 14.0179 11.8125 14.25 11.8125H15.125C15.3571 11.8125 15.5796 11.7203 15.7437 11.5562C15.9078 11.3921 16 11.1696 16 10.9375V10.0625C16 9.83044 15.9078 9.60788 15.7437 9.44378C15.5796 9.27969 15.3571 9.1875 15.125 9.1875H14.25ZM8.125 13.5625H7.25V14.4375H8.125V13.5625ZM7.25 12.6875C7.01794 12.6875 6.79538 12.7797 6.63128 12.9438C6.46719 13.1079 6.375 13.3304 6.375 13.5625V14.4375C6.375 14.6696 6.46719 14.8921 6.63128 15.0562C6.79538 15.2203 7.01794 15.3125 7.25 15.3125H8.125C8.35706 15.3125 8.57962 15.2203 8.74372 15.0562C8.90781 14.8921 9 14.6696 9 14.4375V13.5625C9 13.3304 8.90781 13.1079 8.74372 12.9438C8.57962 12.7797 8.35706 12.6875 8.125 12.6875H7.25ZM11.625 13.5625H10.75V14.4375H11.625V13.5625ZM10.75 12.6875C10.5179 12.6875 10.2954 12.7797 10.1313 12.9438C9.96719 13.1079 9.875 13.3304 9.875 13.5625V14.4375C9.875 14.6696 9.96719 14.8921 10.1313 15.0562C10.2954 15.2203 10.5179 15.3125 10.75 15.3125H11.625C11.8571 15.3125 12.0796 15.2203 12.2437 15.0562C12.4078 14.8921 12.5 14.6696 12.5 14.4375V13.5625C12.5 13.3304 12.4078 13.1079 12.2437 12.9438C12.0796 12.7797 11.8571 12.6875 11.625 12.6875H10.75Z" fill="#0A1E5C"/>
<path fill-rule="evenodd" clip-rule="evenodd" d="M5.5 5.25C5.5 5.13397 5.54609 5.02269 5.62814 4.94064C5.71019 4.85859 5.82147 4.8125 5.9375 4.8125H8.125V3.9375H5.9375C5.5894 3.9375 5.25556 4.07578 5.00942 4.32192C4.76328 4.56806 4.625 4.9019 4.625 5.25V15.75C4.625 16.0981 4.76328 16.4319 5.00942 16.6781C5.25556 16.9242 5.5894 17.0625 5.9375 17.0625H14.7991C14.6125 16.7953 14.47 16.4998 14.3769 16.1875H5.9375C5.82147 16.1875 5.71019 16.1414 5.62814 16.0594C5.54609 15.9773 5.5 15.866 5.5 15.75V5.25ZM16.875 12.2806C17.1652 12.2391 17.4598 12.2391 17.75 12.2806V5.25C17.75 4.9019 17.6117 4.56806 17.3656 4.32192C17.1194 4.07578 16.7856 3.9375 16.4375 3.9375H15.125V4.8125H16.4375C16.5535 4.8125 16.6648 4.85859 16.7469 4.94064C16.8289 5.02269 16.875 5.13397 16.875 5.25V12.2806ZM9 4.8125H13.6213V3.9375H9V4.8125Z" fill="#0A1E5C"/>
<path fill-rule="evenodd" clip-rule="evenodd" d="M17.75 7.875H5.5V7H17.75V7.875Z" fill="#0A1E5C"/>
<path d="M7.25 3.0625C7.25 2.94647 7.29609 2.83519 7.37814 2.75314C7.46019 2.67109 7.57147 2.625 7.6875 2.625C7.80353 2.625 7.91481 2.67109 7.99686 2.75314C8.07891 2.83519 8.125 2.94647 8.125 3.0625V5.25C8.125 5.36603 8.07891 5.47731 7.99686 5.55936C7.91481 5.64141 7.80353 5.6875 7.6875 5.6875C7.57147 5.6875 7.46019 5.64141 7.37814 5.55936C7.29609 5.47731 7.25 5.36603 7.25 5.25V3.0625ZM13.375 3.0625C13.375 2.94647 13.4211 2.83519 13.5031 2.75314C13.5852 2.67109 13.6965 2.625 13.8125 2.625C13.9285 2.625 14.0398 2.67109 14.1219 2.75314C14.2039 2.83519 14.25 2.94647 14.25 3.0625V5.25C14.25 5.36603 14.2039 5.47731 14.1219 5.55936C14.0398 5.64141 13.9285 5.6875 13.8125 5.6875C13.6965 5.6875 13.5852 5.64141 13.5031 5.55936C13.4211 5.47731 13.375 5.36603 13.375 5.25V3.0625Z" fill="#0A1E5C"/>
</svg>
