<svg width="21" height="20" viewBox="0 0 21 20" fill="none" xmlns="http://www.w3.org/2000/svg">
<path d="M20.752 10.1072C20.752 10.7381 20.2405 11.2496 19.6096 11.2496H12.9256C12.2947 11.2496 11.7832 11.761 11.7832 12.3919V18.8534C11.7832 19.4844 11.2717 19.9958 10.6408 19.9958H10.3631C9.73216 19.9958 9.2207 19.4844 9.2207 18.8534V12.3919C9.2207 11.761 8.70925 11.2496 8.07834 11.2496H1.39432C0.763408 11.2496 0.251953 10.7381 0.251953 10.1072V9.893C0.251953 9.26209 0.763408 8.75064 1.39432 8.75064H8.07834C8.70925 8.75064 9.2207 8.23918 9.2207 7.60827V1.14676C9.2207 0.515849 9.73216 0.00439453 10.3631 0.00439453H10.6408C11.2717 0.00439453 11.7832 0.515849 11.7832 1.14676V7.60827C11.7832 8.23918 12.2947 8.75064 12.9256 8.75064H19.6096C20.2405 8.75064 20.752 9.26209 20.752 9.893V10.1072Z" fill="#0A1E5C"/>
</svg>
