<svg width="21" height="23" viewBox="0 0 21 23" fill="none" xmlns="http://www.w3.org/2000/svg">
<path d="M11.1953 0.926396H11.1977L19.7297 5.70033C20.1648 5.94687 20.4297 6.38746 20.4297 6.85177V15.793C20.4297 16.4658 20.0531 17.1141 19.4031 17.472L11.1664 22.0763C10.932 22.2092 10.662 22.2795 10.3867 22.2795C10.1114 22.2795 9.84146 22.2092 9.60703 22.0763L1.36797 17.4706C1.05519 17.2953 0.796687 17.0489 0.617318 16.7551C0.437948 16.4613 0.34374 16.13 0.34375 15.793V6.85177C0.34375 6.39465 0.603125 5.94543 1.05312 5.70177L9.59297 0.922084C9.83523 0.788306 10.1126 0.717996 10.3952 0.718756C10.6777 0.719516 10.9547 0.791317 11.1961 0.926396H11.1953ZM10.3906 2.15833L2.75234 6.43274L5.49453 7.97446L13.143 3.69718L10.3906 2.15833ZM15.7148 5.13612L8.05469 9.41412L10.3984 10.7309L18.1367 6.49168L15.7148 5.13612ZM1.90625 15.7923C1.90625 15.9792 2.01328 16.1495 2.17969 16.2422L9.61172 20.3966V11.9736L7.1875 10.6116V11.8967C7.1875 12.0692 6.98437 12.1698 6.82812 12.0907L4.73437 10.9192C4.70089 10.8987 4.67339 10.8709 4.65432 10.8383C4.63525 10.8057 4.62518 10.7693 4.625 10.7323V9.17118L1.90625 7.64312V15.7923ZM18.5937 16.2422L18.6 16.2394C18.6825 16.1922 18.7504 16.1263 18.7972 16.048C18.844 15.9697 18.8681 15.8817 18.8672 15.7923V7.76387L11.1734 11.9793V20.3901L18.5937 16.2422Z" fill="#0A1E5C"/>
</svg>
