<svg width="7" height="7" viewBox="0 0 7 7" fill="none" xmlns="http://www.w3.org/2000/svg">
<path fill-rule="evenodd" clip-rule="evenodd" d="M6.64022 0.95689C6.67942 0.917743 6.71052 0.87126 6.73175 0.820093C6.75298 0.768927 6.76393 0.714079 6.76396 0.658683C6.76399 0.603287 6.75312 0.548426 6.73195 0.497234C6.71078 0.446041 6.67974 0.399519 6.64059 0.360324C6.60144 0.321128 6.55496 0.290028 6.50379 0.268797C6.45263 0.247566 6.39778 0.236621 6.34238 0.236587C6.28699 0.236553 6.23213 0.247431 6.18093 0.268599C6.12974 0.289766 6.08322 0.32081 6.04402 0.359957L3.50009 2.90389L0.95689 0.359957C0.877732 0.280799 0.77037 0.236328 0.658424 0.236328C0.546477 0.236328 0.439115 0.280799 0.359957 0.359957C0.280799 0.439115 0.236328 0.546477 0.236328 0.658424C0.236328 0.77037 0.280799 0.877732 0.359957 0.95689L2.90389 3.50009L0.359957 6.04329C0.320762 6.08249 0.28967 6.12902 0.268458 6.18023C0.247246 6.23144 0.236328 6.28633 0.236328 6.34176C0.236328 6.39719 0.247246 6.45207 0.268458 6.50328C0.28967 6.5545 0.320762 6.60103 0.359957 6.64022C0.439115 6.71938 0.546477 6.76385 0.658424 6.76385C0.713854 6.76385 0.768742 6.75293 0.819953 6.73172C0.871164 6.71051 0.917695 6.67942 0.95689 6.64022L3.50009 4.09629L6.04402 6.64022C6.12318 6.71928 6.23051 6.76366 6.34238 6.76359C6.45426 6.76352 6.56153 6.71901 6.64059 6.63986C6.71965 6.5607 6.76403 6.45338 6.76396 6.3415C6.76389 6.22962 6.71938 6.12235 6.64022 6.04329L4.09629 3.50009L6.64022 0.95689Z" fill="#ABABAB"/>
</svg>
