<svg width="28" height="28" viewBox="0 0 28 28" fill="none" xmlns="http://www.w3.org/2000/svg">
<path d="M28 14C28 21.732 21.732 28 14 28C6.26801 28 0 21.732 0 14C0 6.26801 6.26801 0 14 0C21.732 0 28 6.26801 28 14Z" fill="#FFBF5F"/>
<path d="M16.1418 20.9753C16.1418 22.209 15.1549 23.2205 13.8966 23.2205C12.6383 23.2205 11.6514 22.209 11.6514 20.9753C11.6514 19.7417 12.6383 18.7301 13.8966 18.7301C15.1549 18.7301 16.1418 19.7417 16.1418 20.9753ZM14.9255 16.4849H12.8442C12.5357 16.4849 12.2817 16.2423 12.2676 15.9341L11.827 6.30669C11.812 5.97789 12.0745 5.70312 12.4036 5.70312H15.3881C15.7178 5.70312 15.9805 5.97875 15.9646 6.308L15.502 15.9355C15.4873 16.2431 15.2335 16.4849 14.9255 16.4849Z" fill="white"/>
</svg>
