<svg width="361" height="367" viewBox="0 0 361 367" fill="none" xmlns="http://www.w3.org/2000/svg">
<path d="M206.21 326.439V322.439H202.21H8H4V326.439V359V363H8H202.21H206.21V359V326.439ZM214.531 9.17997L211.693 6.32529L208.856 9.18097L185.972 32.2177L184.24 33.961L185.012 36.2938L189.952 51.2171L91.4267 150.313L75.3451 146.276L73.1393 145.722L71.5354 147.334L48.6348 170.355L45.8295 173.175L48.6338 175.996L174.514 302.625L177.35 305.477L180.187 302.626L203.087 279.605L204.677 278.007L204.133 275.819L200.097 259.577L234.578 224.891L323.279 314.135L326.115 316.989L328.952 314.135L351.837 291.114L354.64 288.294L351.837 285.474L263.088 196.198L298.616 160.502L313.416 165.474L315.775 166.266L317.528 164.5L340.413 141.447L343.212 138.627L340.411 135.809L214.531 9.17997ZM223.135 75.2413L274.707 127.134L165.909 236.563L114.338 184.67L223.135 75.2413Z" fill="white" stroke="white" stroke-width="8"/>
</svg>
