<svg width="27" height="24" viewBox="0 0 27 24" fill="none" xmlns="http://www.w3.org/2000/svg">
<path d="M13.3936 0C10.1573 0 7.5339 2.62338 7.5339 5.8597C7.5339 8.4761 11.3636 13.2448 12.8309 14.9757C13.128 15.3264 13.6596 15.3264 13.9563 14.9757C15.4236 13.2448 19.2533 8.4761 19.2533 5.8597C19.2533 2.62338 16.6299 0 13.3936 0V0ZM13.3936 7.81293C12.3147 7.81293 11.4404 6.93862 11.4404 5.8597C11.4404 4.78077 12.3147 3.90646 13.3936 3.90646C14.4725 3.90646 15.3468 4.78077 15.3468 5.8597C15.3468 6.93862 14.4725 7.81293 13.3936 7.81293ZM0.935691 10.0429C0.659531 10.1533 0.422796 10.344 0.256017 10.5903C0.0892388 10.8365 6.61405e-05 11.1271 0 11.4245L0 23.0658C0 23.5923 0.531558 23.9522 1.02033 23.7569L7.44088 20.8345V9.99497C7.02978 9.25181 6.69354 8.52818 6.45264 7.83618L0.935691 10.0429ZM13.3936 16.7266C12.7393 16.7266 12.1203 16.4392 11.6957 15.9379C10.7814 14.859 9.80895 13.6303 8.92906 12.37V20.834L17.8581 23.8104V12.3705C16.9782 13.6303 16.0063 14.8594 15.0915 15.9384C14.6669 16.4392 14.0479 16.7266 13.3936 16.7266ZM25.7669 7.49483L19.3463 10.4172V23.8108L25.8515 21.2088C26.1277 21.0984 26.3645 20.9078 26.5312 20.6615C26.698 20.4152 26.7872 20.1246 26.7872 19.8272V8.1859C26.7872 7.65946 26.2556 7.29951 25.7669 7.49483Z" fill="#0A1E5C"/>
</svg>
