<svg width="170" height="170" viewBox="0 0 170 170" fill="none" xmlns="http://www.w3.org/2000/svg">
<path d="M85 76.5C96.2717 76.5 107.082 80.9777 115.052 88.948C123.022 96.9183 127.5 107.728 127.5 119V170H42.5V119C42.5 107.728 46.9777 96.9183 54.948 88.948C62.9183 80.9777 73.7283 76.5 85 76.5ZM27.948 102.051C26.5953 106.614 25.7962 111.322 25.568 116.076L25.5 119V170H7.76194e-07V131.75C-0.00167286 124.419 2.70324 117.346 7.59589 111.887C12.4885 106.428 19.2244 102.968 26.5115 102.17L27.9565 102.051H27.948ZM142.052 102.051C149.616 102.512 156.72 105.842 161.913 111.36C167.107 116.879 169.999 124.172 170 131.75V170H144.5V119C144.5 113.109 143.65 107.423 142.052 102.051ZM29.75 51C35.3859 51 40.7909 53.2388 44.776 57.224C48.7612 61.2091 51 66.6141 51 72.25C51 77.8859 48.7612 83.2909 44.776 87.276C40.7909 91.2612 35.3859 93.5 29.75 93.5C24.1141 93.5 18.7091 91.2612 14.724 87.276C10.7388 83.2909 8.5 77.8859 8.5 72.25C8.5 66.6141 10.7388 61.2091 14.724 57.224C18.7091 53.2388 24.1141 51 29.75 51V51ZM140.25 51C145.886 51 151.291 53.2388 155.276 57.224C159.261 61.2091 161.5 66.6141 161.5 72.25C161.5 77.8859 159.261 83.2909 155.276 87.276C151.291 91.2612 145.886 93.5 140.25 93.5C134.614 93.5 129.209 91.2612 125.224 87.276C121.239 83.2909 119 77.8859 119 72.25C119 66.6141 121.239 61.2091 125.224 57.224C129.209 53.2388 134.614 51 140.25 51V51ZM85 0C94.0174 0 102.665 3.58213 109.042 9.95837C115.418 16.3346 119 24.9826 119 34C119 43.0174 115.418 51.6654 109.042 58.0416C102.665 64.4179 94.0174 68 85 68C75.9826 68 67.3346 64.4179 60.9584 58.0416C54.5821 51.6654 51 43.0174 51 34C51 24.9826 54.5821 16.3346 60.9584 9.95837C67.3346 3.58213 75.9826 0 85 0V0Z" fill="white"/>
</svg>
