<svg width="30" height="28" viewBox="0 0 30 28" fill="none" xmlns="http://www.w3.org/2000/svg">
<path d="M14.194 1.40776C14.4529 0.634201 15.5471 0.634198 15.806 1.40775L18.6225 9.82105C18.7385 10.1676 19.0631 10.4012 19.4286 10.4012H28.4876C29.3172 10.4012 29.6554 11.4678 28.9775 11.9459L21.6926 17.083C21.3858 17.2994 21.2572 17.6914 21.3764 18.0475L24.1692 26.39C24.4299 27.1687 23.5444 27.8277 22.8734 27.3545L15.4899 22.1479C15.1961 21.9407 14.8039 21.9407 14.5101 22.1479L7.12664 27.3545C6.45557 27.8277 5.57008 27.1687 5.83075 26.39L8.62356 18.0475C8.74275 17.6914 8.61422 17.2994 8.30738 17.083L1.0225 11.9459C0.344561 11.4678 0.682804 10.4012 1.51235 10.4012H10.5714C10.9369 10.4012 11.2615 10.1676 11.3775 9.82105L14.194 1.40776Z" fill="#3C4F76"/>
</svg>
