<svg width="26" height="25" viewBox="0 0 26 25" fill="none" xmlns="http://www.w3.org/2000/svg">
<path d="M18.4167 5.94884C18.4167 8.65556 15.117 13.4791 13.6681 15.4224C13.3205 15.9429 12.6795 15.9429 12.3319 15.4224C10.883 13.4791 7.58333 8.65556 7.58333 5.94884C7.58333 2.66359 10.0073 0 13 0C15.9927 0 18.4167 2.66359 18.4167 5.94884ZM13 7.5352C13.9976 7.5352 14.8056 6.64783 14.8056 5.55225C14.8056 4.45717 13.9976 3.5693 13 3.5693C12.0024 3.5693 11.1944 4.45717 11.1944 5.55225C11.1944 6.64783 12.0024 7.5352 13 7.5352ZM19.2111 8.91335C19.2337 8.85386 19.2563 8.79437 19.2788 8.72992L24.5149 6.4297C25.2281 6.11739 26 6.69245 26 7.5352V20.9597C26 21.4456 25.7292 21.8818 25.3184 22.0652L18.7778 24.9356V9.93456C18.9358 9.5925 19.0802 9.2554 19.2111 8.91335ZM6.78889 8.91335C6.91979 9.2554 7.06424 9.5925 7.22222 9.93456V22.3974L1.48552 24.9207C0.774132 25.1884 0 24.6579 0 23.8152V10.3906C0 9.90482 0.269705 9.42395 0.681146 9.28515L6.21111 6.85604C6.31944 7.55998 6.54062 8.25897 6.78889 8.91335ZM14.7965 16.4138C15.424 15.5959 16.408 14.1929 17.3333 12.6413V25L8.66667 22.2784V12.6413C9.59201 14.1929 10.576 15.5959 11.2035 16.4138C12.1288 17.7275 13.8712 17.7275 14.7965 16.4138Z" fill="#3C4F76"/>
</svg>
