<svg width="31" height="29" viewBox="0 0 31 29" fill="none" xmlns="http://www.w3.org/2000/svg">
<path d="M31 27.8042C31 27.4451 30.7794 27.1406 30.4694 26.971C30.5732 26.8047 30.6388 26.6147 30.6388 26.4064C30.6388 25.7965 30.1124 25.3015 29.465 25.3015C29.4407 25.3015 29.4149 25.3083 29.3901 25.3112V25.1744C29.3901 24.8627 29.1204 24.6089 28.7887 24.6089C28.7045 24.6089 28.6269 24.6297 28.5546 24.6601V24.2604H29.4753V21.6756H28.8083V19.5218H29.4753V16.9365H28.8083V14.7823H29.4753V12.1969H28.8083V10.0427H29.4753V7.45783H28.8083V5.30362H29.4753V1.42632H23.3771V0H7.11502V1.85697H5.52678V1.42632H0.921217V22.968H0V24.2604H0.921217V29H1.52468H1.84192H5.63683H6.0977H7.47927H7.94013H9.3217H9.78257H12.4356H14.7384H31V28.5249H30.6605C30.8672 28.3456 31 28.0899 31 27.8042ZM19.343 5.3041H21.6458V7.45832H19.343V5.3041ZM19.343 10.0427H21.6458V12.1969H19.343V10.0427ZM19.343 14.7823H21.6458V16.9365H19.343V14.7823ZM19.343 19.5218H21.6458V21.6761H19.343V19.5218ZM14.7374 5.3041H17.0402V7.45832H14.7374V5.3041ZM14.7374 10.0427H17.0402V12.1969H14.7374V10.0427ZM14.7374 14.7823H17.0402V16.9365H14.7374V14.7823ZM14.7374 19.5218H17.0402V21.6761H14.7374V19.5218ZM7.47927 28.5249H6.0977V25.1227H7.47927V28.5249ZM9.32118 28.5249H7.93962V25.1227H9.32118V28.5249ZM12.4346 28.5249H9.78153V25.1227V24.6916H9.32067H7.9391H7.47823H6.09667H5.63683V25.1227V28.5249H1.84192V24.2609H5.52627H12.4346V28.5249ZM12.4346 19.5218V21.6761V22.9685H5.52627V18.8756H12.4346V19.5218ZM12.4346 14.7823V16.9365V17.5827H5.52627V14.136H12.4346V14.7823ZM12.4346 10.0427V12.1969V12.8431H5.52627V9.39648H12.4346V10.0427ZM12.4346 5.3041V7.45832V8.10453H5.52627V4.65788H12.4346V5.3041ZM12.4346 3.36497H5.52627V2.28762H12.4346V3.36497ZM14.7374 28.5249H13.2132V28.0498H14.7374V24.2609H17.0402V28.0498H19.343V24.2609H21.6458V28.0498H23.7537C23.8581 28.2794 24.0684 28.4524 24.3267 28.5249H14.7374ZM23.949 25.7438V24.2609H26.2518V24.9216C26.196 24.911 26.1428 24.8936 26.0829 24.8936C25.7238 24.8936 25.4169 25.0932 25.2712 25.3803C25.1493 25.3421 25.0196 25.316 24.8832 25.316C24.5034 25.316 24.1686 25.4852 23.949 25.7438ZM24.6445 27.7192C24.4786 27.7192 24.3458 27.8753 24.3458 27.7192C24.3458 27.5616 24.4786 27.4359 24.6445 27.4359C24.8129 27.4359 24.9462 27.5616 24.9462 27.7192C24.9462 27.8753 24.8129 27.7192 24.6445 27.7192ZM24.9669 26.1976C24.6341 26.1976 24.3645 26.6926 24.3645 26.3769C24.3645 26.0642 24.6341 25.81 24.9669 25.81C25.3032 25.81 25.5714 26.0637 25.5714 26.3769C25.5714 26.6931 25.3038 26.1976 24.9669 26.1976ZM26.2761 27.7172C25.9444 27.7172 25.6747 28.1517 25.6747 27.8385C25.6747 27.5287 25.9444 27.274 26.2761 27.274C26.6104 27.274 26.8744 27.5287 26.8744 27.8385C26.8749 28.1517 26.6109 27.7172 26.2761 27.7172ZM27.0325 25.4586C27.0325 25.2459 27.2133 25.0758 27.4376 25.0758C27.6644 25.0758 27.8452 25.2459 27.8452 25.4586C27.8452 25.6693 27.6644 25.3523 27.4376 25.3523C27.2133 25.3523 27.0325 25.6689 27.0325 25.4586ZM27.7393 26.854C27.5735 26.854 27.4407 27.0106 27.4407 26.854C27.4407 26.6998 27.5735 26.5737 27.7393 26.5737C27.9088 26.5737 28.041 26.6998 28.041 26.854C28.041 27.0106 27.9093 26.854 27.7393 26.854ZM28.0462 21.6761H23.4406V19.5218H28.0462V21.6761ZM28.0462 16.9365H23.4406V14.7823H28.0462V16.9365ZM28.0462 12.1969H23.4406V10.0427H28.0462V12.1969ZM28.0462 7.45832H23.4406V5.3041H28.0462V7.45832ZM28.5603 27.8709C28.3355 27.8709 28.1552 28.1875 28.1552 27.9773C28.1552 27.7646 28.3361 27.5945 28.5603 27.5945C28.7871 27.5945 28.9669 27.7646 28.9669 27.9773C28.9669 28.1875 28.7876 27.8709 28.5603 27.8709ZM28.6652 26.0401C28.4988 26.0401 28.3665 26.245 28.3665 26.0889C28.3665 25.9294 28.4988 25.8047 28.6652 25.8047C28.829 25.8047 28.9669 25.9294 28.9669 26.0889C28.9669 26.245 28.8295 26.0401 28.6652 26.0401ZM29.3839 26.9057C29.3839 26.7501 29.5172 26.623 29.6856 26.623C29.8514 26.623 29.9837 26.7501 29.9837 26.9057C29.9837 27.0618 29.8514 26.8598 29.6856 26.8598C29.5172 26.8598 29.3839 27.0618 29.3839 26.9057ZM29.9605 27.9115C29.7941 27.9115 29.6577 28.071 29.6577 27.9115C29.6577 27.7578 29.7941 27.6297 29.9605 27.6297C30.1253 27.6297 30.2591 27.7578 30.2591 27.9115C30.2591 28.071 30.1258 27.9115 29.9605 27.9115Z" fill="#3C4F76"/>
</svg>
