<svg width="27" height="28" viewBox="0 0 27 28" fill="none" xmlns="http://www.w3.org/2000/svg">
<path d="M24.0862 13.5275L13.9612 3.4025C13.5562 2.9975 12.9938 2.75 12.375 2.75H4.5C3.2625 2.75 2.25 3.7625 2.25 5V12.875C2.25 13.4938 2.4975 14.0563 2.91375 14.4725L13.0388 24.5975C13.4438 25.0025 14.0062 25.25 14.625 25.25C15.2438 25.25 15.8062 25.0025 16.2112 24.5862L24.0862 16.7112C24.5025 16.3062 24.75 15.7438 24.75 15.125C24.75 14.5062 24.4912 13.9325 24.0862 13.5275ZM14.625 23.0113L4.5 12.875V5H12.375V4.98875L22.5 15.1137L14.625 23.0113V23.0113Z" fill="#0A1E5C"/>
<path d="M7.3125 9.5C8.24448 9.5 9 8.74448 9 7.8125C9 6.88052 8.24448 6.125 7.3125 6.125C6.38052 6.125 5.625 6.88052 5.625 7.8125C5.625 8.74448 6.38052 9.5 7.3125 9.5Z" fill="#0A1E5C"/>
</svg>
