<svg width="23" height="23" viewBox="0 0 23 23" fill="none" xmlns="http://www.w3.org/2000/svg">
<path fill-rule="evenodd" clip-rule="evenodd" d="M18.326 21.4862C19.164 21.4862 19.9677 21.1533 20.5602 20.5607C21.1528 19.9681 21.4857 19.1645 21.4857 18.3264C21.4857 17.4884 21.1528 16.6847 20.5602 16.0922C19.9677 15.4996 19.164 15.1667 18.326 15.1667C17.4879 15.1667 16.6843 15.4996 16.0917 16.0922C15.4991 16.6847 15.1662 17.4884 15.1662 18.3264C15.1662 19.1645 15.4991 19.9681 16.0917 20.5607C16.6843 21.1533 17.4879 21.4862 18.326 21.4862ZM18.326 22.7501C19.4992 22.7501 20.6243 22.284 21.4539 21.4544C22.2835 20.6248 22.7496 19.4997 22.7496 18.3264C22.7496 17.1532 22.2835 16.0281 21.4539 15.1985C20.6243 14.3689 19.4992 13.9028 18.326 13.9028C17.1527 13.9028 16.0276 14.3689 15.198 15.1985C14.3684 16.0281 13.9023 17.1532 13.9023 18.3264C13.9023 19.4997 14.3684 20.6248 15.198 21.4544C16.0276 22.284 17.1527 22.7501 18.326 22.7501Z" fill="#315576"/>
<path fill-rule="evenodd" clip-rule="evenodd" d="M18.326 16.1144C18.4936 16.1144 18.6543 16.181 18.7728 16.2995C18.8913 16.418 18.9579 16.5788 18.9579 16.7464V18.0646L19.4047 18.5114C19.5198 18.6306 19.5835 18.7902 19.5821 18.9559C19.5806 19.1216 19.5142 19.2801 19.397 19.3973C19.2798 19.5144 19.1213 19.5809 18.9556 19.5823C18.7899 19.5838 18.6303 19.5201 18.5111 19.405L17.694 18.5879V16.7464C17.694 16.5788 17.7606 16.418 17.8791 16.2995C17.9976 16.181 18.1584 16.1144 18.326 16.1144ZM5.05512 10.7429H3.79123V12.0068H5.05512V10.7429ZM3.79123 9.479C3.45603 9.479 3.13455 9.61216 2.89753 9.84919C2.6605 10.0862 2.52734 10.4077 2.52734 10.7429V12.0068C2.52734 12.342 2.6605 12.6635 2.89753 12.9005C3.13455 13.1375 3.45603 13.2707 3.79123 13.2707H5.05512C5.39033 13.2707 5.7118 13.1375 5.94883 12.9005C6.18585 12.6635 6.31901 12.342 6.31901 12.0068V10.7429C6.31901 10.4077 6.18585 10.0862 5.94883 9.84919C5.7118 9.61216 5.39033 9.479 5.05512 9.479H3.79123ZM10.1107 10.7429H8.84679V12.0068H10.1107V10.7429ZM8.84679 9.479C8.51158 9.479 8.19011 9.61216 7.95308 9.84919C7.71606 10.0862 7.5829 10.4077 7.5829 10.7429V12.0068C7.5829 12.342 7.71606 12.6635 7.95308 12.9005C8.19011 13.1375 8.51158 13.2707 8.84679 13.2707H10.1107C10.4459 13.2707 10.7674 13.1375 11.0044 12.9005C11.2414 12.6635 11.3746 12.342 11.3746 12.0068V10.7429C11.3746 10.4077 11.2414 10.0862 11.0044 9.84919C10.7674 9.61216 10.4459 9.479 10.1107 9.479H8.84679ZM15.1662 10.7429H13.9023V12.0068H15.1662V10.7429ZM13.9023 9.479C13.5671 9.479 13.2457 9.61216 13.0086 9.84919C12.7716 10.0862 12.6385 10.4077 12.6385 10.7429V12.0068C12.6385 12.342 12.7716 12.6635 13.0086 12.9005C13.2457 13.1375 13.5671 13.2707 13.9023 13.2707H15.1662C15.5014 13.2707 15.8229 13.1375 16.0599 12.9005C16.297 12.6635 16.4301 12.342 16.4301 12.0068V10.7429C16.4301 10.4077 16.297 10.0862 16.0599 9.84919C15.8229 9.61216 15.5014 9.479 15.1662 9.479H13.9023ZM5.05512 15.7984H3.79123V17.0623H5.05512V15.7984ZM3.79123 14.5346C3.45603 14.5346 3.13455 14.6677 2.89753 14.9047C2.6605 15.1418 2.52734 15.4632 2.52734 15.7984V17.0623C2.52734 17.3975 2.6605 17.719 2.89753 17.956C3.13455 18.1931 3.45603 18.3262 3.79123 18.3262H5.05512C5.39033 18.3262 5.7118 18.1931 5.94883 17.956C6.18585 17.719 6.31901 17.3975 6.31901 17.0623V15.7984C6.31901 15.4632 6.18585 15.1418 5.94883 14.9047C5.7118 14.6677 5.39033 14.5346 5.05512 14.5346H3.79123ZM10.1107 15.7984H8.84679V17.0623H10.1107V15.7984ZM8.84679 14.5346C8.51158 14.5346 8.19011 14.6677 7.95308 14.9047C7.71606 15.1418 7.5829 15.4632 7.5829 15.7984V17.0623C7.5829 17.3975 7.71606 17.719 7.95308 17.956C8.19011 18.1931 8.51158 18.3262 8.84679 18.3262H10.1107C10.4459 18.3262 10.7674 18.1931 11.0044 17.956C11.2414 17.719 11.3746 17.3975 11.3746 17.0623V15.7984C11.3746 15.4632 11.2414 15.1418 11.0044 14.9047C10.7674 14.6677 10.4459 14.5346 10.1107 14.5346H8.84679Z" fill="#315576"/>
<path fill-rule="evenodd" clip-rule="evenodd" d="M1.26389 3.79183C1.26389 3.62423 1.33047 3.46349 1.44898 3.34498C1.56749 3.22646 1.72823 3.15989 1.89583 3.15989H5.05556V1.896H1.89583C1.39303 1.896 0.910815 2.09573 0.555277 2.45127C0.199739 2.80681 0 3.28902 0 3.79183V18.9585C0 19.4613 0.199739 19.9435 0.555277 20.2991C0.910815 20.6546 1.39303 20.8543 1.89583 20.8543H14.6959C14.4264 20.4683 14.2205 20.0416 14.086 19.5904H1.89583C1.72823 19.5904 1.56749 19.5239 1.44898 19.4053C1.33047 19.2868 1.26389 19.1261 1.26389 18.9585V3.79183ZM17.6944 13.9472C18.1136 13.8872 18.5392 13.8872 18.9583 13.9472V3.79183C18.9583 3.28902 18.7586 2.80681 18.4031 2.45127C18.0475 2.09573 17.5653 1.896 17.0625 1.896H15.1667V3.15989H17.0625C17.2301 3.15989 17.3908 3.22646 17.5094 3.34498C17.6279 3.46349 17.6944 3.62423 17.6944 3.79183V13.9472ZM6.31944 3.15989H12.9947V1.896H6.31944V3.15989Z" fill="#315576"/>
<path fill-rule="evenodd" clip-rule="evenodd" d="M18.9581 7.58322H1.26367V6.31934H18.9581V7.58322Z" fill="#315576"/>
<path d="M3.79199 0.631944C3.79199 0.464342 3.85857 0.303605 3.97708 0.185092C4.0956 0.0665798 4.25633 0 4.42394 0C4.59154 0 4.75228 0.0665798 4.87079 0.185092C4.9893 0.303605 5.05588 0.464342 5.05588 0.631944V3.79167C5.05588 3.95927 4.9893 4.12001 4.87079 4.23852C4.75228 4.35703 4.59154 4.42361 4.42394 4.42361C4.25633 4.42361 4.0956 4.35703 3.97708 4.23852C3.85857 4.12001 3.79199 3.95927 3.79199 3.79167V0.631944ZM12.6392 0.631944C12.6392 0.464342 12.7058 0.303605 12.8243 0.185092C12.9428 0.0665798 13.1036 0 13.2712 0C13.4388 0 13.5995 0.0665798 13.718 0.185092C13.8365 0.303605 13.9031 0.464342 13.9031 0.631944V3.79167C13.9031 3.95927 13.8365 4.12001 13.718 4.23852C13.5995 4.35703 13.4388 4.42361 13.2712 4.42361C13.1036 4.42361 12.9428 4.35703 12.8243 4.23852C12.7058 4.12001 12.6392 3.95927 12.6392 3.79167V0.631944Z" fill="#315576"/>
</svg>
