<svg width="32" height="26" viewBox="0 0 32 26" fill="none" xmlns="http://www.w3.org/2000/svg">
<path d="M25.4993 11.4163V14.583H31.8327V11.4163H25.4993ZM22.3327 21.8822C23.8527 23.0063 25.8318 24.4947 27.3993 25.6663C28.0327 24.8272 28.666 23.9722 29.2993 23.133C27.7318 21.9613 25.7527 20.473 24.2327 19.333C23.5993 20.188 22.966 21.043 22.3327 21.8822ZM29.2993 2.86634C28.666 2.02717 28.0327 1.17217 27.3993 0.333008C25.8318 1.50467 23.8527 2.99301 22.3327 4.13301C22.966 4.97217 23.5993 5.82717 24.2327 6.66634C25.7527 5.52634 27.7318 4.05384 29.2993 2.86634ZM3.33268 8.24967C1.59102 8.24967 0.166016 9.67467 0.166016 11.4163V14.583C0.166016 16.3247 1.59102 17.7497 3.33268 17.7497H4.91602V24.083H8.08268V17.7497H9.66602L17.5827 22.4997V3.49967L9.66602 8.24967H3.33268ZM21.541 12.9997C21.541 10.8938 20.6227 8.99384 19.166 7.69551V18.288C20.6227 17.0055 21.541 15.1055 21.541 12.9997Z" fill="white"/>
</svg>
