<svg width="29" height="29" viewBox="0 0 29 29" fill="none" xmlns="http://www.w3.org/2000/svg">
<circle cx="14.125" cy="14.125" r="13.6694" fill="white" stroke="#F4ECEC" stroke-width="0.91129"/>
<path d="M6 9.46439C6 8.93356 6.21071 8.42447 6.58579 8.04912C6.96086 7.67376 7.46957 7.46289 8 7.46289H20C20.5304 7.46289 21.0391 7.67376 21.4142 8.04912C21.7893 8.42447 22 8.93356 22 9.46439V17.4704C22 18.0012 21.7893 18.5103 21.4142 18.8857C21.0391 19.261 20.5304 19.4719 20 19.4719H10.414C10.1488 19.4719 9.89449 19.5774 9.707 19.7651L6.854 22.6202C6.78413 22.6903 6.69505 22.7381 6.59804 22.7575C6.50102 22.7769 6.40043 22.7671 6.309 22.7293C6.21757 22.6915 6.1394 22.6274 6.0844 22.5451C6.02939 22.4628 6.00002 22.366 6 22.267V9.46439ZM9.5 10.4651C9.36739 10.4651 9.24021 10.5179 9.14645 10.6117C9.05268 10.7055 9 10.8328 9 10.9655C9 11.0982 9.05268 11.2255 9.14645 11.3193C9.24021 11.4132 9.36739 11.4659 9.5 11.4659H18.5C18.6326 11.4659 18.7598 11.4132 18.8536 11.3193C18.9473 11.2255 19 11.0982 19 10.9655C19 10.8328 18.9473 10.7055 18.8536 10.6117C18.7598 10.5179 18.6326 10.4651 18.5 10.4651H9.5ZM9.5 12.967C9.36739 12.967 9.24021 13.0197 9.14645 13.1136C9.05268 13.2074 9 13.3347 9 13.4674C9 13.6001 9.05268 13.7274 9.14645 13.8212C9.24021 13.915 9.36739 13.9678 9.5 13.9678H18.5C18.6326 13.9678 18.7598 13.915 18.8536 13.8212C18.9473 13.7274 19 13.6001 19 13.4674C19 13.3347 18.9473 13.2074 18.8536 13.1136C18.7598 13.0197 18.6326 12.967 18.5 12.967H9.5ZM9.5 15.4689C9.36739 15.4689 9.24021 15.5216 9.14645 15.6154C9.05268 15.7093 9 15.8365 9 15.9693C9 16.102 9.05268 16.2292 9.14645 16.3231C9.24021 16.4169 9.36739 16.4696 9.5 16.4696H14.5C14.6326 16.4696 14.7598 16.4169 14.8536 16.3231C14.9473 16.2292 15 16.102 15 15.9693C15 15.8365 14.9473 15.7093 14.8536 15.6154C14.7598 15.5216 14.6326 15.4689 14.5 15.4689H9.5Z" fill="#575757"/>
</svg>
