<svg width="19" height="20" viewBox="0 0 19 20" fill="none" xmlns="http://www.w3.org/2000/svg">
<path fill-rule="evenodd" clip-rule="evenodd" d="M1.26389 2.79183C1.26389 2.62423 1.33047 2.46349 1.44898 2.34498C1.56749 2.22646 1.72823 2.15989 1.89583 2.15989H5.05556V0.895996H1.89583C1.39303 0.895996 0.910815 1.09573 0.555277 1.45127C0.199739 1.80681 0 2.28902 0 2.79183V17.9585C0 18.4613 0.199739 18.9435 0.555277 19.2991C0.910815 19.6546 1.39303 19.8543 1.89583 19.8543H14.6959C14.4264 19.4683 14.2205 19.0416 14.086 18.5904H1.89583C1.72823 18.5904 1.56749 18.5239 1.44898 18.4053C1.33047 18.2868 1.26389 18.1261 1.26389 17.9585V2.79183ZM17.6944 12.9472C18.1136 12.8872 18.5392 12.8872 18.9583 12.9472V2.79183C18.9583 2.28902 18.7586 1.80681 18.4031 1.45127C18.0475 1.09573 17.5653 0.895996 17.0625 0.895996H15.1667V2.15989H17.0625C17.2301 2.15989 17.3908 2.22646 17.5094 2.34498C17.6279 2.46349 17.6944 2.62423 17.6944 2.79183V12.9472ZM6.31944 2.15989H12.9947V0.895996H6.31944V2.15989Z" fill="#315576"/>
</svg>
