<svg width="21" height="21" viewBox="0 0 21 21" fill="none" xmlns="http://www.w3.org/2000/svg">
<path d="M18.0469 17.1445H2.95312C2.59014 17.1445 2.29688 17.4378 2.29688 17.8008V18.5391C2.29688 18.6293 2.3707 18.7031 2.46094 18.7031H18.5391C18.6293 18.7031 18.7031 18.6293 18.7031 18.5391V17.8008C18.7031 17.4378 18.4099 17.1445 18.0469 17.1445ZM5.28486 15.4219C5.32588 15.4219 5.36689 15.4178 5.40791 15.4116L8.85732 14.8066C8.89834 14.7984 8.9373 14.78 8.96602 14.7492L17.6593 6.05596C17.6783 6.03698 17.6934 6.01445 17.7037 5.98964C17.714 5.96483 17.7193 5.93824 17.7193 5.91138C17.7193 5.88452 17.714 5.85792 17.7037 5.83311C17.6934 5.80831 17.6783 5.78577 17.6593 5.7668L14.2509 2.35635C14.2119 2.31738 14.1606 2.29688 14.1053 2.29688C14.0499 2.29688 13.9986 2.31738 13.9597 2.35635L5.26641 11.0496C5.23564 11.0804 5.21719 11.1173 5.20898 11.1583L4.604 14.6077C4.58405 14.7176 4.59118 14.8306 4.62477 14.9371C4.65836 15.0436 4.7174 15.1403 4.79678 15.2188C4.93213 15.3501 5.10234 15.4219 5.28486 15.4219Z" fill="#0A1E5C"/>
</svg>
