<svg width="47" height="41" viewBox="0 0 47 41" fill="none" xmlns="http://www.w3.org/2000/svg">
<rect x="1.25893" y="1.25893" width="44.4821" height="37.7679" rx="8.8125" fill="white" stroke="#575757" stroke-width="2.51786"/>
<path d="M12 13.103C12 12.2801 12.3267 11.4908 12.9082 10.9089C13.4897 10.3269 14.2783 10 15.1007 10H33.705C34.5273 10 35.316 10.3269 35.8975 10.9089C36.479 11.4908 36.8057 12.2801 36.8057 13.103V25.5152C36.8057 26.3381 36.479 27.1274 35.8975 27.7093C35.316 28.2913 34.5273 28.6182 33.705 28.6182H18.8433C18.4321 28.6183 18.0378 28.7818 17.7472 29.0728L13.324 33.4992C13.2157 33.6079 13.0776 33.682 12.9272 33.7121C12.7768 33.7422 12.6208 33.727 12.4791 33.6683C12.3373 33.6097 12.2161 33.5103 12.1308 33.3827C12.0456 33.2551 12 33.1051 12 32.9516V13.103ZM17.4262 14.6545C17.2206 14.6545 17.0235 14.7363 16.8781 14.8818C16.7327 15.0272 16.6511 15.2246 16.6511 15.4303C16.6511 15.636 16.7327 15.8334 16.8781 15.9788C17.0235 16.1243 17.2206 16.2061 17.4262 16.2061H31.3794C31.585 16.2061 31.7822 16.1243 31.9276 15.9788C32.0729 15.8334 32.1546 15.636 32.1546 15.4303C32.1546 15.2246 32.0729 15.0272 31.9276 14.8818C31.7822 14.7363 31.585 14.6545 31.3794 14.6545H17.4262ZM17.4262 18.5333C17.2206 18.5333 17.0235 18.6151 16.8781 18.7605C16.7327 18.906 16.6511 19.1033 16.6511 19.3091C16.6511 19.5148 16.7327 19.7122 16.8781 19.8576C17.0235 20.0031 17.2206 20.0848 17.4262 20.0848H31.3794C31.585 20.0848 31.7822 20.0031 31.9276 19.8576C32.0729 19.7122 32.1546 19.5148 32.1546 19.3091C32.1546 19.1033 32.0729 18.906 31.9276 18.7605C31.7822 18.6151 31.585 18.5333 31.3794 18.5333H17.4262ZM17.4262 22.4121C17.2206 22.4121 17.0235 22.4939 16.8781 22.6393C16.7327 22.7848 16.6511 22.9821 16.6511 23.1879C16.6511 23.3936 16.7327 23.5909 16.8781 23.7364C17.0235 23.8819 17.2206 23.9636 17.4262 23.9636H25.178C25.3836 23.9636 25.5808 23.8819 25.7261 23.7364C25.8715 23.5909 25.9532 23.3936 25.9532 23.1879C25.9532 22.9821 25.8715 22.7848 25.7261 22.6393C25.5808 22.4939 25.3836 22.4121 25.178 22.4121H17.4262Z" fill="#575757"/>
</svg>
