<svg width="32" height="32" viewBox="0 0 32 32" fill="none" xmlns="http://www.w3.org/2000/svg">
<path d="M10.666 16.0698C13.326 16.0698 15.3327 14.0631 15.3327 11.4031C15.3327 8.74314 13.326 6.73647 10.666 6.73647C8.00602 6.73647 5.99935 8.74314 5.99935 11.4031C5.99935 14.0631 8.00602 16.0698 10.666 16.0698ZM11.9993 17.3338H9.33268C5.65668 17.3338 2.66602 20.3245 2.66602 24.0005V25.3338H18.666V24.0005C18.666 20.3245 15.6753 17.3338 11.9993 17.3338ZM24.4847 3.51514L22.5994 5.40047C24.3607 7.16447 25.3327 9.50847 25.3327 12.0005C25.3327 14.4925 24.3607 16.8365 22.5994 18.6005L24.4847 20.4858C26.7514 18.2178 27.9993 15.2045 27.9993 12.0005C27.9993 8.79647 26.7514 5.78314 24.4847 3.51514V3.51514Z" fill="#0A1E5C"/>
<path d="M20.7125 7.2876L18.8271 9.1756C19.5831 9.92893 19.9991 10.9329 19.9991 12.0023C19.9991 13.0716 19.5831 14.0756 18.8271 14.8289L20.7125 16.7169C21.9711 15.4583 22.6658 13.7849 22.6658 12.0023C22.6658 10.2196 21.9711 8.54626 20.7125 7.2876Z" fill="#0A1E5C"/>
</svg>
