<svg width="21" height="21" viewBox="0 0 21 21" fill="none" xmlns="http://www.w3.org/2000/svg">
<path d="M10.5 1.3125C8.07242 1.34179 5.75252 2.31916 4.03584 4.03584C2.31916 5.75252 1.34179 8.07242 1.3125 10.5C1.34179 12.9276 2.31916 15.2475 4.03584 16.9642C5.75252 18.6808 8.07242 19.6582 10.5 19.6875C12.9276 19.6582 15.2475 18.6808 16.9642 16.9642C18.6808 15.2475 19.6582 12.9276 19.6875 10.5C19.6582 8.07242 18.6808 5.75252 16.9642 4.03584C15.2475 2.31916 12.9276 1.34179 10.5 1.3125ZM15.75 11.1562H11.1562V15.75H9.84375V11.1562H5.25V9.84375H9.84375V5.25H11.1562V9.84375H15.75V11.1562Z" fill="#0A1E5C"/>
<path d="M15.75 11.1562H11.1562V15.75H9.84375V11.1562H5.25V9.84375H9.84375V5.25H11.1562V9.84375H15.75V11.1562Z" fill="white"/>
</svg>
