<svg width="22" height="22" viewBox="0 0 22 22" fill="none" xmlns="http://www.w3.org/2000/svg">
<path d="M8.66667 0.5H1.66667C1.35725 0.5 1.0605 0.622916 0.841709 0.841709C0.622916 1.0605 0.5 1.35725 0.5 1.66667V8.66667C0.5 8.97609 0.622916 9.27283 0.841709 9.49162C1.0605 9.71042 1.35725 9.83333 1.66667 9.83333H8.66667C8.97609 9.83333 9.27283 9.71042 9.49162 9.49162C9.71042 9.27283 9.83333 8.97609 9.83333 8.66667V1.66667C9.83333 1.35725 9.71042 1.0605 9.49162 0.841709C9.27283 0.622916 8.97609 0.5 8.66667 0.5ZM7.5 7.5H2.83333V2.83333H7.5V7.5ZM20.3333 0.5H13.3333C13.0239 0.5 12.7272 0.622916 12.5084 0.841709C12.2896 1.0605 12.1667 1.35725 12.1667 1.66667V8.66667C12.1667 8.97609 12.2896 9.27283 12.5084 9.49162C12.7272 9.71042 13.0239 9.83333 13.3333 9.83333H20.3333C20.6428 9.83333 20.9395 9.71042 21.1583 9.49162C21.3771 9.27283 21.5 8.97609 21.5 8.66667V1.66667C21.5 1.35725 21.3771 1.0605 21.1583 0.841709C20.9395 0.622916 20.6428 0.5 20.3333 0.5ZM19.1667 7.5H14.5V2.83333H19.1667V7.5ZM8.66667 12.1667H1.66667C1.35725 12.1667 1.0605 12.2896 0.841709 12.5084C0.622916 12.7272 0.5 13.0239 0.5 13.3333V20.3333C0.5 20.6428 0.622916 20.9395 0.841709 21.1583C1.0605 21.3771 1.35725 21.5 1.66667 21.5H8.66667C8.97609 21.5 9.27283 21.3771 9.49162 21.1583C9.71042 20.9395 9.83333 20.6428 9.83333 20.3333V13.3333C9.83333 13.0239 9.71042 12.7272 9.49162 12.5084C9.27283 12.2896 8.97609 12.1667 8.66667 12.1667ZM7.5 19.1667H2.83333V14.5H7.5V19.1667ZM16.8333 12.1667C14.2597 12.1667 12.1667 14.2597 12.1667 16.8333C12.1667 19.407 14.2597 21.5 16.8333 21.5C19.407 21.5 21.5 19.407 21.5 16.8333C21.5 14.2597 19.407 12.1667 16.8333 12.1667ZM16.8333 19.1667C15.5465 19.1667 14.5 18.1202 14.5 16.8333C14.5 15.5465 15.5465 14.5 16.8333 14.5C18.1202 14.5 19.1667 15.5465 19.1667 16.8333C19.1667 18.1202 18.1202 19.1667 16.8333 19.1667Z" fill="#0A1E5C"/>
</svg>
