<svg width="27" height="27" viewBox="0 0 27 27" fill="none" xmlns="http://www.w3.org/2000/svg">
<circle cx="13.375" cy="13.375" r="13.375" fill="#FFBF5F"/>
<path fill-rule="evenodd" clip-rule="evenodd" d="M9.1537 10.5048C8.7632 10.5048 8.44695 10.1789 8.50745 9.79387C8.88558 7.455 10.6676 5.75 13.76 5.75C16.8537 5.75 18.9396 7.62 18.9396 10.1706C18.9396 12.0186 18.0252 13.3166 16.4783 14.2585C14.9658 15.1646 14.5341 15.7957 14.5341 17.0223V17.0635C14.5341 17.2458 14.4616 17.4207 14.3327 17.5496C14.2038 17.6786 14.0289 17.751 13.8466 17.751H12.7878C12.6067 17.751 12.4328 17.6795 12.3041 17.5521C12.1754 17.4246 12.1021 17.2515 12.1003 17.0704L12.0962 16.7954C12.0371 15.1165 12.7521 14.044 14.3581 13.0664C15.7743 12.1974 16.279 11.5058 16.279 10.2779C16.279 8.93175 15.2367 7.94313 13.6307 7.94313C12.2433 7.94313 11.2795 8.6705 10.966 9.87088C10.8752 10.2201 10.5837 10.5048 10.2235 10.5048H9.15508H9.1537ZM13.3076 22.25C14.1628 22.25 14.8132 21.5982 14.8132 20.7512C14.8132 19.9015 14.1628 19.2498 13.3076 19.2498C12.4743 19.2498 11.813 19.9015 11.813 20.7499C11.813 21.5983 12.4743 22.25 13.3076 22.25Z" fill="white"/>
</svg>
