<svg width="27" height="27" viewBox="0 0 27 27" fill="none" xmlns="http://www.w3.org/2000/svg">
<circle cx="13.375" cy="13.375" r="13.375" fill="#FFBF5F"/>
<path d="M15.4208 20.0406C15.4208 21.2192 14.478 22.1855 13.2758 22.1855C12.0737 22.1855 11.1309 21.2192 11.1309 20.0406C11.1309 18.862 12.0737 17.8956 13.2758 17.8956C14.478 17.8956 15.4208 18.8621 15.4208 20.0406ZM14.2588 15.7507H12.2704C11.9757 15.7507 11.733 15.5189 11.7196 15.2245L11.2987 6.02681C11.2843 5.71269 11.5351 5.4502 11.8495 5.4502H14.7008C15.0157 5.4502 15.2667 5.71352 15.2516 6.02807L14.8096 15.2257C14.7955 15.5197 14.5531 15.7507 14.2588 15.7507Z" fill="white"/>
</svg>
