<svg width="27" height="29" viewBox="0 0 27 29" fill="none" xmlns="http://www.w3.org/2000/svg">
<path d="M13.5052 10.5516C12.5526 10.5516 11.6605 10.9276 10.9851 11.6147C10.3128 12.3019 9.94005 13.2094 9.94005 14.1785C9.94005 15.1476 10.3128 16.0551 10.9851 16.7423C11.6605 17.4262 12.5526 17.8054 13.5052 17.8054C14.4578 17.8054 15.3499 17.4262 16.0253 16.7423C16.6976 16.0551 17.0703 15.1476 17.0703 14.1785C17.0703 13.2094 16.6976 12.3019 16.0253 11.6147C15.6954 11.2765 15.3027 11.0084 14.8701 10.8259C14.4375 10.6434 13.9735 10.5502 13.5052 10.5516V10.5516ZM26.6411 18.1846L24.5574 16.3728C24.6562 15.757 24.7072 15.1282 24.7072 14.5026C24.7072 13.8771 24.6562 13.2451 24.5574 12.6325L26.6411 10.8207C26.7985 10.6836 26.9111 10.501 26.9641 10.2972C27.017 10.0934 27.0077 9.87805 26.9374 9.67976L26.9087 9.59549C26.3353 7.96418 25.476 6.45206 24.3726 5.1324L24.3153 5.06433C24.1813 4.90406 24.0027 4.78885 23.8031 4.73389C23.6035 4.67892 23.3922 4.68678 23.197 4.75642L20.61 5.69312C19.6542 4.89579 18.59 4.267 17.4367 3.82945L16.9365 1.07769C16.8988 0.870392 16.7999 0.679682 16.6531 0.530897C16.5063 0.382112 16.3184 0.282295 16.1145 0.244709L16.0285 0.228503C14.3718 -0.0761675 12.6258 -0.0761675 10.9691 0.228503L10.8831 0.244709C10.6792 0.282295 10.4913 0.382112 10.3445 0.530897C10.1977 0.679682 10.0989 0.870392 10.0611 1.07769L9.55773 3.84241C8.41531 4.28346 7.35108 4.91072 6.40677 5.6996L3.80062 4.75642C3.60553 4.68622 3.39405 4.67808 3.19431 4.73308C2.99456 4.78808 2.81599 4.90362 2.68233 5.06433L2.62498 5.1324C1.52356 6.45347 0.664544 7.96521 0.0889248 9.59549L0.0602508 9.67976C-0.0831194 10.0849 0.0347628 10.5387 0.356549 10.8207L2.46568 12.6519C2.36692 13.2613 2.31913 13.8836 2.31913 14.4994C2.31913 15.1217 2.36692 15.744 2.46568 16.3469L0.362921 18.1781C0.205519 18.3152 0.0928641 18.4978 0.0399367 18.7016C-0.0129907 18.9054 -0.00368289 19.1207 0.0666227 19.319L0.0952967 19.4033C0.671963 21.0336 1.52263 22.5407 2.63135 23.8664L2.6887 23.9344C2.82269 24.0947 3.00126 24.2099 3.20089 24.2649C3.40052 24.3199 3.61184 24.312 3.80699 24.2423L6.41314 23.2992C7.36257 24.0933 8.42032 24.722 9.5641 25.1564L10.0675 27.9211C10.1052 28.1284 10.2041 28.3191 10.3509 28.4679C10.4977 28.6167 10.6856 28.7165 10.8895 28.7541L10.9755 28.7703C12.6485 29.0766 14.3619 29.0766 16.0349 28.7703L16.1209 28.7541C16.3248 28.7165 16.5127 28.6167 16.6595 28.4679C16.8063 28.3191 16.9051 28.1284 16.9429 27.9211L17.4431 25.1693C18.5964 24.7285 19.6605 24.103 20.6163 23.3056L23.2034 24.2423C23.3985 24.3125 23.6099 24.3207 23.8097 24.2657C24.0094 24.2107 24.188 24.0952 24.3217 23.9344L24.379 23.8664C25.4877 22.5343 26.3384 21.0336 26.9151 19.4033L26.9437 19.319C27.0807 18.9171 26.9629 18.4666 26.6411 18.1846ZM13.5052 19.8765C10.4116 19.8765 7.90419 17.3257 7.90419 14.1785C7.90419 11.0313 10.4116 8.48053 13.5052 8.48053C16.5988 8.48053 19.1062 11.0313 19.1062 14.1785C19.1062 17.3257 16.5988 19.8765 13.5052 19.8765Z" fill="white"/>
</svg>
