<svg width="18" height="17" viewBox="0 0 18 17" fill="none" xmlns="http://www.w3.org/2000/svg">
<path d="M12.75 4.04521C12.75 5.88578 10.4656 9.16577 9.4625 10.4872C9.22187 10.8412 8.77813 10.8412 8.5375 10.4872C7.53438 9.16577 5.25 5.88578 5.25 4.04521C5.25 1.81124 6.92812 0 9 0C11.0719 0 12.75 1.81124 12.75 4.04521ZM9 5.12393C9.69063 5.12393 10.25 4.52052 10.25 3.77553C10.25 3.03087 9.69063 2.42713 9 2.42713C8.30937 2.42713 7.75 3.03087 7.75 3.77553C7.75 4.52052 8.30937 5.12393 9 5.12393ZM13.3 6.06107C13.3156 6.02062 13.3313 5.98017 13.3469 5.93635L16.9719 4.3722C17.4656 4.15983 18 4.55086 18 5.12393V14.2526C18 14.583 17.8125 14.8796 17.5281 15.0044L13 16.9562V6.7555C13.1094 6.5229 13.2094 6.29367 13.3 6.06107ZM4.7 6.06107C4.79062 6.29367 4.89062 6.5229 5 6.7555V15.2302L1.02844 16.9461C0.535937 17.1281 0 16.7674 0 16.1943V7.06564C0 6.73528 0.186719 6.40829 0.471563 6.3139L4.3 4.66211C4.375 5.14079 4.52812 5.6161 4.7 6.06107ZM10.2437 11.1614C10.6781 10.6052 11.3594 9.6512 12 8.59607V17L6 15.1493V8.59607C6.64062 9.6512 7.32188 10.6052 7.75625 11.1614C8.39688 12.0547 9.60312 12.0547 10.2437 11.1614Z" fill="#3C4F76"/>
</svg>
