<svg width="17" height="21" viewBox="0 0 17 21" fill="none" xmlns="http://www.w3.org/2000/svg">
<path d="M5.375 12.583L11.625 6.33301" stroke="#3C4F76" stroke-width="2" stroke-linecap="round" stroke-linejoin="round"/>
<path d="M5.89583 7.37467C6.18348 7.37467 6.41667 7.14149 6.41667 6.85384C6.41667 6.56619 6.18348 6.33301 5.89583 6.33301C5.60819 6.33301 5.375 6.56619 5.375 6.85384C5.375 7.14149 5.60819 7.37467 5.89583 7.37467Z" stroke="#3C4F76" stroke-width="2" stroke-linecap="round" stroke-linejoin="round"/>
<path d="M11.1043 12.5837C11.392 12.5837 11.6252 12.3505 11.6252 12.0628C11.6252 11.7752 11.392 11.542 11.1043 11.542C10.8167 11.542 10.5835 11.7752 10.5835 12.0628C10.5835 12.3505 10.8167 12.5837 11.1043 12.5837Z" stroke="#3C4F76" stroke-width="2" stroke-linecap="round" stroke-linejoin="round"/>
<path d="M1.2085 19.875V3.20833C1.2085 2.6558 1.42799 2.12589 1.81869 1.73519C2.20939 1.34449 2.73929 1.125 3.29183 1.125H13.7085C14.261 1.125 14.7909 1.34449 15.1816 1.73519C15.5723 2.12589 15.7918 2.6558 15.7918 3.20833V19.875L12.6668 17.7917L10.5835 19.875L8.50016 17.7917L6.41683 19.875L4.3335 17.7917L1.2085 19.875Z" stroke="#3C4F76" stroke-width="2" stroke-linecap="round" stroke-linejoin="round"/>
</svg>
