<svg width="24" height="24" viewBox="0 0 24 24" fill="none" xmlns="http://www.w3.org/2000/svg">
<path d="M17.98 11.0371C14.6891 11.0371 11.96 13.7261 11.96 17.0572C11.96 20.3482 14.6489 23.0773 17.98 23.0773C21.3112 23.0773 24.0001 20.3883 24.0001 17.0572C24.0001 13.7261 21.271 11.0371 17.98 11.0371ZM20.9098 16.2947L19.7861 17.4184C19.6657 17.5388 19.6255 17.6592 19.6255 17.7395L19.9065 19.4251C19.9867 19.9067 19.5453 19.6258 19.5453 19.6258L18.1807 18.9034C17.98 18.783 17.7794 18.9034 17.7794 18.9034L16.3747 19.6258C16.0135 19.8264 16.0135 19.6258 16.0135 19.4652L16.2944 17.9C16.3346 17.5789 16.174 17.4585 16.174 17.4184L15.1707 16.4552L15.0503 16.3348C14.9299 16.2144 14.8496 16.0137 15.2911 15.9334L16.6958 15.7328C16.8964 15.6926 17.0168 15.6124 17.057 15.5321L17.8195 13.9669C17.8596 13.8465 18.0202 13.7261 18.1807 14.0472L18.9433 15.5722C18.9834 15.6525 19.1038 15.6926 19.1841 15.7328H19.3045L20.7894 15.9334H20.8296C20.9098 15.9736 21.1908 16.0538 20.9098 16.2947Z" fill="#3C4F76"/>
<path d="M11.5586 22.9977C11.9599 22.9977 12.2007 22.5161 11.9599 22.195C10.6756 20.7502 9.95321 18.904 9.95321 16.9776C9.95321 15.6131 10.3947 14.088 11.1171 12.884C11.9599 11.4391 12.9231 10.8371 13.6857 9.71338C14.9298 7.86722 15.1706 5.21838 14.3679 3.21169C13.5653 1.16486 11.679 -0.0391612 9.4716 0.000972672C7.26424 0.0411066 5.45821 1.40566 4.77594 3.45249C3.97326 5.69999 4.33446 8.42909 6.14049 10.1147C6.90303 10.797 7.54518 11.8806 7.18397 12.9241C7.1037 13.1248 6.8629 13.4458 6.30102 13.6866C4.01339 14.69 1.68562 15.894 0.642143 17.5796C0.441473 17.9007 0.0401339 18.7034 0 19.8271C0 20.1081 1.52501e-07 20.3489 0.0401341 20.7101C0.0401341 20.8706 0.0401335 20.8706 0.0802674 21.0311C0.200669 21.7134 0.602009 22.3154 1.20402 22.6766C1.44482 22.797 2.0067 22.9977 3.09031 22.9977H11.5586Z" fill="#3C4F76"/>
</svg>
