<svg width="24" height="20" viewBox="0 0 24 20" fill="none" xmlns="http://www.w3.org/2000/svg">
<path fill-rule="evenodd" clip-rule="evenodd" d="M20.4 0C22.3882 0 24 1.61177 24 3.6V15.6C24 17.5882 22.3882 19.2 20.4 19.2H3.6C1.61177 19.2 0 17.5882 0 15.6V3.6C0 1.61177 1.61177 0 3.6 0H20.4ZM21.6 3.9936L12.7902 11.7031C12.3755 12.066 11.7733 12.0962 11.3273 11.7938L11.2098 11.7031L2.4 3.9948V15.6C2.4 16.2627 2.93726 16.8 3.6 16.8H20.4C21.0627 16.8 21.6 16.2627 21.6 15.6V3.9936ZM19.776 2.4H4.2216L12 9.20548L19.776 2.4Z" fill="#3C4F76"/>
</svg>
