<svg width="23" height="22" viewBox="0 0 23 22" fill="none" xmlns="http://www.w3.org/2000/svg">
<path d="M8.11768 0H13.5294V5.41176H8.11768V0Z" fill="#3C4F76"/>
<path d="M0 16.2354H5.41176V21.6471H0V16.2354Z" fill="#3C4F76"/>
<path d="M0 8.11719H5.41176V13.529H0V8.11719Z" fill="#3C4F76"/>
<path d="M0 0H5.41176V5.41176H0V0Z" fill="#3C4F76"/>
<path d="M13.5294 11.3913V8.11719H8.11768V13.529H11.3918L13.5294 11.3913Z" fill="#3C4F76"/>
<path d="M22.8375 9.86248L21.2546 8.27954C21.0381 8.06307 20.6864 8.06307 20.4699 8.27954L19.2793 9.47013L21.6469 11.8378L22.8375 10.6472C23.054 10.4307 23.054 10.079 22.8375 9.86248Z" fill="#3C4F76"/>
<path d="M9.47021 19.279V21.6466H11.8379L20.862 12.6225L18.4943 10.2549L9.47021 19.279Z" fill="#3C4F76"/>
<path d="M16.2354 0H21.6471V5.41176H16.2354V0Z" fill="#3C4F76"/>
</svg>
