<svg width="26" height="23" viewBox="0 0 26 23" fill="none" xmlns="http://www.w3.org/2000/svg">
<path d="M1 7.46154C1 1 7.46154 1 13 1C18.5385 1 25 1 25 7.46154C25 14.8462 18.5385 6.53846 18.5385 6.53846H7.46154C7.46154 6.53846 1 14.8462 1 7.46154ZM8.38462 9.30769C8.38462 9.30769 3.76923 13.9231 3.76923 22.2308H22.2308C22.2308 13.9231 17.6154 9.30769 17.6154 9.30769H8.38462Z" stroke="#3C4F76" stroke-width="1.5" stroke-linecap="round" stroke-linejoin="round"/>
<path d="M12.9999 19.4618C15.0391 19.4618 16.6922 17.8087 16.6922 15.7695C16.6922 13.7303 15.0391 12.0771 12.9999 12.0771C10.9607 12.0771 9.30762 13.7303 9.30762 15.7695C9.30762 17.8087 10.9607 19.4618 12.9999 19.4618Z" stroke="#3C4F76" stroke-width="1.5" stroke-linecap="round" stroke-linejoin="round"/>
</svg>
