<svg width="24" height="22" viewBox="0 0 24 22" fill="none" xmlns="http://www.w3.org/2000/svg">
<path d="M6.66667 18.6667C5.6 18.6667 4.53333 17.7333 4 17.3333C1.33333 15.4667 0.533333 14.8 0 14.4V20C0 20.7362 0.597083 21.3333 1.33333 21.3333H12C12.7362 21.3333 13.3333 20.7362 13.3333 20V14.4C12.8 14.8 12 15.4667 9.33333 17.3333C8.8 17.7333 7.73333 18.6667 6.66667 18.6667ZM12 10.6667H1.33333C0.597083 10.6667 0 11.2638 0 12V12.6667C1.06667 13.4667 0.933333 13.4667 4.8 16.2667C5.2 16.5333 6 17.3333 6.66667 17.3333C7.33333 17.3333 8.13333 16.5333 8.53333 16.4C12.4 13.6 12.2667 13.6 13.3333 12.8V12C13.3333 11.2638 12.7362 10.6667 12 10.6667ZM22.6667 6.66667H9.33333C8.59708 6.66667 8 7.26375 8 8V9.33333H12C13.3837 9.33333 14.5246 10.3925 14.6546 11.7425L14.6667 11.7333V17.3333H22.6667C23.4029 17.3333 24 16.7362 24 16V8C24 7.26375 23.4029 6.66667 22.6667 6.66667ZM21.3333 12H18.6667V9.33333H21.3333V12ZM6.66667 8C6.66667 6.52958 7.86292 5.33333 9.33333 5.33333H18.6667V1.33333C18.6667 0.597083 18.0696 0 17.3333 0H4C3.26375 0 2.66667 0.597083 2.66667 1.33333V9.33333H6.66667V8Z" fill="#3C4F76"/>
</svg>
