<svg width="24" height="24" viewBox="0 0 24 24" fill="none" xmlns="http://www.w3.org/2000/svg">
<path d="M15.2727 24H13.0909V21.8182H15.2727V24ZM19.6364 21.8182H17.4545V24H19.6364V21.8182ZM15.2727 17.4545H13.0909V19.6364H15.2727V17.4545ZM6.54545 21.8182H4.36364V24H6.54545V21.8182ZM6.54545 17.4545H4.36364V19.6364H6.54545V17.4545ZM19.6364 17.4545H17.4545V19.6364H19.6364V17.4545ZM15.2727 13.0909H13.0909V15.2727H15.2727V13.0909ZM19.6364 13.0909H17.4545V15.2727H19.6364V13.0909ZM21.8182 8.72727C22.3968 8.72727 22.9518 8.95714 23.361 9.36631C23.7701 9.77548 24 10.3304 24 10.9091V24H21.8182V10.9091H10.9091V24H8.72727V15.2727H2.18182V24H0V15.2727C0 14.6941 0.22987 14.1391 0.63904 13.7299C1.04821 13.3208 1.60316 13.0909 2.18182 13.0909H8.72727V10.9091C8.72727 10.3304 8.95714 9.77548 9.36631 9.36631C9.77548 8.95714 10.3304 8.72727 10.9091 8.72727V6.54545C10.9091 5.9668 11.139 5.41185 11.5481 5.00268C11.9573 4.59351 12.5123 4.36364 13.0909 4.36364H15.2727V0H17.4545V4.36364H19.6364C20.215 4.36364 20.77 4.59351 21.1791 5.00268C21.5883 5.41185 21.8182 5.9668 21.8182 6.54545V8.72727ZM19.6364 8.72727V6.54545H13.0909V8.72727H19.6364Z" fill="#3C4F76"/>
</svg>
