<svg width="24" height="24" viewBox="0 0 24 24" fill="none" xmlns="http://www.w3.org/2000/svg">
<path d="M23.0927 17.5577L20.6157 15.5601C19.7767 14.8809 18.5781 14.8405 17.6991 15.4802L15.3419 17.1982C15.0223 17.4379 14.5832 17.3979 14.3031 17.1183L10.4277 13.6024L6.87189 9.68703C6.59222 9.40736 6.55227 8.96788 6.79198 8.64825L8.50995 6.29104C9.1492 5.41208 9.10925 4.21349 8.43005 3.37448L6.43241 0.897406C5.55344 -0.221273 3.87543 -0.301179 2.8766 0.697642L0.719151 2.85509C0.239717 3.33453 0 4.01373 0 4.65297C0.27967 9.72698 2.59693 14.5613 5.99293 17.9573C9.38892 21.3533 14.1833 23.6705 19.2972 23.9502C19.9764 23.9901 20.6157 23.7101 21.0951 23.2306L23.2525 21.0736C24.3313 20.1147 24.2114 18.4367 23.0927 17.5577Z" fill="#3C4F76"/>
</svg>
