<svg width="24" height="24" viewBox="0 0 24 24" fill="none" xmlns="http://www.w3.org/2000/svg">
<path d="M12 0C5.4 0 0 5.4 0 12C0 18.6 5.4 24 12 24C18.6 24 24 18.6 24 12C24 5.4 18.6 0 12 0ZM19.8 7.95C20.4 7.95 20.85 8.4 21.45 8.4C21 9 19.05 9 18.45 8.25C18.9 8.1 19.2 7.95 19.8 7.95ZM1.5 12C1.5 11.4 1.5 10.8 1.65 10.05C1.8 10.05 1.95 10.2 2.1 10.2C2.1 10.2 2.25 10.35 2.25 10.5C2.25 10.95 2.7 11.25 3 11.25C4.2 11.4 4.65 12.45 5.7 12.75C6 12.9 5.85 13.2 5.7 13.5C4.8 14.7 5.55 15.6 6.3 16.35C7.05 16.95 7.05 17.55 7.2 18.45C7.2 19.5 7.35 20.7 7.8 21.75C4.05 19.95 1.5 16.35 1.5 12ZM12 22.5C10.95 22.5 9.75 22.35 8.85 22.05C8.7 21.75 8.7 21.45 8.85 21.15C9.45 19.95 10.05 18.9 10.8 17.85C11.1 17.55 11.4 17.25 11.4 16.8C11.4 16.5 11.55 16.05 11.7 15.75C12.15 15 12 14.55 11.4 14.4C10.2 14.1 9.6 13.05 8.7 12.6C7.8 12.15 6.9 11.85 6.15 12.3C5.85 12.45 5.4 12.6 5.4 12.15C5.4 11.55 4.65 11.1 4.8 10.5C4.65 10.5 4.5 10.5 4.35 10.65C4.2 10.8 4.05 10.95 3.75 10.8C3.45 10.5 3.6 10.2 3.6 9.9C3.75 9.6 3.9 9.45 4.2 9.3C4.8 9.15 5.4 9.15 5.7 9.9C6.15 8.55 7.05 7.8 7.95 7.2C7.95 7.2 9.15 6.15 9.3 6.15C9.45 6.15 9.6 6.45 9.9 6.6C10.2 6.6 10.35 6.6 10.35 6.3C10.5 5.55 10.05 4.65 9.45 4.5C9.45 4.35 9.6 4.35 9.6 4.35C10.05 4.2 10.65 3.9 10.5 3.45C10.5 2.85 9.9 2.55 9.3 2.55C9 2.55 8.7 2.55 8.4 2.7C7.8 3 7.05 3.3 6.15 3.3C7.8 2.1 9.9 1.5 12 1.5H13.2C12.3 1.65 11.4 1.95 10.8 2.25C11.7 2.4 11.85 2.85 11.55 3.6C11.4 3.9 11.55 4.2 11.85 4.35C12.15 4.5 12.45 4.5 12.6 4.2C12.9 3.75 13.5 3.6 13.95 3.45C14.55 3.3 15 3 15.45 2.4C15.45 2.25 15.6 2.25 15.75 2.1C16.65 2.4 17.55 3 18.45 3.6C18.3 3.6 18.3 3.75 18.15 3.75C17.85 4.05 17.4 4.2 17.85 4.8C18 5.1 17.85 5.25 17.7 5.4C17.4 5.55 17.25 5.4 17.1 5.25C16.95 5.1 16.95 4.8 16.5 4.8C16.35 5.1 15.9 5.25 15.9 5.7C16.65 5.7 16.5 6.3 16.65 6.75C15.75 6.9 15.45 7.35 15.9 8.1C16.05 8.4 15.75 8.55 15.6 8.7C15 9.6 14.4 10.2 14.4 11.25C14.4 12.3 15.15 13.35 16.35 13.2C17.7 13.05 17.7 13.05 18.15 14.25C18.15 14.4 18.3 14.55 18.3 14.7C18.45 15 18.6 15.3 18.45 15.6C18 16.8 18.6 17.7 19.05 18.6C19.2 18.9 19.35 19.05 19.5 19.2C17.55 21.3 15 22.5 12 22.5Z" fill="#3C4F76"/>
</svg>
