<svg width="24" height="24" viewBox="0 0 24 24" fill="none" xmlns="http://www.w3.org/2000/svg">
<path fill-rule="evenodd" clip-rule="evenodd" d="M10.8 0C12.7882 0 14.4 1.61177 14.4 3.6L14.4001 5.00481C14.7754 4.87217 15.1793 4.8 15.6 4.8H20.4C22.3882 4.8 24 6.41178 24 8.4V20.4C24 22.3882 22.3882 24 20.4 24H3.6C1.61177 24 0 22.3882 0 20.4V3.6C0 1.61177 1.61177 0 3.6 0H10.8ZM10.8 2.4H3.6C2.93726 2.4 2.4 2.93726 2.4 3.6V20.4C2.4 21.0627 2.93726 21.6 3.6 21.6H12V3.6C12 2.93726 11.4627 2.4 10.8 2.4ZM20.4 7.2H15.6C14.9373 7.2 14.4 7.73726 14.4 8.4V21.6H20.4C21.0627 21.6 21.6 21.0627 21.6 20.4V8.4C21.6 7.73726 21.0627 7.2 20.4 7.2ZM8.4 14.4C9.06274 14.4 9.6 14.9373 9.6 15.6C9.6 16.2627 9.06274 16.8 8.4 16.8H6C5.33726 16.8 4.8 16.2627 4.8 15.6C4.8 14.9373 5.33726 14.4 6 14.4H8.4ZM19.2 14.4C19.8627 14.4 20.4 14.9373 20.4 15.6C20.4 16.2627 19.8627 16.8 19.2 16.8H16.8C16.1373 16.8 15.6 16.2627 15.6 15.6C15.6 14.9373 16.1373 14.4 16.8 14.4H19.2ZM8.4 9.6C9.06274 9.6 9.6 10.1373 9.6 10.8C9.6 11.4627 9.06274 12 8.4 12H6C5.33726 12 4.8 11.4627 4.8 10.8C4.8 10.1373 5.33726 9.6 6 9.6H8.4ZM19.2 9.6C19.8627 9.6 20.4 10.1373 20.4 10.8C20.4 11.4627 19.8627 12 19.2 12H16.8C16.1373 12 15.6 11.4627 15.6 10.8C15.6 10.1373 16.1373 9.6 16.8 9.6H19.2ZM8.4 4.8C9.06274 4.8 9.6 5.33726 9.6 6C9.6 6.66274 9.06274 7.2 8.4 7.2H6C5.33726 7.2 4.8 6.66274 4.8 6C4.8 5.33726 5.33726 4.8 6 4.8H8.4Z" fill="#315576"/>
</svg>
