<svg width="24" height="16" viewBox="0 0 24 16" fill="none" xmlns="http://www.w3.org/2000/svg">
<path d="M23.8829 14.1111L18.0584 0.777911C17.8513 0.303748 17.4001 0 16.9034 0H12.8372L12.9393 0.964993C12.9601 1.16166 12.8055 1.33332 12.6076 1.33332H11.3926C11.1947 1.33332 11.0401 1.16166 11.0609 0.964993L11.163 0H7.09681C6.59973 0 6.14848 0.303748 5.9414 0.777911L0.116856 14.1111C-0.268558 14.9941 0.346437 15.9999 1.27268 15.9999H9.47429L9.90387 11.9299C9.9397 11.5907 10.2255 11.3333 10.5668 11.3333H13.4334C13.7747 11.3333 14.0605 11.5907 14.0963 11.9299L14.5259 15.9999H22.7275C23.6538 15.9999 24.2688 14.9941 23.8829 14.1111ZM10.8501 2.96498C10.8588 2.88306 10.8974 2.80724 10.9587 2.75215C11.0199 2.69706 11.0994 2.6666 11.1818 2.66665H12.8188C12.9893 2.66665 13.1326 2.7954 13.1505 2.96498L13.3422 4.7808C13.3734 5.07621 13.1418 5.33329 12.8451 5.33329H11.1559C10.8589 5.33329 10.6276 5.07621 10.6589 4.7808L10.8501 2.96498ZM13.1518 9.99993H10.848C10.4522 9.99993 10.1434 9.65701 10.1851 9.26327L10.3964 7.26328C10.4322 6.92412 10.718 6.66662 11.0593 6.66662H12.9405C13.2818 6.66662 13.5676 6.92412 13.6034 7.26328L13.8147 9.26327C13.8563 9.65701 13.5476 9.99993 13.1518 9.99993Z" fill="#3C4F76"/>
</svg>
